ISO-10303-21;
HEADER;
/* Generated by software containing ST-Developer
 * from STEP Tools, Inc. (www.steptools.com) 
 */
/* OPTION: using custom renumber hook */

FILE_DESCRIPTION(
/* description */ ('STEP AP242 Edition 2',
'CAx-IF Rec.Pracs.---Representation and Presentation of Product Manufa
cturing Information (PMI)---4.0---2014-10-13',
'CAx-IF Rec.Pracs.---3D Tessellated Geometry---0.4---2014-09-14','2;1',
'CAx-IF Rec.Pracs.---User Defined Attributes---1.5---2016-08-15'),
/* implementation_level */ '2;1');

FILE_NAME(
/* name */ 'superugh',
/* time_stamp */ '2026-09-22T02:25:00Z',
/* author */ (''),
/* organization */ (''),
/* preprocessor_version */ 'ST-DEVELOPER v20',
/* originating_system */ 'ONSHAPE BY PTC INC, 1.221',
/* authorisation */ '  ');

FILE_SCHEMA (('AP242_MANAGED_MODEL_BASED_3D_ENGINEERING_MIM_LF { 1 0 10303 442 3 1 4 }'));
ENDSEC;

DATA;
#10=CIRCLE('',#526,0.00235);
#11=CIRCLE('',#527,0.00235);
#12=CIRCLE('',#529,0.00374864437840133);
#13=CIRCLE('',#530,0.00374864437840133);
#14=CIRCLE('',#535,0.00235);
#15=CIRCLE('',#536,0.00235);
#16=CIRCLE('',#538,0.0037465);
#17=CIRCLE('',#539,0.0037465);
#18=CYLINDRICAL_SURFACE('',#525,0.00235);
#19=CYLINDRICAL_SURFACE('',#528,0.00374864437840133);
#20=CYLINDRICAL_SURFACE('',#534,0.00235);
#21=CYLINDRICAL_SURFACE('',#537,0.0037465);
#22=SHAPE_REPRESENTATION_RELATIONSHIP('','',#499,#26);
#23=SHAPE_REPRESENTATION_RELATIONSHIP('','',#500,#27);
#24=SHAPE_REPRESENTATION_RELATIONSHIP('','',#501,#28);
#25=SHAPE_REPRESENTATION_RELATIONSHIP('','',#502,#29);
#26=ADVANCED_BREP_SHAPE_REPRESENTATION('',(#491),#799);
#27=ADVANCED_BREP_SHAPE_REPRESENTATION('',(#492),#800);
#28=ADVANCED_BREP_SHAPE_REPRESENTATION('',(#493),#801);
#29=ADVANCED_BREP_SHAPE_REPRESENTATION('',(#494),#802);
#30=ORIENTED_EDGE('',*,*,#142,.T.);
#31=ORIENTED_EDGE('',*,*,#143,.T.);
#32=ORIENTED_EDGE('',*,*,#144,.T.);
#33=ORIENTED_EDGE('',*,*,#145,.T.);
#34=ORIENTED_EDGE('',*,*,#146,.F.);
#35=ORIENTED_EDGE('',*,*,#147,.F.);
#36=ORIENTED_EDGE('',*,*,#148,.T.);
#37=ORIENTED_EDGE('',*,*,#149,.T.);
#38=ORIENTED_EDGE('',*,*,#144,.F.);
#39=ORIENTED_EDGE('',*,*,#150,.T.);
#40=ORIENTED_EDGE('',*,*,#151,.T.);
#41=ORIENTED_EDGE('',*,*,#152,.T.);
#42=ORIENTED_EDGE('',*,*,#153,.T.);
#43=ORIENTED_EDGE('',*,*,#154,.T.);
#44=ORIENTED_EDGE('',*,*,#155,.T.);
#45=ORIENTED_EDGE('',*,*,#156,.F.);
#46=ORIENTED_EDGE('',*,*,#148,.F.);
#47=ORIENTED_EDGE('',*,*,#157,.F.);
#48=ORIENTED_EDGE('',*,*,#158,.F.);
#49=ORIENTED_EDGE('',*,*,#159,.F.);
#50=ORIENTED_EDGE('',*,*,#160,.T.);
#51=ORIENTED_EDGE('',*,*,#161,.F.);
#52=ORIENTED_EDGE('',*,*,#154,.F.);
#53=ORIENTED_EDGE('',*,*,#162,.T.);
#54=ORIENTED_EDGE('',*,*,#151,.F.);
#55=ORIENTED_EDGE('',*,*,#163,.T.);
#56=ORIENTED_EDGE('',*,*,#164,.T.);
#57=ORIENTED_EDGE('',*,*,#165,.T.);
#58=ORIENTED_EDGE('',*,*,#155,.F.);
#59=ORIENTED_EDGE('',*,*,#161,.T.);
#60=ORIENTED_EDGE('',*,*,#166,.T.);
#61=ORIENTED_EDGE('',*,*,#167,.F.);
#62=ORIENTED_EDGE('',*,*,#168,.T.);
#63=ORIENTED_EDGE('',*,*,#169,.F.);
#64=ORIENTED_EDGE('',*,*,#152,.F.);
#65=ORIENTED_EDGE('',*,*,#167,.T.);
#66=ORIENTED_EDGE('',*,*,#170,.F.);
#67=ORIENTED_EDGE('',*,*,#145,.F.);
#68=ORIENTED_EDGE('',*,*,#159,.T.);
#69=ORIENTED_EDGE('',*,*,#171,.T.);
#70=ORIENTED_EDGE('',*,*,#172,.F.);
#71=ORIENTED_EDGE('',*,*,#173,.F.);
#72=ORIENTED_EDGE('',*,*,#157,.T.);
#73=ORIENTED_EDGE('',*,*,#147,.T.);
#74=ORIENTED_EDGE('',*,*,#174,.F.);
#75=ORIENTED_EDGE('',*,*,#171,.F.);
#76=ORIENTED_EDGE('',*,*,#158,.T.);
#77=ORIENTED_EDGE('',*,*,#173,.T.);
#78=ORIENTED_EDGE('',*,*,#175,.T.);
#79=ORIENTED_EDGE('',*,*,#162,.F.);
#80=ORIENTED_EDGE('',*,*,#153,.F.);
#81=ORIENTED_EDGE('',*,*,#169,.T.);
#82=ORIENTED_EDGE('',*,*,#170,.T.);
#83=ORIENTED_EDGE('',*,*,#174,.T.);
#84=ORIENTED_EDGE('',*,*,#172,.T.);
#85=ORIENTED_EDGE('',*,*,#146,.T.);
#86=ORIENTED_EDGE('',*,*,#160,.F.);
#87=ORIENTED_EDGE('',*,*,#175,.F.);
#88=ORIENTED_EDGE('',*,*,#168,.F.);
#89=ORIENTED_EDGE('',*,*,#166,.F.);
#90=ORIENTED_EDGE('',*,*,#176,.T.);
#91=ORIENTED_EDGE('',*,*,#164,.F.);
#92=ORIENTED_EDGE('',*,*,#177,.F.);
#93=ORIENTED_EDGE('',*,*,#142,.F.);
#94=ORIENTED_EDGE('',*,*,#177,.T.);
#95=ORIENTED_EDGE('',*,*,#163,.F.);
#96=ORIENTED_EDGE('',*,*,#150,.F.);
#97=ORIENTED_EDGE('',*,*,#143,.F.);
#98=ORIENTED_EDGE('',*,*,#156,.T.);
#99=ORIENTED_EDGE('',*,*,#165,.F.);
#100=ORIENTED_EDGE('',*,*,#176,.F.);
#101=ORIENTED_EDGE('',*,*,#149,.F.);
#102=ORIENTED_EDGE('',*,*,#178,.T.);
#103=ORIENTED_EDGE('',*,*,#179,.F.);
#104=ORIENTED_EDGE('',*,*,#180,.F.);
#105=ORIENTED_EDGE('',*,*,#181,.T.);
#106=ORIENTED_EDGE('',*,*,#182,.T.);
#107=ORIENTED_EDGE('',*,*,#183,.F.);
#108=ORIENTED_EDGE('',*,*,#184,.F.);
#109=ORIENTED_EDGE('',*,*,#179,.T.);
#110=ORIENTED_EDGE('',*,*,#185,.T.);
#111=ORIENTED_EDGE('',*,*,#186,.F.);
#112=ORIENTED_EDGE('',*,*,#187,.F.);
#113=ORIENTED_EDGE('',*,*,#183,.T.);
#114=ORIENTED_EDGE('',*,*,#188,.T.);
#115=ORIENTED_EDGE('',*,*,#181,.F.);
#116=ORIENTED_EDGE('',*,*,#189,.F.);
#117=ORIENTED_EDGE('',*,*,#186,.T.);
#118=ORIENTED_EDGE('',*,*,#180,.T.);
#119=ORIENTED_EDGE('',*,*,#184,.T.);
#120=ORIENTED_EDGE('',*,*,#187,.T.);
#121=ORIENTED_EDGE('',*,*,#189,.T.);
#122=ORIENTED_EDGE('',*,*,#178,.F.);
#123=ORIENTED_EDGE('',*,*,#188,.F.);
#124=ORIENTED_EDGE('',*,*,#185,.F.);
#125=ORIENTED_EDGE('',*,*,#182,.F.);
#126=ORIENTED_EDGE('',*,*,#190,.T.);
#127=ORIENTED_EDGE('',*,*,#191,.F.);
#128=ORIENTED_EDGE('',*,*,#192,.F.);
#129=ORIENTED_EDGE('',*,*,#193,.T.);
#130=ORIENTED_EDGE('',*,*,#190,.F.);
#131=ORIENTED_EDGE('',*,*,#192,.T.);
#132=ORIENTED_EDGE('',*,*,#191,.T.);
#133=ORIENTED_EDGE('',*,*,#193,.F.);
#134=ORIENTED_EDGE('',*,*,#194,.T.);
#135=ORIENTED_EDGE('',*,*,#195,.F.);
#136=ORIENTED_EDGE('',*,*,#196,.F.);
#137=ORIENTED_EDGE('',*,*,#197,.T.);
#138=ORIENTED_EDGE('',*,*,#194,.F.);
#139=ORIENTED_EDGE('',*,*,#196,.T.);
#140=ORIENTED_EDGE('',*,*,#195,.T.);
#141=ORIENTED_EDGE('',*,*,#197,.F.);
#142=EDGE_CURVE('',#198,#199,#238,.T.);
#143=EDGE_CURVE('',#199,#200,#239,.T.);
#144=EDGE_CURVE('',#200,#201,#240,.T.);
#145=EDGE_CURVE('',#201,#202,#241,.T.);
#146=EDGE_CURVE('',#203,#202,#242,.T.);
#147=EDGE_CURVE('',#204,#203,#243,.T.);
#148=EDGE_CURVE('',#204,#205,#244,.T.);
#149=EDGE_CURVE('',#205,#198,#245,.T.);
#150=EDGE_CURVE('',#200,#206,#246,.T.);
#151=EDGE_CURVE('',#206,#207,#247,.T.);
#152=EDGE_CURVE('',#207,#208,#248,.T.);
#153=EDGE_CURVE('',#208,#209,#249,.T.);
#154=EDGE_CURVE('',#209,#210,#250,.T.);
#155=EDGE_CURVE('',#210,#211,#251,.T.);
#156=EDGE_CURVE('',#205,#211,#252,.T.);
#157=EDGE_CURVE('',#212,#204,#253,.T.);
#158=EDGE_CURVE('',#213,#212,#254,.T.);
#159=EDGE_CURVE('',#201,#213,#255,.T.);
#160=EDGE_CURVE('',#214,#215,#256,.T.);
#161=EDGE_CURVE('',#210,#215,#257,.T.);
#162=EDGE_CURVE('',#209,#214,#258,.T.);
#163=EDGE_CURVE('',#206,#216,#259,.T.);
#164=EDGE_CURVE('',#216,#217,#260,.T.);
#165=EDGE_CURVE('',#217,#211,#261,.T.);
#166=EDGE_CURVE('',#215,#218,#262,.T.);
#167=EDGE_CURVE('',#207,#218,#263,.T.);
#168=EDGE_CURVE('',#218,#219,#264,.T.);
#169=EDGE_CURVE('',#208,#219,#265,.T.);
#170=EDGE_CURVE('',#202,#220,#266,.T.);
#171=EDGE_CURVE('',#213,#220,#267,.T.);
#172=EDGE_CURVE('',#221,#203,#268,.T.);
#173=EDGE_CURVE('',#212,#221,#269,.T.);
#174=EDGE_CURVE('',#220,#221,#270,.T.);
#175=EDGE_CURVE('',#219,#214,#271,.T.);
#176=EDGE_CURVE('',#198,#217,#272,.T.);
#177=EDGE_CURVE('',#199,#216,#273,.T.);
#178=EDGE_CURVE('',#222,#223,#274,.T.);
#179=EDGE_CURVE('',#224,#223,#275,.T.);
#180=EDGE_CURVE('',#225,#224,#276,.T.);
#181=EDGE_CURVE('',#225,#222,#277,.T.);
#182=EDGE_CURVE('',#223,#226,#278,.T.);
#183=EDGE_CURVE('',#227,#226,#279,.T.);
#184=EDGE_CURVE('',#224,#227,#280,.T.);
#185=EDGE_CURVE('',#226,#228,#281,.T.);
#186=EDGE_CURVE('',#229,#228,#282,.T.);
#187=EDGE_CURVE('',#227,#229,#283,.T.);
#188=EDGE_CURVE('',#228,#222,#284,.T.);
#189=EDGE_CURVE('',#229,#225,#285,.T.);
#190=EDGE_CURVE('',#230,#230,#10,.T.);
#191=EDGE_CURVE('',#231,#231,#11,.T.);
#192=EDGE_CURVE('',#232,#232,#12,.T.);
#193=EDGE_CURVE('',#233,#233,#13,.T.);
#194=EDGE_CURVE('',#234,#234,#14,.T.);
#195=EDGE_CURVE('',#235,#235,#15,.T.);
#196=EDGE_CURVE('',#236,#236,#16,.T.);
#197=EDGE_CURVE('',#237,#237,#17,.T.);
#198=VERTEX_POINT('',#671);
#199=VERTEX_POINT('',#672);
#200=VERTEX_POINT('',#674);
#201=VERTEX_POINT('',#676);
#202=VERTEX_POINT('',#678);
#203=VERTEX_POINT('',#680);
#204=VERTEX_POINT('',#682);
#205=VERTEX_POINT('',#684);
#206=VERTEX_POINT('',#688);
#207=VERTEX_POINT('',#690);
#208=VERTEX_POINT('',#692);
#209=VERTEX_POINT('',#694);
#210=VERTEX_POINT('',#696);
#211=VERTEX_POINT('',#698);
#212=VERTEX_POINT('',#701);
#213=VERTEX_POINT('',#703);
#214=VERTEX_POINT('',#707);
#215=VERTEX_POINT('',#708);
#216=VERTEX_POINT('',#713);
#217=VERTEX_POINT('',#715);
#218=VERTEX_POINT('',#718);
#219=VERTEX_POINT('',#722);
#220=VERTEX_POINT('',#726);
#221=VERTEX_POINT('',#730);
#222=VERTEX_POINT('',#745);
#223=VERTEX_POINT('',#746);
#224=VERTEX_POINT('',#748);
#225=VERTEX_POINT('',#750);
#226=VERTEX_POINT('',#754);
#227=VERTEX_POINT('',#756);
#228=VERTEX_POINT('',#760);
#229=VERTEX_POINT('',#762);
#230=VERTEX_POINT('',#772);
#231=VERTEX_POINT('',#774);
#232=VERTEX_POINT('',#777);
#233=VERTEX_POINT('',#779);
#234=VERTEX_POINT('',#785);
#235=VERTEX_POINT('',#787);
#236=VERTEX_POINT('',#790);
#237=VERTEX_POINT('',#792);
#238=LINE('',#670,#286);
#239=LINE('',#673,#287);
#240=LINE('',#675,#288);
#241=LINE('',#677,#289);
#242=LINE('',#679,#290);
#243=LINE('',#681,#291);
#244=LINE('',#683,#292);
#245=LINE('',#685,#293);
#246=LINE('',#687,#294);
#247=LINE('',#689,#295);
#248=LINE('',#691,#296);
#249=LINE('',#693,#297);
#250=LINE('',#695,#298);
#251=LINE('',#697,#299);
#252=LINE('',#699,#300);
#253=LINE('',#700,#301);
#254=LINE('',#702,#302);
#255=LINE('',#704,#303);
#256=LINE('',#706,#304);
#257=LINE('',#709,#305);
#258=LINE('',#710,#306);
#259=LINE('',#712,#307);
#260=LINE('',#714,#308);
#261=LINE('',#716,#309);
#262=LINE('',#717,#310);
#263=LINE('',#719,#311);
#264=LINE('',#721,#312);
#265=LINE('',#723,#313);
#266=LINE('',#725,#314);
#267=LINE('',#727,#315);
#268=LINE('',#729,#316);
#269=LINE('',#731,#317);
#270=LINE('',#733,#318);
#271=LINE('',#735,#319);
#272=LINE('',#738,#320);
#273=LINE('',#739,#321);
#274=LINE('',#744,#322);
#275=LINE('',#747,#323);
#276=LINE('',#749,#324);
#277=LINE('',#751,#325);
#278=LINE('',#753,#326);
#279=LINE('',#755,#327);
#280=LINE('',#757,#328);
#281=LINE('',#759,#329);
#282=LINE('',#761,#330);
#283=LINE('',#763,#331);
#284=LINE('',#765,#332);
#285=LINE('',#766,#333);
#286=VECTOR('',#546,1.);
#287=VECTOR('',#547,1.);
#288=VECTOR('',#548,1.);
#289=VECTOR('',#549,1.);
#290=VECTOR('',#550,1.);
#291=VECTOR('',#551,1.);
#292=VECTOR('',#552,1.);
#293=VECTOR('',#553,1.);
#294=VECTOR('',#556,1.);
#295=VECTOR('',#557,1.);
#296=VECTOR('',#558,1.);
#297=VECTOR('',#559,1.);
#298=VECTOR('',#560,1.);
#299=VECTOR('',#561,1.);
#300=VECTOR('',#562,1.);
#301=VECTOR('',#563,1.);
#302=VECTOR('',#564,1.);
#303=VECTOR('',#565,1.);
#304=VECTOR('',#568,1.);
#305=VECTOR('',#569,1.);
#306=VECTOR('',#570,1.);
#307=VECTOR('',#573,1.);
#308=VECTOR('',#574,1.);
#309=VECTOR('',#575,1.);
#310=VECTOR('',#576,1.);
#311=VECTOR('',#577,1.);
#312=VECTOR('',#580,1.);
#313=VECTOR('',#581,1.);
#314=VECTOR('',#584,1.);
#315=VECTOR('',#585,1.);
#316=VECTOR('',#588,1.);
#317=VECTOR('',#589,1.);
#318=VECTOR('',#592,1.);
#319=VECTOR('',#595,1.);
#320=VECTOR('',#600,1.);
#321=VECTOR('',#601,1.);
#322=VECTOR('',#610,1.);
#323=VECTOR('',#611,1.);
#324=VECTOR('',#612,1.);
#325=VECTOR('',#613,1.);
#326=VECTOR('',#616,1.);
#327=VECTOR('',#617,1.);
#328=VECTOR('',#618,1.);
#329=VECTOR('',#621,1.);
#330=VECTOR('',#622,1.);
#331=VECTOR('',#623,1.);
#332=VECTOR('',#626,1.);
#333=VECTOR('',#627,1.);
#334=EDGE_LOOP('',(#30,#31,#32,#33,#34,#35,#36,#37));
#335=EDGE_LOOP('',(#38,#39,#40,#41,#42,#43,#44,#45,#46,#47,#48,#49));
#336=EDGE_LOOP('',(#50,#51,#52,#53));
#337=EDGE_LOOP('',(#54,#55,#56,#57,#58,#59,#60,#61));
#338=EDGE_LOOP('',(#62,#63,#64,#65));
#339=EDGE_LOOP('',(#66,#67,#68,#69));
#340=EDGE_LOOP('',(#70,#71,#72,#73));
#341=EDGE_LOOP('',(#74,#75,#76,#77));
#342=EDGE_LOOP('',(#78,#79,#80,#81));
#343=EDGE_LOOP('',(#82,#83,#84,#85));
#344=EDGE_LOOP('',(#86,#87,#88,#89));
#345=EDGE_LOOP('',(#90,#91,#92,#93));
#346=EDGE_LOOP('',(#94,#95,#96,#97));
#347=EDGE_LOOP('',(#98,#99,#100,#101));
#348=EDGE_LOOP('',(#102,#103,#104,#105));
#349=EDGE_LOOP('',(#106,#107,#108,#109));
#350=EDGE_LOOP('',(#110,#111,#112,#113));
#351=EDGE_LOOP('',(#114,#115,#116,#117));
#352=EDGE_LOOP('',(#118,#119,#120,#121));
#353=EDGE_LOOP('',(#122,#123,#124,#125));
#354=EDGE_LOOP('',(#126));
#355=EDGE_LOOP('',(#127));
#356=EDGE_LOOP('',(#128));
#357=EDGE_LOOP('',(#129));
#358=EDGE_LOOP('',(#130));
#359=EDGE_LOOP('',(#131));
#360=EDGE_LOOP('',(#132));
#361=EDGE_LOOP('',(#133));
#362=EDGE_LOOP('',(#134));
#363=EDGE_LOOP('',(#135));
#364=EDGE_LOOP('',(#136));
#365=EDGE_LOOP('',(#137));
#366=EDGE_LOOP('',(#138));
#367=EDGE_LOOP('',(#139));
#368=EDGE_LOOP('',(#140));
#369=EDGE_LOOP('',(#141));
#370=FACE_BOUND('',#334,.T.);
#371=FACE_BOUND('',#335,.T.);
#372=FACE_BOUND('',#336,.T.);
#373=FACE_BOUND('',#337,.T.);
#374=FACE_BOUND('',#338,.T.);
#375=FACE_BOUND('',#339,.T.);
#376=FACE_BOUND('',#340,.T.);
#377=FACE_BOUND('',#341,.T.);
#378=FACE_BOUND('',#342,.T.);
#379=FACE_BOUND('',#343,.T.);
#380=FACE_BOUND('',#344,.T.);
#381=FACE_BOUND('',#345,.T.);
#382=FACE_BOUND('',#346,.T.);
#383=FACE_BOUND('',#347,.T.);
#384=FACE_BOUND('',#348,.T.);
#385=FACE_BOUND('',#349,.T.);
#386=FACE_BOUND('',#350,.T.);
#387=FACE_BOUND('',#351,.T.);
#388=FACE_BOUND('',#352,.T.);
#389=FACE_BOUND('',#353,.T.);
#390=FACE_BOUND('',#354,.T.);
#391=FACE_BOUND('',#355,.T.);
#392=FACE_BOUND('',#356,.T.);
#393=FACE_BOUND('',#357,.T.);
#394=FACE_BOUND('',#358,.T.);
#395=FACE_BOUND('',#359,.T.);
#396=FACE_BOUND('',#360,.T.);
#397=FACE_BOUND('',#361,.T.);
#398=FACE_BOUND('',#362,.T.);
#399=FACE_BOUND('',#363,.T.);
#400=FACE_BOUND('',#364,.T.);
#401=FACE_BOUND('',#365,.T.);
#402=FACE_BOUND('',#366,.T.);
#403=FACE_BOUND('',#367,.T.);
#404=FACE_BOUND('',#368,.T.);
#405=FACE_BOUND('',#369,.T.);
#406=PLANE('',#504);
#407=PLANE('',#505);
#408=PLANE('',#506);
#409=PLANE('',#507);
#410=PLANE('',#508);
#411=PLANE('',#509);
#412=PLANE('',#510);
#413=PLANE('',#511);
#414=PLANE('',#512);
#415=PLANE('',#513);
#416=PLANE('',#514);
#417=PLANE('',#515);
#418=PLANE('',#516);
#419=PLANE('',#518);
#420=PLANE('',#519);
#421=PLANE('',#520);
#422=PLANE('',#521);
#423=PLANE('',#522);
#424=PLANE('',#523);
#425=PLANE('',#531);
#426=PLANE('',#532);
#427=PLANE('',#540);
#428=PLANE('',#541);
#429=ADVANCED_FACE('',(#370),#406,.T.);
#430=ADVANCED_FACE('',(#371),#407,.T.);
#431=ADVANCED_FACE('',(#372),#408,.F.);
#432=ADVANCED_FACE('',(#373),#409,.F.);
#433=ADVANCED_FACE('',(#374),#410,.F.);
#434=ADVANCED_FACE('',(#375),#411,.T.);
#435=ADVANCED_FACE('',(#376),#412,.T.);
#436=ADVANCED_FACE('',(#377),#413,.T.);
#437=ADVANCED_FACE('',(#378),#414,.F.);
#438=ADVANCED_FACE('',(#379,#380),#415,.F.);
#439=ADVANCED_FACE('',(#381),#416,.T.);
#440=ADVANCED_FACE('',(#382),#417,.T.);
#441=ADVANCED_FACE('',(#383),#418,.T.);
#442=ADVANCED_FACE('Face appearance 2',(#384),#419,.F.);
#443=ADVANCED_FACE('Face appearance 2',(#385),#420,.F.);
#444=ADVANCED_FACE('Face appearance 2',(#386),#421,.F.);
#445=ADVANCED_FACE('Face appearance 2',(#387),#422,.F.);
#446=ADVANCED_FACE('Face appearance 2',(#388),#423,.T.);
#447=ADVANCED_FACE('Face appearance 2',(#389),#424,.F.);
#448=ADVANCED_FACE('',(#390,#391),#18,.F.);
#449=ADVANCED_FACE('',(#392,#393),#19,.T.);
#450=ADVANCED_FACE('',(#394,#395),#425,.T.);
#451=ADVANCED_FACE('',(#396,#397),#426,.F.);
#452=ADVANCED_FACE('',(#398,#399),#20,.F.);
#453=ADVANCED_FACE('',(#400,#401),#21,.T.);
#454=ADVANCED_FACE('',(#402,#403),#427,.T.);
#455=ADVANCED_FACE('',(#404,#405),#428,.F.);
#456=CLOSED_SHELL('',(#429,#430,#431,#432,#433,#434,#435,#436,#437,#438,
#439,#440,#441));
#457=CLOSED_SHELL('',(#442,#443,#444,#445,#446,#447));
#458=CLOSED_SHELL('',(#448,#449,#450,#451));
#459=CLOSED_SHELL('',(#452,#453,#454,#455));
#460=STYLED_ITEM('',(#464),#491);
#461=STYLED_ITEM('',(#465),#492);
#462=STYLED_ITEM('',(#466),#493);
#463=STYLED_ITEM('',(#467),#494);
#464=PRESENTATION_STYLE_ASSIGNMENT((#468));
#465=PRESENTATION_STYLE_ASSIGNMENT((#469));
#466=PRESENTATION_STYLE_ASSIGNMENT((#470));
#467=PRESENTATION_STYLE_ASSIGNMENT((#471));
#468=SURFACE_STYLE_USAGE(.BOTH.,#472);
#469=SURFACE_STYLE_USAGE(.BOTH.,#473);
#470=SURFACE_STYLE_USAGE(.BOTH.,#474);
#471=SURFACE_STYLE_USAGE(.BOTH.,#475);
#472=SURFACE_SIDE_STYLE('',(#476));
#473=SURFACE_SIDE_STYLE('',(#477));
#474=SURFACE_SIDE_STYLE('',(#478));
#475=SURFACE_SIDE_STYLE('',(#479));
#476=SURFACE_STYLE_FILL_AREA(#480);
#477=SURFACE_STYLE_FILL_AREA(#481);
#478=SURFACE_STYLE_FILL_AREA(#482);
#479=SURFACE_STYLE_FILL_AREA(#483);
#480=FILL_AREA_STYLE('',(#484));
#481=FILL_AREA_STYLE('',(#485));
#482=FILL_AREA_STYLE('',(#486));
#483=FILL_AREA_STYLE('',(#487));
#484=FILL_AREA_STYLE_COLOUR('',#488);
#485=FILL_AREA_STYLE_COLOUR('',#488);
#486=FILL_AREA_STYLE_COLOUR('',#489);
#487=FILL_AREA_STYLE_COLOUR('',#490);
#488=COLOUR_RGB('',0.972549019607843,0.529411764705882,0.00392156862745098);
#489=COLOUR_RGB('',0.980392156862745,0.713725490196078,0.00392156862745098);
#490=COLOUR_RGB('',0.615686274509804,0.811764705882353,0.929411764705882);
#491=MANIFOLD_SOLID_BREP('Part 5',#456);
#492=MANIFOLD_SOLID_BREP('Part 2',#457);
#493=MANIFOLD_SOLID_BREP('Part 3',#458);
#494=MANIFOLD_SOLID_BREP('Part 4',#459);
#495=SHAPE_DEFINITION_REPRESENTATION(#819,#499);
#496=SHAPE_DEFINITION_REPRESENTATION(#820,#500);
#497=SHAPE_DEFINITION_REPRESENTATION(#821,#501);
#498=SHAPE_DEFINITION_REPRESENTATION(#822,#502);
#499=SHAPE_REPRESENTATION('Part 5',(#503),#799);
#500=SHAPE_REPRESENTATION('Part 2',(#517),#800);
#501=SHAPE_REPRESENTATION('Part 3',(#524),#801);
#502=SHAPE_REPRESENTATION('Part 4',(#533),#802);
#503=AXIS2_PLACEMENT_3D('',#668,#542,#543);
#504=AXIS2_PLACEMENT_3D('',#669,#544,#545);
#505=AXIS2_PLACEMENT_3D('',#686,#554,#555);
#506=AXIS2_PLACEMENT_3D('',#705,#566,#567);
#507=AXIS2_PLACEMENT_3D('',#711,#571,#572);
#508=AXIS2_PLACEMENT_3D('',#720,#578,#579);
#509=AXIS2_PLACEMENT_3D('',#724,#582,#583);
#510=AXIS2_PLACEMENT_3D('',#728,#586,#587);
#511=AXIS2_PLACEMENT_3D('',#732,#590,#591);
#512=AXIS2_PLACEMENT_3D('',#734,#593,#594);
#513=AXIS2_PLACEMENT_3D('',#736,#596,#597);
#514=AXIS2_PLACEMENT_3D('',#737,#598,#599);
#515=AXIS2_PLACEMENT_3D('',#740,#602,#603);
#516=AXIS2_PLACEMENT_3D('',#741,#604,#605);
#517=AXIS2_PLACEMENT_3D('',#742,#606,#607);
#518=AXIS2_PLACEMENT_3D('',#743,#608,#609);
#519=AXIS2_PLACEMENT_3D('',#752,#614,#615);
#520=AXIS2_PLACEMENT_3D('',#758,#619,#620);
#521=AXIS2_PLACEMENT_3D('',#764,#624,#625);
#522=AXIS2_PLACEMENT_3D('',#767,#628,#629);
#523=AXIS2_PLACEMENT_3D('',#768,#630,#631);
#524=AXIS2_PLACEMENT_3D('',#769,#632,#633);
#525=AXIS2_PLACEMENT_3D('',#770,#634,#635);
#526=AXIS2_PLACEMENT_3D('',#771,#636,#637);
#527=AXIS2_PLACEMENT_3D('',#773,#638,#639);
#528=AXIS2_PLACEMENT_3D('',#775,#640,#641);
#529=AXIS2_PLACEMENT_3D('',#776,#642,#643);
#530=AXIS2_PLACEMENT_3D('',#778,#644,#645);
#531=AXIS2_PLACEMENT_3D('',#780,#646,#647);
#532=AXIS2_PLACEMENT_3D('',#781,#648,#649);
#533=AXIS2_PLACEMENT_3D('',#782,#650,#651);
#534=AXIS2_PLACEMENT_3D('',#783,#652,#653);
#535=AXIS2_PLACEMENT_3D('',#784,#654,#655);
#536=AXIS2_PLACEMENT_3D('',#786,#656,#657);
#537=AXIS2_PLACEMENT_3D('',#788,#658,#659);
#538=AXIS2_PLACEMENT_3D('',#789,#660,#661);
#539=AXIS2_PLACEMENT_3D('',#791,#662,#663);
#540=AXIS2_PLACEMENT_3D('',#793,#664,#665);
#541=AXIS2_PLACEMENT_3D('',#794,#666,#667);
#542=DIRECTION('',(0.,0.,1.));
#543=DIRECTION('',(1.,0.,0.));
#544=DIRECTION('',(0.00100126939590681,-0.999999498729673,0.));
#545=DIRECTION('',(0.999999498729673,0.00100126939590681,0.));
#546=DIRECTION('',(-0.999999498729673,-0.00100126939590681,0.));
#547=DIRECTION('',(0.,0.,1.));
#548=DIRECTION('',(-0.999999498729673,-0.00100126939590681,0.));
#549=DIRECTION('',(0.,0.,-1.));
#550=DIRECTION('',(-0.999999498729673,-0.00100126939590681,0.));
#551=DIRECTION('',(0.,0.,-1.));
#552=DIRECTION('',(-0.999999498729673,-0.00100126939590681,0.));
#553=DIRECTION('',(1.77941672610743E-14,1.78167640351757E-17,-1.));
#554=DIRECTION('',(0.,0.,1.));
#555=DIRECTION('',(1.,0.,0.));
#556=DIRECTION('',(-0.0010012693959068,0.999999498729673,0.));
#557=DIRECTION('',(-0.999999498729673,-0.0010012693959068,0.));
#558=DIRECTION('',(0.,-1.,0.));
#559=DIRECTION('',(1.,0.,0.));
#560=DIRECTION('',(0.,1.,0.));
#561=DIRECTION('',(-0.999999498729673,-0.0010012693959068,0.));
#562=DIRECTION('',(-0.0010012693959068,0.999999498729673,0.));
#563=DIRECTION('',(0.,1.,0.));
#564=DIRECTION('',(1.,0.,0.));
#565=DIRECTION('',(0.,-1.,0.));
#566=DIRECTION('',(-1.,0.,0.));
#567=DIRECTION('',(0.,0.,1.));
#568=DIRECTION('',(0.,1.,0.));
#569=DIRECTION('',(0.,0.,-1.));
#570=DIRECTION('',(0.,0.,-1.));
#571=DIRECTION('',(0.0010012693959068,-0.999999498729673,0.));
#572=DIRECTION('',(0.999999498729673,0.0010012693959068,0.));
#573=DIRECTION('',(0.,0.,-1.));
#574=DIRECTION('',(0.999999498729673,0.0010012693959068,0.));
#575=DIRECTION('',(-1.77941672610743E-14,-1.78167640351755E-17,1.));
#576=DIRECTION('',(-0.999999498729673,-0.0010012693959068,0.));
#577=DIRECTION('',(0.,0.,-1.));
#578=DIRECTION('',(1.,0.,0.));
#579=DIRECTION('',(0.,0.,-1.));
#580=DIRECTION('',(0.,-1.,0.));
#581=DIRECTION('',(0.,0.,-1.));
#582=DIRECTION('',(1.,0.,0.));
#583=DIRECTION('',(0.,0.,-1.));
#584=DIRECTION('',(0.,-1.,0.));
#585=DIRECTION('',(0.,0.,-1.));
#586=DIRECTION('',(-1.,0.,0.));
#587=DIRECTION('',(0.,0.,1.));
#588=DIRECTION('',(0.,1.,0.));
#589=DIRECTION('',(0.,0.,-1.));
#590=DIRECTION('',(0.,1.,0.));
#591=DIRECTION('',(0.,0.,1.));
#592=DIRECTION('',(1.,0.,0.));
#593=DIRECTION('',(0.,1.,0.));
#594=DIRECTION('',(0.,0.,1.));
#595=DIRECTION('',(1.,0.,0.));
#596=DIRECTION('',(0.,0.,1.));
#597=DIRECTION('',(1.,0.,0.));
#598=DIRECTION('',(0.,0.,1.));
#599=DIRECTION('',(1.,0.,0.));
#600=DIRECTION('',(-0.0010012693959068,0.999999498729673,0.));
#601=DIRECTION('',(-0.0010012693959068,0.999999498729673,0.));
#602=DIRECTION('',(0.999999498729673,0.0010012693959068,0.));
#603=DIRECTION('',(-0.0010012693959068,0.999999498729673,0.));
#604=DIRECTION('',(-0.999999498729673,-0.0010012693959068,-1.77941761807668E-14));
#605=DIRECTION('',(0.0010012693959068,-0.999999498729673,0.));
#606=DIRECTION('',(0.,0.,1.));
#607=DIRECTION('',(1.,0.,0.));
#608=DIRECTION('',(0.0010012693959068,-0.999999498729673,0.));
#609=DIRECTION('',(0.999999498729673,0.0010012693959068,0.));
#610=DIRECTION('',(-0.999999498729673,-0.0010012693959068,0.));
#611=DIRECTION('',(0.,0.,-1.));
#612=DIRECTION('',(-0.999999498729673,-0.0010012693959068,0.));
#613=DIRECTION('',(0.,0.,-1.));
#614=DIRECTION('',(1.,0.,0.));
#615=DIRECTION('',(0.,0.,-1.));
#616=DIRECTION('',(0.,-1.,0.));
#617=DIRECTION('',(0.,0.,-1.));
#618=DIRECTION('',(0.,-1.,0.));
#619=DIRECTION('',(0.,1.,0.));
#620=DIRECTION('',(0.,0.,1.));
#621=DIRECTION('',(1.,0.,0.));
#622=DIRECTION('',(0.,0.,-1.));
#623=DIRECTION('',(1.,0.,0.));
#624=DIRECTION('',(-1.,0.,0.));
#625=DIRECTION('',(0.,0.,1.));
#626=DIRECTION('',(0.,1.,0.));
#627=DIRECTION('',(0.,1.,0.));
#628=DIRECTION('',(0.,0.,1.));
#629=DIRECTION('',(1.,0.,0.));
#630=DIRECTION('',(0.,0.,1.));
#631=DIRECTION('',(1.,0.,0.));
#632=DIRECTION('',(0.,0.,1.));
#633=DIRECTION('',(1.,0.,0.));
#634=DIRECTION('',(0.,0.,-1.));
#635=DIRECTION('',(-1.,0.,0.));
#636=DIRECTION('',(0.,0.,1.));
#637=DIRECTION('',(1.,0.,0.));
#638=DIRECTION('',(0.,0.,1.));
#639=DIRECTION('',(1.,0.,0.));
#640=DIRECTION('',(0.,0.,-1.));
#641=DIRECTION('',(-1.,0.,0.));
#642=DIRECTION('',(0.,0.,1.));
#643=DIRECTION('',(1.,0.,0.));
#644=DIRECTION('',(0.,0.,1.));
#645=DIRECTION('',(1.,0.,0.));
#646=DIRECTION('',(0.,0.,1.));
#647=DIRECTION('',(1.,0.,0.));
#648=DIRECTION('',(0.,0.,1.));
#649=DIRECTION('',(1.,0.,0.));
#650=DIRECTION('',(0.,0.,1.));
#651=DIRECTION('',(1.,0.,0.));
#652=DIRECTION('',(0.,0.,-1.));
#653=DIRECTION('',(-1.,0.,0.));
#654=DIRECTION('',(0.,0.,1.));
#655=DIRECTION('',(1.,0.,0.));
#656=DIRECTION('',(0.,0.,1.));
#657=DIRECTION('',(1.,0.,0.));
#658=DIRECTION('',(0.,0.,-1.));
#659=DIRECTION('',(-1.,0.,0.));
#660=DIRECTION('',(0.,0.,1.));
#661=DIRECTION('',(1.,0.,0.));
#662=DIRECTION('',(0.,0.,1.));
#663=DIRECTION('',(1.,0.,0.));
#664=DIRECTION('',(0.,0.,1.));
#665=DIRECTION('',(1.,0.,0.));
#666=DIRECTION('',(0.,0.,1.));
#667=DIRECTION('',(1.,0.,0.));
#668=CARTESIAN_POINT('',(0.,0.,0.));
#669=CARTESIAN_POINT('',(3.46944695195361E-18,0.0342297801915544,0.007533));
#670=CARTESIAN_POINT('',(3.46944695195361E-18,0.0342297801915544,-0.00204379176352158));
#671=CARTESIAN_POINT('',(-0.0282628434451963,0.0342014814571861,-0.00204379176352158));
#672=CARTESIAN_POINT('',(-0.0475643688331014,0.0341821554208333,-0.00204379176352158));
#673=CARTESIAN_POINT('',(-0.0475643688331015,0.0341821554208333,0.007533));
#674=CARTESIAN_POINT('',(-0.0475643688331014,0.0341821554208333,0.007533));
#675=CARTESIAN_POINT('',(3.46944695195361E-18,0.0342297801915544,0.007533));
#676=CARTESIAN_POINT('',(-0.0500202331364155,0.0341796964378333,0.007533));
#677=CARTESIAN_POINT('',(-0.0500202331364155,0.0341796964378333,0.007533));
#678=CARTESIAN_POINT('',(-0.0500202331364155,0.0341796964378333,-0.006437));
#679=CARTESIAN_POINT('',(3.46944695195361E-18,0.0342297801915544,-0.006437));
#680=CARTESIAN_POINT('',(0.0500202331364155,0.0342798639452755,-0.006437));
#681=CARTESIAN_POINT('',(0.0500202331364155,0.0342798639452755,0.007533));
#682=CARTESIAN_POINT('',(0.0500202331364155,0.0342798639452755,0.007533));
#683=CARTESIAN_POINT('',(3.46944695195361E-18,0.0342297801915544,0.007533));
#684=CARTESIAN_POINT('',(-0.0282628434451965,0.0342014814571861,0.007533));
#685=CARTESIAN_POINT('',(-0.0282628434451965,0.0342014814571861,0.0075329999999995));
#686=CARTESIAN_POINT('',(-6.93889390390723E-18,2.68493281795207E-5,0.007533));
#687=CARTESIAN_POINT('',(-0.0475641685792223,0.0339821555210874,0.007533));
#688=CARTESIAN_POINT('',(-0.0475679834156207,0.0377921536112475,0.007533));
#689=CARTESIAN_POINT('',(-1.04083408558608E-17,0.0378397820011412,0.007533));
#690=CARTESIAN_POINT('',(-0.0536302331364156,0.0377860836630889,0.007533));
#691=CARTESIAN_POINT('',(-0.0536302331364155,-2.68490098727023E-5,0.007533));
#692=CARTESIAN_POINT('',(-0.0536302331364155,-0.0378397816828344,0.007533));
#693=CARTESIAN_POINT('',(6.93889390390723E-18,-0.0378397816828344,0.007533));
#694=CARTESIAN_POINT('',(0.0536302331364155,-0.0378397816828344,0.007533));
#695=CARTESIAN_POINT('',(0.0536302331364155,2.68493281795207E-5,0.007533));
#696=CARTESIAN_POINT('',(0.0536302331364155,0.0378934803391934,0.007533));
#697=CARTESIAN_POINT('',(-1.04083408558608E-17,0.0378397820011412,0.007533));
#698=CARTESIAN_POINT('',(-0.0282664580277157,0.0378114796476003,0.007533));
#699=CARTESIAN_POINT('',(-0.0282626431913172,0.0340014815574402,0.007533));
#700=CARTESIAN_POINT('',(0.0500202331364155,2.50411312205795E-5,0.007533));
#701=CARTESIAN_POINT('',(0.0500202331364155,-0.0342297816828344,0.007533));
#702=CARTESIAN_POINT('',(6.93889390390723E-18,-0.0342297816828344,0.007533));
#703=CARTESIAN_POINT('',(-0.0500202331364155,-0.0342297816828344,0.007533));
#704=CARTESIAN_POINT('',(-0.0500202331364155,-2.50426225005402E-5,0.007533));
#705=CARTESIAN_POINT('',(0.0536302331364155,2.68493281795207E-5,0.007533));
#706=CARTESIAN_POINT('',(0.0536302331364155,2.68493281795207E-5,-0.006437));
#707=CARTESIAN_POINT('',(0.0536302331364155,-0.0378397816828344,-0.006437));
#708=CARTESIAN_POINT('',(0.0536302331364155,0.0378934803391934,-0.006437));
#709=CARTESIAN_POINT('',(0.0536302331364155,0.0378934803391934,0.007533));
#710=CARTESIAN_POINT('',(0.0536302331364155,-0.0378397816828344,0.007533));
#711=CARTESIAN_POINT('',(-1.04083408558608E-17,0.0378397820011412,0.007533));
#712=CARTESIAN_POINT('',(-0.0475679834156207,0.0377921536112475,0.00254962767327332));
#713=CARTESIAN_POINT('',(-0.0475679834156207,0.0377921536112475,-0.00204379176352158));
#714=CARTESIAN_POINT('',(-0.0379172207216682,0.0378018166294239,-0.00204379176352158));
#715=CARTESIAN_POINT('',(-0.0282664580277157,0.0378114796476003,-0.00204379176352158));
#716=CARTESIAN_POINT('',(-0.0282664580277157,0.0378114796476003,0.0073380235550341));
#717=CARTESIAN_POINT('',(-1.04083408558608E-17,0.0378397820011412,-0.006437));
#718=CARTESIAN_POINT('',(-0.0536302331364156,0.0377860836630889,-0.006437));
#719=CARTESIAN_POINT('',(-0.0536302331364156,0.0377860836630889,0.007533));
#720=CARTESIAN_POINT('',(-0.0536302331364155,-2.68490098727023E-5,0.007533));
#721=CARTESIAN_POINT('',(-0.0536302331364155,-2.68490098727023E-5,-0.006437));
#722=CARTESIAN_POINT('',(-0.0536302331364155,-0.0378397816828344,-0.006437));
#723=CARTESIAN_POINT('',(-0.0536302331364155,-0.0378397816828344,0.007533));
#724=CARTESIAN_POINT('',(-0.0500202331364155,-2.50426225005402E-5,0.007533));
#725=CARTESIAN_POINT('',(-0.0500202331364155,-2.50426225005402E-5,-0.006437));
#726=CARTESIAN_POINT('',(-0.0500202331364155,-0.0342297816828344,-0.006437));
#727=CARTESIAN_POINT('',(-0.0500202331364155,-0.0342297816828344,0.007533));
#728=CARTESIAN_POINT('',(0.0500202331364155,2.50411312205795E-5,0.007533));
#729=CARTESIAN_POINT('',(0.0500202331364155,2.50411312205795E-5,-0.006437));
#730=CARTESIAN_POINT('',(0.0500202331364155,-0.0342297816828344,-0.006437));
#731=CARTESIAN_POINT('',(0.0500202331364155,-0.0342297816828344,0.007533));
#732=CARTESIAN_POINT('',(6.93889390390723E-18,-0.0342297816828344,0.007533));
#733=CARTESIAN_POINT('',(6.93889390390723E-18,-0.0342297816828344,-0.006437));
#734=CARTESIAN_POINT('',(6.93889390390723E-18,-0.0378397816828344,0.007533));
#735=CARTESIAN_POINT('',(6.93889390390723E-18,-0.0378397816828344,-0.006437));
#736=CARTESIAN_POINT('',(-6.93889390390723E-18,2.68493281795207E-5,-0.006437));
#737=CARTESIAN_POINT('',(-0.0379134058852698,0.0339918185392638,-0.00204379176352158));
#738=CARTESIAN_POINT('',(-0.0282626431913172,0.0340014815574402,-0.00204379176352158));
#739=CARTESIAN_POINT('',(-0.0475641685792223,0.0339821555210874,-0.00204379176352158));
#740=CARTESIAN_POINT('',(-0.0475641685792223,0.0339821555210874,0.00254962767327332));
#741=CARTESIAN_POINT('',(-0.0282626431913172,0.0340014815574402,0.0073380235550341));
#742=CARTESIAN_POINT('',(0.,0.,0.));
#743=CARTESIAN_POINT('',(-1.04083408558608E-17,0.0378397820011412,-0.006437));
#744=CARTESIAN_POINT('',(-1.04083408558608E-17,0.0378397820011412,-0.007937));
#745=CARTESIAN_POINT('',(0.0536302331364155,0.0378934803391934,-0.007937));
#746=CARTESIAN_POINT('',(-0.0536302331364156,0.0377860836630889,-0.007937));
#747=CARTESIAN_POINT('',(-0.0536302331364156,0.0377860836630889,-0.006437));
#748=CARTESIAN_POINT('',(-0.0536302331364156,0.0377860836630889,-0.006437));
#749=CARTESIAN_POINT('',(-1.04083408558608E-17,0.0378397820011412,-0.006437));
#750=CARTESIAN_POINT('',(0.0536302331364155,0.0378934803391934,-0.006437));
#751=CARTESIAN_POINT('',(0.0536302331364155,0.0378934803391934,-0.006437));
#752=CARTESIAN_POINT('',(-0.0536302331364155,-2.68490098727023E-5,-0.006437));
#753=CARTESIAN_POINT('',(-0.0536302331364155,-2.68490098727023E-5,-0.007937));
#754=CARTESIAN_POINT('',(-0.0536302331364155,-0.0378397816828344,-0.007937));
#755=CARTESIAN_POINT('',(-0.0536302331364155,-0.0378397816828344,-0.006437));
#756=CARTESIAN_POINT('',(-0.0536302331364155,-0.0378397816828344,-0.006437));
#757=CARTESIAN_POINT('',(-0.0536302331364155,-2.68490098727023E-5,-0.006437));
#758=CARTESIAN_POINT('',(6.93889390390723E-18,-0.0378397816828344,-0.006437));
#759=CARTESIAN_POINT('',(6.93889390390723E-18,-0.0378397816828344,-0.007937));
#760=CARTESIAN_POINT('',(0.0536302331364155,-0.0378397816828344,-0.007937));
#761=CARTESIAN_POINT('',(0.0536302331364155,-0.0378397816828344,-0.006437));
#762=CARTESIAN_POINT('',(0.0536302331364155,-0.0378397816828344,-0.006437));
#763=CARTESIAN_POINT('',(6.93889390390723E-18,-0.0378397816828344,-0.006437));
#764=CARTESIAN_POINT('',(0.0536302331364155,2.68493281795207E-5,-0.006437));
#765=CARTESIAN_POINT('',(0.0536302331364155,2.68493281795207E-5,-0.007937));
#766=CARTESIAN_POINT('',(0.0536302331364155,2.68493281795207E-5,-0.006437));
#767=CARTESIAN_POINT('',(0.,2.68493281795207E-5,-0.006437));
#768=CARTESIAN_POINT('',(0.,2.68493281795207E-5,-0.007937));
#769=CARTESIAN_POINT('',(0.,0.,0.));
#770=CARTESIAN_POINT('',(-0.0439753187980135,-0.00383627867839081,-0.000437));
#771=CARTESIAN_POINT('',(-0.0439753187980135,-0.00383627867839081,-0.000437));
#772=CARTESIAN_POINT('',(-0.0416253187980135,-0.00383627867839081,-0.000437));
#773=CARTESIAN_POINT('',(-0.0439753187980135,-0.00383627867839081,-0.006437));
#774=CARTESIAN_POINT('',(-0.0416253187980135,-0.00383627867839081,-0.006437));
#775=CARTESIAN_POINT('',(-0.0439753187980135,-0.00383627867839081,-0.000437));
#776=CARTESIAN_POINT('',(-0.0439753187980135,-0.00383627867839081,-0.000437));
#777=CARTESIAN_POINT('',(-0.0402266744196121,-0.00383627867839081,-0.000437));
#778=CARTESIAN_POINT('',(-0.0439753187980135,-0.00383627867839081,-0.006437));
#779=CARTESIAN_POINT('',(-0.0402266744196121,-0.00383627867839081,-0.006437));
#780=CARTESIAN_POINT('',(-6.93889390390723E-18,2.68493281795207E-5,-0.000437));
#781=CARTESIAN_POINT('',(-6.93889390390723E-18,2.68493281795207E-5,-0.006437));
#782=CARTESIAN_POINT('',(0.,0.,0.));
#783=CARTESIAN_POINT('',(0.0240094716205341,0.00213603255304059,-0.000437));
#784=CARTESIAN_POINT('',(0.0240094716205341,0.00213603255304059,-0.000437));
#785=CARTESIAN_POINT('',(0.0263594716205341,0.00213603255304059,-0.000437));
#786=CARTESIAN_POINT('',(0.0240094716205341,0.00213603255304059,-0.006437));
#787=CARTESIAN_POINT('',(0.0263594716205341,0.00213603255304059,-0.006437));
#788=CARTESIAN_POINT('',(0.0240094716205341,0.00213603255304059,-0.000437));
#789=CARTESIAN_POINT('',(0.0240094716205341,0.00213603255304059,-0.000437));
#790=CARTESIAN_POINT('',(0.0277559716205341,0.00213603255304059,-0.000437));
#791=CARTESIAN_POINT('',(0.0240094716205341,0.00213603255304059,-0.006437));
#792=CARTESIAN_POINT('',(0.0277559716205341,0.00213603255304059,-0.006437));
#793=CARTESIAN_POINT('',(-6.93889390390723E-18,2.68493281795207E-5,-0.000437));
#794=CARTESIAN_POINT('',(-6.93889390390723E-18,2.68493281795207E-5,-0.006437));
#795=MECHANICAL_DESIGN_GEOMETRIC_PRESENTATION_REPRESENTATION('',(#460),
#799);
#796=MECHANICAL_DESIGN_GEOMETRIC_PRESENTATION_REPRESENTATION('',(#461),
#800);
#797=MECHANICAL_DESIGN_GEOMETRIC_PRESENTATION_REPRESENTATION('',(#462),
#801);
#798=MECHANICAL_DESIGN_GEOMETRIC_PRESENTATION_REPRESENTATION('',(#463),
#802);
#799=(
GEOMETRIC_REPRESENTATION_CONTEXT(3)
GLOBAL_UNCERTAINTY_ASSIGNED_CONTEXT((#803))
GLOBAL_UNIT_ASSIGNED_CONTEXT((#815,#811,#807))
REPRESENTATION_CONTEXT('Part 5','TOP_LEVEL_ASSEMBLY_PART')
);
#800=(
GEOMETRIC_REPRESENTATION_CONTEXT(3)
GLOBAL_UNCERTAINTY_ASSIGNED_CONTEXT((#804))
GLOBAL_UNIT_ASSIGNED_CONTEXT((#816,#812,#808))
REPRESENTATION_CONTEXT('Part 2','TOP_LEVEL_ASSEMBLY_PART')
);
#801=(
GEOMETRIC_REPRESENTATION_CONTEXT(3)
GLOBAL_UNCERTAINTY_ASSIGNED_CONTEXT((#805))
GLOBAL_UNIT_ASSIGNED_CONTEXT((#817,#813,#809))
REPRESENTATION_CONTEXT('Part 3','TOP_LEVEL_ASSEMBLY_PART')
);
#802=(
GEOMETRIC_REPRESENTATION_CONTEXT(3)
GLOBAL_UNCERTAINTY_ASSIGNED_CONTEXT((#806))
GLOBAL_UNIT_ASSIGNED_CONTEXT((#818,#814,#810))
REPRESENTATION_CONTEXT('Part 4','TOP_LEVEL_ASSEMBLY_PART')
);
#803=UNCERTAINTY_MEASURE_WITH_UNIT(LENGTH_MEASURE(1.E-8),#815,
'DISTANCE_ACCURACY_VALUE','Maximum Tolerance applied to model');
#804=UNCERTAINTY_MEASURE_WITH_UNIT(LENGTH_MEASURE(1.E-8),#816,
'DISTANCE_ACCURACY_VALUE','Maximum Tolerance applied to model');
#805=UNCERTAINTY_MEASURE_WITH_UNIT(LENGTH_MEASURE(1.E-8),#817,
'DISTANCE_ACCURACY_VALUE','Maximum Tolerance applied to model');
#806=UNCERTAINTY_MEASURE_WITH_UNIT(LENGTH_MEASURE(1.E-8),#818,
'DISTANCE_ACCURACY_VALUE','Maximum Tolerance applied to model');
#807=(
NAMED_UNIT(*)
SI_UNIT($,.STERADIAN.)
SOLID_ANGLE_UNIT()
);
#808=(
NAMED_UNIT(*)
SI_UNIT($,.STERADIAN.)
SOLID_ANGLE_UNIT()
);
#809=(
NAMED_UNIT(*)
SI_UNIT($,.STERADIAN.)
SOLID_ANGLE_UNIT()
);
#810=(
NAMED_UNIT(*)
SI_UNIT($,.STERADIAN.)
SOLID_ANGLE_UNIT()
);
#811=(
NAMED_UNIT(*)
PLANE_ANGLE_UNIT()
SI_UNIT($,.RADIAN.)
);
#812=(
NAMED_UNIT(*)
PLANE_ANGLE_UNIT()
SI_UNIT($,.RADIAN.)
);
#813=(
NAMED_UNIT(*)
PLANE_ANGLE_UNIT()
SI_UNIT($,.RADIAN.)
);
#814=(
NAMED_UNIT(*)
PLANE_ANGLE_UNIT()
SI_UNIT($,.RADIAN.)
);
#815=(
LENGTH_UNIT()
NAMED_UNIT(*)
SI_UNIT($,.METRE.)
);
#816=(
LENGTH_UNIT()
NAMED_UNIT(*)
SI_UNIT($,.METRE.)
);
#817=(
LENGTH_UNIT()
NAMED_UNIT(*)
SI_UNIT($,.METRE.)
);
#818=(
LENGTH_UNIT()
NAMED_UNIT(*)
SI_UNIT($,.METRE.)
);
#819=PRODUCT_DEFINITION_SHAPE('','',#823);
#820=PRODUCT_DEFINITION_SHAPE('','',#824);
#821=PRODUCT_DEFINITION_SHAPE('','',#825);
#822=PRODUCT_DEFINITION_SHAPE('','',#826);
#823=PRODUCT_DEFINITION('','',#831,#827);
#824=PRODUCT_DEFINITION('','',#832,#828);
#825=PRODUCT_DEFINITION('','',#833,#829);
#826=PRODUCT_DEFINITION('','',#834,#830);
#827=PRODUCT_DEFINITION_CONTEXT('',#855,'design');
#828=PRODUCT_DEFINITION_CONTEXT('',#856,'design');
#829=PRODUCT_DEFINITION_CONTEXT('',#857,'design');
#830=PRODUCT_DEFINITION_CONTEXT('',#858,'design');
#831=PRODUCT_DEFINITION_FORMATION_WITH_SPECIFIED_SOURCE('','',#839,
 .NOT_KNOWN.);
#832=PRODUCT_DEFINITION_FORMATION_WITH_SPECIFIED_SOURCE('','',#840,
 .NOT_KNOWN.);
#833=PRODUCT_DEFINITION_FORMATION_WITH_SPECIFIED_SOURCE('','',#841,
 .NOT_KNOWN.);
#834=PRODUCT_DEFINITION_FORMATION_WITH_SPECIFIED_SOURCE('','',#842,
 .NOT_KNOWN.);
#835=PRODUCT_RELATED_PRODUCT_CATEGORY('','',(#839));
#836=PRODUCT_RELATED_PRODUCT_CATEGORY('','',(#840));
#837=PRODUCT_RELATED_PRODUCT_CATEGORY('','',(#841));
#838=PRODUCT_RELATED_PRODUCT_CATEGORY('','',(#842));
#839=PRODUCT('Part 5','Part 5','Part 5',(#847));
#840=PRODUCT('Part 2','Part 2','Part 2',(#848));
#841=PRODUCT('Part 3','Part 3','Part 3',(#849));
#842=PRODUCT('Part 4','Part 4','Part 4',(#850));
#843=PRODUCT_CATEGORY('','');
#844=PRODUCT_CATEGORY('','');
#845=PRODUCT_CATEGORY('','');
#846=PRODUCT_CATEGORY('','');
#847=PRODUCT_CONTEXT('',#855,'mechanical');
#848=PRODUCT_CONTEXT('',#856,'mechanical');
#849=PRODUCT_CONTEXT('',#857,'mechanical');
#850=PRODUCT_CONTEXT('',#858,'mechanical');
#851=APPLICATION_PROTOCOL_DEFINITION('international standard',
'ap242_managed_model_based_3d_engineering',2020,#855);
#852=APPLICATION_PROTOCOL_DEFINITION('international standard',
'ap242_managed_model_based_3d_engineering',2020,#856);
#853=APPLICATION_PROTOCOL_DEFINITION('international standard',
'ap242_managed_model_based_3d_engineering',2020,#857);
#854=APPLICATION_PROTOCOL_DEFINITION('international standard',
'ap242_managed_model_based_3d_engineering',2020,#858);
#855=APPLICATION_CONTEXT('managed model based 3d engineering');
#856=APPLICATION_CONTEXT('managed model based 3d engineering');
#857=APPLICATION_CONTEXT('managed model based 3d engineering');
#858=APPLICATION_CONTEXT('managed model based 3d engineering');
ENDSEC;
END-ISO-10303-21;
