ISO-10303-21;
HEADER;
/* Generated by software containing ST-Developer
 * from STEP Tools, Inc. (www.steptools.com) 
 */
/* OPTION: using custom renumber hook */

FILE_DESCRIPTION(
/* description */ ('STEP AP242 Edition 2',
'CAx-IF Rec.Pracs.---Representation and Presentation of Product Manufa
cturing Information (PMI)---4.0---2014-10-13',
'CAx-IF Rec.Pracs.---3D Tessellated Geometry---0.4---2014-09-14','2;1',
'CAx-IF Rec.Pracs.---User Defined Attributes---1.5---2016-08-15'),
/* implementation_level */ '2;1');

FILE_NAME(
/* name */ 'superugh',
/* time_stamp */ '2026-09-22T02:25:19Z',
/* author */ (''),
/* organization */ (''),
/* preprocessor_version */ 'ST-DEVELOPER v20',
/* originating_system */ 'ONSHAPE BY PTC INC, 1.221',
/* authorisation */ '  ');

FILE_SCHEMA (('AP242_MANAGED_MODEL_BASED_3D_ENGINEERING_MIM_LF { 1 0 10303 442 3 1 4 }'));
ENDSEC;

DATA;
#10=SHAPE_REPRESENTATION_RELATIONSHIP('','',#1329,#12);
#11=SHAPE_REPRESENTATION_RELATIONSHIP('','',#1330,#13);
#12=ADVANCED_BREP_SHAPE_REPRESENTATION('',(#1325),#2090);
#13=ADVANCED_BREP_SHAPE_REPRESENTATION('',(#1326),#2091);
#14=CIRCLE('',#1353,0.0477522715872791);
#15=CIRCLE('',#1354,0.0477522715872791);
#16=CYLINDRICAL_SURFACE('',#1352,0.0477522715872791);
#17=ORIENTED_EDGE('',*,*,#381,.F.);
#18=ORIENTED_EDGE('',*,*,#382,.F.);
#19=ORIENTED_EDGE('',*,*,#383,.T.);
#20=ORIENTED_EDGE('',*,*,#384,.F.);
#21=ORIENTED_EDGE('',*,*,#385,.T.);
#22=ORIENTED_EDGE('',*,*,#386,.F.);
#23=ORIENTED_EDGE('',*,*,#387,.F.);
#24=ORIENTED_EDGE('',*,*,#388,.T.);
#25=ORIENTED_EDGE('',*,*,#382,.T.);
#26=ORIENTED_EDGE('',*,*,#389,.F.);
#27=ORIENTED_EDGE('',*,*,#390,.F.);
#28=ORIENTED_EDGE('',*,*,#391,.T.);
#29=ORIENTED_EDGE('',*,*,#387,.T.);
#30=ORIENTED_EDGE('',*,*,#392,.F.);
#31=ORIENTED_EDGE('',*,*,#393,.F.);
#32=ORIENTED_EDGE('',*,*,#394,.T.);
#33=ORIENTED_EDGE('',*,*,#390,.T.);
#34=ORIENTED_EDGE('',*,*,#395,.F.);
#35=ORIENTED_EDGE('',*,*,#396,.F.);
#36=ORIENTED_EDGE('',*,*,#397,.T.);
#37=ORIENTED_EDGE('',*,*,#393,.T.);
#38=ORIENTED_EDGE('',*,*,#398,.F.);
#39=ORIENTED_EDGE('',*,*,#399,.F.);
#40=ORIENTED_EDGE('',*,*,#400,.T.);
#41=ORIENTED_EDGE('',*,*,#396,.T.);
#42=ORIENTED_EDGE('',*,*,#401,.F.);
#43=ORIENTED_EDGE('',*,*,#402,.F.);
#44=ORIENTED_EDGE('',*,*,#403,.T.);
#45=ORIENTED_EDGE('',*,*,#399,.T.);
#46=ORIENTED_EDGE('',*,*,#404,.F.);
#47=ORIENTED_EDGE('',*,*,#405,.F.);
#48=ORIENTED_EDGE('',*,*,#406,.T.);
#49=ORIENTED_EDGE('',*,*,#402,.T.);
#50=ORIENTED_EDGE('',*,*,#407,.F.);
#51=ORIENTED_EDGE('',*,*,#408,.F.);
#52=ORIENTED_EDGE('',*,*,#409,.T.);
#53=ORIENTED_EDGE('',*,*,#405,.T.);
#54=ORIENTED_EDGE('',*,*,#410,.F.);
#55=ORIENTED_EDGE('',*,*,#411,.F.);
#56=ORIENTED_EDGE('',*,*,#412,.T.);
#57=ORIENTED_EDGE('',*,*,#408,.T.);
#58=ORIENTED_EDGE('',*,*,#413,.F.);
#59=ORIENTED_EDGE('',*,*,#414,.F.);
#60=ORIENTED_EDGE('',*,*,#415,.T.);
#61=ORIENTED_EDGE('',*,*,#411,.T.);
#62=ORIENTED_EDGE('',*,*,#416,.F.);
#63=ORIENTED_EDGE('',*,*,#417,.F.);
#64=ORIENTED_EDGE('',*,*,#418,.T.);
#65=ORIENTED_EDGE('',*,*,#414,.T.);
#66=ORIENTED_EDGE('',*,*,#419,.F.);
#67=ORIENTED_EDGE('',*,*,#420,.F.);
#68=ORIENTED_EDGE('',*,*,#421,.T.);
#69=ORIENTED_EDGE('',*,*,#417,.T.);
#70=ORIENTED_EDGE('',*,*,#422,.F.);
#71=ORIENTED_EDGE('',*,*,#423,.F.);
#72=ORIENTED_EDGE('',*,*,#424,.T.);
#73=ORIENTED_EDGE('',*,*,#420,.T.);
#74=ORIENTED_EDGE('',*,*,#425,.F.);
#75=ORIENTED_EDGE('',*,*,#426,.F.);
#76=ORIENTED_EDGE('',*,*,#427,.T.);
#77=ORIENTED_EDGE('',*,*,#423,.T.);
#78=ORIENTED_EDGE('',*,*,#428,.F.);
#79=ORIENTED_EDGE('',*,*,#429,.F.);
#80=ORIENTED_EDGE('',*,*,#430,.T.);
#81=ORIENTED_EDGE('',*,*,#426,.T.);
#82=ORIENTED_EDGE('',*,*,#431,.F.);
#83=ORIENTED_EDGE('',*,*,#432,.F.);
#84=ORIENTED_EDGE('',*,*,#433,.T.);
#85=ORIENTED_EDGE('',*,*,#429,.T.);
#86=ORIENTED_EDGE('',*,*,#434,.F.);
#87=ORIENTED_EDGE('',*,*,#435,.F.);
#88=ORIENTED_EDGE('',*,*,#436,.F.);
#89=ORIENTED_EDGE('',*,*,#437,.T.);
#90=ORIENTED_EDGE('',*,*,#438,.T.);
#91=ORIENTED_EDGE('',*,*,#432,.T.);
#92=ORIENTED_EDGE('',*,*,#439,.F.);
#93=ORIENTED_EDGE('',*,*,#385,.F.);
#94=ORIENTED_EDGE('',*,*,#440,.T.);
#95=ORIENTED_EDGE('',*,*,#435,.T.);
#96=ORIENTED_EDGE('',*,*,#381,.T.);
#97=ORIENTED_EDGE('',*,*,#439,.T.);
#98=ORIENTED_EDGE('',*,*,#434,.T.);
#99=ORIENTED_EDGE('',*,*,#431,.T.);
#100=ORIENTED_EDGE('',*,*,#428,.T.);
#101=ORIENTED_EDGE('',*,*,#425,.T.);
#102=ORIENTED_EDGE('',*,*,#422,.T.);
#103=ORIENTED_EDGE('',*,*,#419,.T.);
#104=ORIENTED_EDGE('',*,*,#416,.T.);
#105=ORIENTED_EDGE('',*,*,#413,.T.);
#106=ORIENTED_EDGE('',*,*,#410,.T.);
#107=ORIENTED_EDGE('',*,*,#407,.T.);
#108=ORIENTED_EDGE('',*,*,#404,.T.);
#109=ORIENTED_EDGE('',*,*,#401,.T.);
#110=ORIENTED_EDGE('',*,*,#398,.T.);
#111=ORIENTED_EDGE('',*,*,#395,.T.);
#112=ORIENTED_EDGE('',*,*,#392,.T.);
#113=ORIENTED_EDGE('',*,*,#389,.T.);
#114=ORIENTED_EDGE('',*,*,#386,.T.);
#115=ORIENTED_EDGE('',*,*,#441,.T.);
#116=ORIENTED_EDGE('',*,*,#442,.F.);
#117=ORIENTED_EDGE('',*,*,#443,.F.);
#118=ORIENTED_EDGE('',*,*,#444,.T.);
#119=ORIENTED_EDGE('',*,*,#445,.F.);
#120=ORIENTED_EDGE('',*,*,#438,.F.);
#121=ORIENTED_EDGE('',*,*,#446,.T.);
#122=ORIENTED_EDGE('',*,*,#442,.T.);
#123=ORIENTED_EDGE('',*,*,#440,.F.);
#124=ORIENTED_EDGE('',*,*,#384,.T.);
#125=ORIENTED_EDGE('',*,*,#447,.T.);
#126=ORIENTED_EDGE('',*,*,#444,.F.);
#127=ORIENTED_EDGE('',*,*,#448,.F.);
#128=ORIENTED_EDGE('',*,*,#436,.T.);
#129=ORIENTED_EDGE('',*,*,#443,.T.);
#130=ORIENTED_EDGE('',*,*,#446,.F.);
#131=ORIENTED_EDGE('',*,*,#437,.F.);
#132=ORIENTED_EDGE('',*,*,#448,.T.);
#133=ORIENTED_EDGE('',*,*,#383,.F.);
#134=ORIENTED_EDGE('',*,*,#388,.F.);
#135=ORIENTED_EDGE('',*,*,#391,.F.);
#136=ORIENTED_EDGE('',*,*,#394,.F.);
#137=ORIENTED_EDGE('',*,*,#397,.F.);
#138=ORIENTED_EDGE('',*,*,#400,.F.);
#139=ORIENTED_EDGE('',*,*,#403,.F.);
#140=ORIENTED_EDGE('',*,*,#406,.F.);
#141=ORIENTED_EDGE('',*,*,#409,.F.);
#142=ORIENTED_EDGE('',*,*,#412,.F.);
#143=ORIENTED_EDGE('',*,*,#415,.F.);
#144=ORIENTED_EDGE('',*,*,#418,.F.);
#145=ORIENTED_EDGE('',*,*,#421,.F.);
#146=ORIENTED_EDGE('',*,*,#424,.F.);
#147=ORIENTED_EDGE('',*,*,#427,.F.);
#148=ORIENTED_EDGE('',*,*,#430,.F.);
#149=ORIENTED_EDGE('',*,*,#433,.F.);
#150=ORIENTED_EDGE('',*,*,#445,.T.);
#151=ORIENTED_EDGE('',*,*,#441,.F.);
#152=ORIENTED_EDGE('',*,*,#447,.F.);
#153=ORIENTED_EDGE('',*,*,#449,.F.);
#154=ORIENTED_EDGE('',*,*,#450,.F.);
#155=ORIENTED_EDGE('',*,*,#451,.T.);
#156=ORIENTED_EDGE('',*,*,#452,.T.);
#157=ORIENTED_EDGE('',*,*,#453,.F.);
#158=ORIENTED_EDGE('',*,*,#452,.F.);
#159=ORIENTED_EDGE('',*,*,#454,.T.);
#160=ORIENTED_EDGE('',*,*,#455,.T.);
#161=ORIENTED_EDGE('',*,*,#456,.F.);
#162=ORIENTED_EDGE('',*,*,#455,.F.);
#163=ORIENTED_EDGE('',*,*,#457,.T.);
#164=ORIENTED_EDGE('',*,*,#458,.T.);
#165=ORIENTED_EDGE('',*,*,#459,.F.);
#166=ORIENTED_EDGE('',*,*,#458,.F.);
#167=ORIENTED_EDGE('',*,*,#460,.T.);
#168=ORIENTED_EDGE('',*,*,#461,.T.);
#169=ORIENTED_EDGE('',*,*,#462,.F.);
#170=ORIENTED_EDGE('',*,*,#461,.F.);
#171=ORIENTED_EDGE('',*,*,#463,.T.);
#172=ORIENTED_EDGE('',*,*,#464,.T.);
#173=ORIENTED_EDGE('',*,*,#465,.F.);
#174=ORIENTED_EDGE('',*,*,#464,.F.);
#175=ORIENTED_EDGE('',*,*,#466,.T.);
#176=ORIENTED_EDGE('',*,*,#467,.T.);
#177=ORIENTED_EDGE('',*,*,#468,.F.);
#178=ORIENTED_EDGE('',*,*,#467,.F.);
#179=ORIENTED_EDGE('',*,*,#469,.T.);
#180=ORIENTED_EDGE('',*,*,#470,.T.);
#181=ORIENTED_EDGE('',*,*,#471,.F.);
#182=ORIENTED_EDGE('',*,*,#470,.F.);
#183=ORIENTED_EDGE('',*,*,#472,.T.);
#184=ORIENTED_EDGE('',*,*,#473,.T.);
#185=ORIENTED_EDGE('',*,*,#474,.F.);
#186=ORIENTED_EDGE('',*,*,#473,.F.);
#187=ORIENTED_EDGE('',*,*,#475,.T.);
#188=ORIENTED_EDGE('',*,*,#476,.T.);
#189=ORIENTED_EDGE('',*,*,#477,.F.);
#190=ORIENTED_EDGE('',*,*,#476,.F.);
#191=ORIENTED_EDGE('',*,*,#478,.T.);
#192=ORIENTED_EDGE('',*,*,#479,.T.);
#193=ORIENTED_EDGE('',*,*,#480,.F.);
#194=ORIENTED_EDGE('',*,*,#479,.F.);
#195=ORIENTED_EDGE('',*,*,#481,.T.);
#196=ORIENTED_EDGE('',*,*,#482,.T.);
#197=ORIENTED_EDGE('',*,*,#483,.F.);
#198=ORIENTED_EDGE('',*,*,#482,.F.);
#199=ORIENTED_EDGE('',*,*,#484,.T.);
#200=ORIENTED_EDGE('',*,*,#485,.T.);
#201=ORIENTED_EDGE('',*,*,#486,.F.);
#202=ORIENTED_EDGE('',*,*,#485,.F.);
#203=ORIENTED_EDGE('',*,*,#487,.T.);
#204=ORIENTED_EDGE('',*,*,#488,.T.);
#205=ORIENTED_EDGE('',*,*,#489,.F.);
#206=ORIENTED_EDGE('',*,*,#488,.F.);
#207=ORIENTED_EDGE('',*,*,#490,.T.);
#208=ORIENTED_EDGE('',*,*,#491,.T.);
#209=ORIENTED_EDGE('',*,*,#492,.F.);
#210=ORIENTED_EDGE('',*,*,#491,.F.);
#211=ORIENTED_EDGE('',*,*,#493,.T.);
#212=ORIENTED_EDGE('',*,*,#494,.T.);
#213=ORIENTED_EDGE('',*,*,#495,.F.);
#214=ORIENTED_EDGE('',*,*,#494,.F.);
#215=ORIENTED_EDGE('',*,*,#496,.T.);
#216=ORIENTED_EDGE('',*,*,#497,.T.);
#217=ORIENTED_EDGE('',*,*,#498,.F.);
#218=ORIENTED_EDGE('',*,*,#497,.F.);
#219=ORIENTED_EDGE('',*,*,#499,.T.);
#220=ORIENTED_EDGE('',*,*,#500,.T.);
#221=ORIENTED_EDGE('',*,*,#501,.F.);
#222=ORIENTED_EDGE('',*,*,#500,.F.);
#223=ORIENTED_EDGE('',*,*,#502,.T.);
#224=ORIENTED_EDGE('',*,*,#503,.T.);
#225=ORIENTED_EDGE('',*,*,#504,.T.);
#226=ORIENTED_EDGE('',*,*,#505,.F.);
#227=ORIENTED_EDGE('',*,*,#506,.F.);
#228=ORIENTED_EDGE('',*,*,#507,.T.);
#229=ORIENTED_EDGE('',*,*,#508,.T.);
#230=ORIENTED_EDGE('',*,*,#507,.F.);
#231=ORIENTED_EDGE('',*,*,#509,.F.);
#232=ORIENTED_EDGE('',*,*,#510,.T.);
#233=ORIENTED_EDGE('',*,*,#511,.T.);
#234=ORIENTED_EDGE('',*,*,#510,.F.);
#235=ORIENTED_EDGE('',*,*,#512,.F.);
#236=ORIENTED_EDGE('',*,*,#513,.T.);
#237=ORIENTED_EDGE('',*,*,#514,.T.);
#238=ORIENTED_EDGE('',*,*,#513,.F.);
#239=ORIENTED_EDGE('',*,*,#515,.F.);
#240=ORIENTED_EDGE('',*,*,#516,.T.);
#241=ORIENTED_EDGE('',*,*,#517,.T.);
#242=ORIENTED_EDGE('',*,*,#516,.F.);
#243=ORIENTED_EDGE('',*,*,#518,.F.);
#244=ORIENTED_EDGE('',*,*,#519,.T.);
#245=ORIENTED_EDGE('',*,*,#520,.T.);
#246=ORIENTED_EDGE('',*,*,#519,.F.);
#247=ORIENTED_EDGE('',*,*,#521,.F.);
#248=ORIENTED_EDGE('',*,*,#522,.T.);
#249=ORIENTED_EDGE('',*,*,#523,.T.);
#250=ORIENTED_EDGE('',*,*,#522,.F.);
#251=ORIENTED_EDGE('',*,*,#524,.F.);
#252=ORIENTED_EDGE('',*,*,#525,.T.);
#253=ORIENTED_EDGE('',*,*,#526,.T.);
#254=ORIENTED_EDGE('',*,*,#525,.F.);
#255=ORIENTED_EDGE('',*,*,#527,.F.);
#256=ORIENTED_EDGE('',*,*,#528,.T.);
#257=ORIENTED_EDGE('',*,*,#529,.T.);
#258=ORIENTED_EDGE('',*,*,#528,.F.);
#259=ORIENTED_EDGE('',*,*,#530,.F.);
#260=ORIENTED_EDGE('',*,*,#531,.T.);
#261=ORIENTED_EDGE('',*,*,#532,.T.);
#262=ORIENTED_EDGE('',*,*,#531,.F.);
#263=ORIENTED_EDGE('',*,*,#533,.F.);
#264=ORIENTED_EDGE('',*,*,#534,.T.);
#265=ORIENTED_EDGE('',*,*,#535,.T.);
#266=ORIENTED_EDGE('',*,*,#534,.F.);
#267=ORIENTED_EDGE('',*,*,#536,.F.);
#268=ORIENTED_EDGE('',*,*,#537,.T.);
#269=ORIENTED_EDGE('',*,*,#538,.T.);
#270=ORIENTED_EDGE('',*,*,#537,.F.);
#271=ORIENTED_EDGE('',*,*,#539,.F.);
#272=ORIENTED_EDGE('',*,*,#540,.T.);
#273=ORIENTED_EDGE('',*,*,#541,.T.);
#274=ORIENTED_EDGE('',*,*,#540,.F.);
#275=ORIENTED_EDGE('',*,*,#542,.F.);
#276=ORIENTED_EDGE('',*,*,#543,.T.);
#277=ORIENTED_EDGE('',*,*,#544,.T.);
#278=ORIENTED_EDGE('',*,*,#543,.F.);
#279=ORIENTED_EDGE('',*,*,#545,.F.);
#280=ORIENTED_EDGE('',*,*,#546,.T.);
#281=ORIENTED_EDGE('',*,*,#547,.T.);
#282=ORIENTED_EDGE('',*,*,#546,.F.);
#283=ORIENTED_EDGE('',*,*,#548,.F.);
#284=ORIENTED_EDGE('',*,*,#549,.T.);
#285=ORIENTED_EDGE('',*,*,#550,.T.);
#286=ORIENTED_EDGE('',*,*,#549,.F.);
#287=ORIENTED_EDGE('',*,*,#551,.F.);
#288=ORIENTED_EDGE('',*,*,#552,.T.);
#289=ORIENTED_EDGE('',*,*,#553,.T.);
#290=ORIENTED_EDGE('',*,*,#552,.F.);
#291=ORIENTED_EDGE('',*,*,#554,.F.);
#292=ORIENTED_EDGE('',*,*,#555,.T.);
#293=ORIENTED_EDGE('',*,*,#556,.T.);
#294=ORIENTED_EDGE('',*,*,#555,.F.);
#295=ORIENTED_EDGE('',*,*,#557,.F.);
#296=ORIENTED_EDGE('',*,*,#558,.T.);
#297=ORIENTED_EDGE('',*,*,#559,.T.);
#298=ORIENTED_EDGE('',*,*,#558,.F.);
#299=ORIENTED_EDGE('',*,*,#560,.F.);
#300=ORIENTED_EDGE('',*,*,#505,.T.);
#301=ORIENTED_EDGE('',*,*,#561,.F.);
#302=ORIENTED_EDGE('',*,*,#503,.F.);
#303=ORIENTED_EDGE('',*,*,#562,.T.);
#304=ORIENTED_EDGE('',*,*,#450,.T.);
#305=ORIENTED_EDGE('',*,*,#506,.T.);
#306=ORIENTED_EDGE('',*,*,#560,.T.);
#307=ORIENTED_EDGE('',*,*,#557,.T.);
#308=ORIENTED_EDGE('',*,*,#554,.T.);
#309=ORIENTED_EDGE('',*,*,#551,.T.);
#310=ORIENTED_EDGE('',*,*,#548,.T.);
#311=ORIENTED_EDGE('',*,*,#545,.T.);
#312=ORIENTED_EDGE('',*,*,#542,.T.);
#313=ORIENTED_EDGE('',*,*,#539,.T.);
#314=ORIENTED_EDGE('',*,*,#536,.T.);
#315=ORIENTED_EDGE('',*,*,#533,.T.);
#316=ORIENTED_EDGE('',*,*,#530,.T.);
#317=ORIENTED_EDGE('',*,*,#527,.T.);
#318=ORIENTED_EDGE('',*,*,#524,.T.);
#319=ORIENTED_EDGE('',*,*,#521,.T.);
#320=ORIENTED_EDGE('',*,*,#518,.T.);
#321=ORIENTED_EDGE('',*,*,#515,.T.);
#322=ORIENTED_EDGE('',*,*,#512,.T.);
#323=ORIENTED_EDGE('',*,*,#509,.T.);
#324=ORIENTED_EDGE('',*,*,#451,.F.);
#325=ORIENTED_EDGE('',*,*,#562,.F.);
#326=ORIENTED_EDGE('',*,*,#502,.F.);
#327=ORIENTED_EDGE('',*,*,#499,.F.);
#328=ORIENTED_EDGE('',*,*,#496,.F.);
#329=ORIENTED_EDGE('',*,*,#493,.F.);
#330=ORIENTED_EDGE('',*,*,#490,.F.);
#331=ORIENTED_EDGE('',*,*,#487,.F.);
#332=ORIENTED_EDGE('',*,*,#484,.F.);
#333=ORIENTED_EDGE('',*,*,#481,.F.);
#334=ORIENTED_EDGE('',*,*,#478,.F.);
#335=ORIENTED_EDGE('',*,*,#475,.F.);
#336=ORIENTED_EDGE('',*,*,#472,.F.);
#337=ORIENTED_EDGE('',*,*,#469,.F.);
#338=ORIENTED_EDGE('',*,*,#466,.F.);
#339=ORIENTED_EDGE('',*,*,#463,.F.);
#340=ORIENTED_EDGE('',*,*,#460,.F.);
#341=ORIENTED_EDGE('',*,*,#457,.F.);
#342=ORIENTED_EDGE('',*,*,#454,.F.);
#343=ORIENTED_EDGE('',*,*,#504,.F.);
#344=ORIENTED_EDGE('',*,*,#508,.F.);
#345=ORIENTED_EDGE('',*,*,#511,.F.);
#346=ORIENTED_EDGE('',*,*,#514,.F.);
#347=ORIENTED_EDGE('',*,*,#517,.F.);
#348=ORIENTED_EDGE('',*,*,#520,.F.);
#349=ORIENTED_EDGE('',*,*,#523,.F.);
#350=ORIENTED_EDGE('',*,*,#526,.F.);
#351=ORIENTED_EDGE('',*,*,#529,.F.);
#352=ORIENTED_EDGE('',*,*,#532,.F.);
#353=ORIENTED_EDGE('',*,*,#535,.F.);
#354=ORIENTED_EDGE('',*,*,#538,.F.);
#355=ORIENTED_EDGE('',*,*,#541,.F.);
#356=ORIENTED_EDGE('',*,*,#544,.F.);
#357=ORIENTED_EDGE('',*,*,#547,.F.);
#358=ORIENTED_EDGE('',*,*,#550,.F.);
#359=ORIENTED_EDGE('',*,*,#553,.F.);
#360=ORIENTED_EDGE('',*,*,#556,.F.);
#361=ORIENTED_EDGE('',*,*,#559,.F.);
#362=ORIENTED_EDGE('',*,*,#449,.T.);
#363=ORIENTED_EDGE('',*,*,#453,.T.);
#364=ORIENTED_EDGE('',*,*,#456,.T.);
#365=ORIENTED_EDGE('',*,*,#459,.T.);
#366=ORIENTED_EDGE('',*,*,#462,.T.);
#367=ORIENTED_EDGE('',*,*,#465,.T.);
#368=ORIENTED_EDGE('',*,*,#468,.T.);
#369=ORIENTED_EDGE('',*,*,#471,.T.);
#370=ORIENTED_EDGE('',*,*,#474,.T.);
#371=ORIENTED_EDGE('',*,*,#477,.T.);
#372=ORIENTED_EDGE('',*,*,#480,.T.);
#373=ORIENTED_EDGE('',*,*,#483,.T.);
#374=ORIENTED_EDGE('',*,*,#486,.T.);
#375=ORIENTED_EDGE('',*,*,#489,.T.);
#376=ORIENTED_EDGE('',*,*,#492,.T.);
#377=ORIENTED_EDGE('',*,*,#495,.T.);
#378=ORIENTED_EDGE('',*,*,#498,.T.);
#379=ORIENTED_EDGE('',*,*,#501,.T.);
#380=ORIENTED_EDGE('',*,*,#561,.T.);
#381=EDGE_CURVE('',#563,#564,#684,.T.);
#382=EDGE_CURVE('',#565,#563,#685,.T.);
#383=EDGE_CURVE('',#565,#566,#686,.T.);
#384=EDGE_CURVE('',#567,#566,#687,.T.);
#385=EDGE_CURVE('',#567,#564,#688,.T.);
#386=EDGE_CURVE('',#568,#563,#689,.T.);
#387=EDGE_CURVE('',#569,#568,#690,.T.);
#388=EDGE_CURVE('',#569,#565,#691,.T.);
#389=EDGE_CURVE('',#570,#568,#692,.T.);
#390=EDGE_CURVE('',#571,#570,#693,.T.);
#391=EDGE_CURVE('',#571,#569,#694,.T.);
#392=EDGE_CURVE('',#572,#570,#695,.T.);
#393=EDGE_CURVE('',#573,#572,#696,.T.);
#394=EDGE_CURVE('',#573,#571,#697,.T.);
#395=EDGE_CURVE('',#574,#572,#698,.T.);
#396=EDGE_CURVE('',#575,#574,#699,.T.);
#397=EDGE_CURVE('',#575,#573,#700,.T.);
#398=EDGE_CURVE('',#576,#574,#701,.T.);
#399=EDGE_CURVE('',#577,#576,#702,.T.);
#400=EDGE_CURVE('',#577,#575,#703,.T.);
#401=EDGE_CURVE('',#578,#576,#704,.T.);
#402=EDGE_CURVE('',#579,#578,#705,.T.);
#403=EDGE_CURVE('',#579,#577,#706,.T.);
#404=EDGE_CURVE('',#580,#578,#707,.T.);
#405=EDGE_CURVE('',#581,#580,#708,.T.);
#406=EDGE_CURVE('',#581,#579,#709,.T.);
#407=EDGE_CURVE('',#582,#580,#710,.T.);
#408=EDGE_CURVE('',#583,#582,#711,.T.);
#409=EDGE_CURVE('',#583,#581,#712,.T.);
#410=EDGE_CURVE('',#584,#582,#713,.T.);
#411=EDGE_CURVE('',#585,#584,#714,.T.);
#412=EDGE_CURVE('',#585,#583,#715,.T.);
#413=EDGE_CURVE('',#586,#584,#716,.T.);
#414=EDGE_CURVE('',#587,#586,#717,.T.);
#415=EDGE_CURVE('',#587,#585,#718,.T.);
#416=EDGE_CURVE('',#588,#586,#719,.T.);
#417=EDGE_CURVE('',#589,#588,#720,.T.);
#418=EDGE_CURVE('',#589,#587,#721,.T.);
#419=EDGE_CURVE('',#590,#588,#722,.T.);
#420=EDGE_CURVE('',#591,#590,#723,.T.);
#421=EDGE_CURVE('',#591,#589,#724,.T.);
#422=EDGE_CURVE('',#592,#590,#725,.T.);
#423=EDGE_CURVE('',#593,#592,#726,.T.);
#424=EDGE_CURVE('',#593,#591,#727,.T.);
#425=EDGE_CURVE('',#594,#592,#728,.T.);
#426=EDGE_CURVE('',#595,#594,#729,.T.);
#427=EDGE_CURVE('',#595,#593,#730,.T.);
#428=EDGE_CURVE('',#596,#594,#731,.T.);
#429=EDGE_CURVE('',#597,#596,#732,.T.);
#430=EDGE_CURVE('',#597,#595,#733,.T.);
#431=EDGE_CURVE('',#598,#596,#734,.T.);
#432=EDGE_CURVE('',#599,#598,#735,.T.);
#433=EDGE_CURVE('',#599,#597,#736,.T.);
#434=EDGE_CURVE('',#600,#598,#737,.T.);
#435=EDGE_CURVE('',#601,#600,#738,.T.);
#436=EDGE_CURVE('',#602,#601,#739,.T.);
#437=EDGE_CURVE('',#602,#603,#740,.T.);
#438=EDGE_CURVE('',#603,#599,#741,.T.);
#439=EDGE_CURVE('',#564,#600,#742,.T.);
#440=EDGE_CURVE('',#567,#601,#743,.T.);
#441=EDGE_CURVE('',#604,#605,#14,.T.);
#442=EDGE_CURVE('',#606,#605,#744,.T.);
#443=EDGE_CURVE('',#607,#606,#15,.T.);
#444=EDGE_CURVE('',#607,#604,#745,.T.);
#445=EDGE_CURVE('',#599,#605,#746,.T.);
#446=EDGE_CURVE('',#603,#606,#747,.T.);
#447=EDGE_CURVE('',#566,#604,#748,.T.);
#448=EDGE_CURVE('',#602,#607,#749,.T.);
#449=EDGE_CURVE('',#608,#609,#750,.T.);
#450=EDGE_CURVE('',#610,#608,#751,.T.);
#451=EDGE_CURVE('',#610,#611,#752,.T.);
#452=EDGE_CURVE('',#611,#609,#753,.T.);
#453=EDGE_CURVE('',#609,#612,#754,.T.);
#454=EDGE_CURVE('',#611,#613,#755,.T.);
#455=EDGE_CURVE('',#613,#612,#756,.T.);
#456=EDGE_CURVE('',#612,#614,#757,.T.);
#457=EDGE_CURVE('',#613,#615,#758,.T.);
#458=EDGE_CURVE('',#615,#614,#759,.T.);
#459=EDGE_CURVE('',#614,#616,#760,.T.);
#460=EDGE_CURVE('',#615,#617,#761,.T.);
#461=EDGE_CURVE('',#617,#616,#762,.T.);
#462=EDGE_CURVE('',#616,#618,#763,.T.);
#463=EDGE_CURVE('',#617,#619,#764,.T.);
#464=EDGE_CURVE('',#619,#618,#765,.T.);
#465=EDGE_CURVE('',#618,#620,#766,.T.);
#466=EDGE_CURVE('',#619,#621,#767,.T.);
#467=EDGE_CURVE('',#621,#620,#768,.T.);
#468=EDGE_CURVE('',#620,#622,#769,.T.);
#469=EDGE_CURVE('',#621,#623,#770,.T.);
#470=EDGE_CURVE('',#623,#622,#771,.T.);
#471=EDGE_CURVE('',#622,#624,#772,.T.);
#472=EDGE_CURVE('',#623,#625,#773,.T.);
#473=EDGE_CURVE('',#625,#624,#774,.T.);
#474=EDGE_CURVE('',#624,#626,#775,.T.);
#475=EDGE_CURVE('',#625,#627,#776,.T.);
#476=EDGE_CURVE('',#627,#626,#777,.T.);
#477=EDGE_CURVE('',#626,#628,#778,.T.);
#478=EDGE_CURVE('',#627,#629,#779,.T.);
#479=EDGE_CURVE('',#629,#628,#780,.T.);
#480=EDGE_CURVE('',#628,#630,#781,.T.);
#481=EDGE_CURVE('',#629,#631,#782,.T.);
#482=EDGE_CURVE('',#631,#630,#783,.T.);
#483=EDGE_CURVE('',#630,#632,#784,.T.);
#484=EDGE_CURVE('',#631,#633,#785,.T.);
#485=EDGE_CURVE('',#633,#632,#786,.T.);
#486=EDGE_CURVE('',#632,#634,#787,.T.);
#487=EDGE_CURVE('',#633,#635,#788,.T.);
#488=EDGE_CURVE('',#635,#634,#789,.T.);
#489=EDGE_CURVE('',#634,#636,#790,.T.);
#490=EDGE_CURVE('',#635,#637,#791,.T.);
#491=EDGE_CURVE('',#637,#636,#792,.T.);
#492=EDGE_CURVE('',#636,#638,#793,.T.);
#493=EDGE_CURVE('',#637,#639,#794,.T.);
#494=EDGE_CURVE('',#639,#638,#795,.T.);
#495=EDGE_CURVE('',#638,#640,#796,.T.);
#496=EDGE_CURVE('',#639,#641,#797,.T.);
#497=EDGE_CURVE('',#641,#640,#798,.T.);
#498=EDGE_CURVE('',#640,#642,#799,.T.);
#499=EDGE_CURVE('',#641,#643,#800,.T.);
#500=EDGE_CURVE('',#643,#642,#801,.T.);
#501=EDGE_CURVE('',#642,#644,#802,.T.);
#502=EDGE_CURVE('',#643,#645,#803,.T.);
#503=EDGE_CURVE('',#645,#644,#804,.T.);
#504=EDGE_CURVE('',#646,#647,#805,.T.);
#505=EDGE_CURVE('',#648,#647,#806,.T.);
#506=EDGE_CURVE('',#649,#648,#807,.T.);
#507=EDGE_CURVE('',#649,#646,#808,.T.);
#508=EDGE_CURVE('',#650,#646,#809,.T.);
#509=EDGE_CURVE('',#651,#649,#810,.T.);
#510=EDGE_CURVE('',#651,#650,#811,.T.);
#511=EDGE_CURVE('',#652,#650,#812,.T.);
#512=EDGE_CURVE('',#653,#651,#813,.T.);
#513=EDGE_CURVE('',#653,#652,#814,.T.);
#514=EDGE_CURVE('',#654,#652,#815,.T.);
#515=EDGE_CURVE('',#655,#653,#816,.T.);
#516=EDGE_CURVE('',#655,#654,#817,.T.);
#517=EDGE_CURVE('',#656,#654,#818,.T.);
#518=EDGE_CURVE('',#657,#655,#819,.T.);
#519=EDGE_CURVE('',#657,#656,#820,.T.);
#520=EDGE_CURVE('',#658,#656,#821,.T.);
#521=EDGE_CURVE('',#659,#657,#822,.T.);
#522=EDGE_CURVE('',#659,#658,#823,.T.);
#523=EDGE_CURVE('',#660,#658,#824,.T.);
#524=EDGE_CURVE('',#661,#659,#825,.T.);
#525=EDGE_CURVE('',#661,#660,#826,.T.);
#526=EDGE_CURVE('',#662,#660,#827,.T.);
#527=EDGE_CURVE('',#663,#661,#828,.T.);
#528=EDGE_CURVE('',#663,#662,#829,.T.);
#529=EDGE_CURVE('',#664,#662,#830,.T.);
#530=EDGE_CURVE('',#665,#663,#831,.T.);
#531=EDGE_CURVE('',#665,#664,#832,.T.);
#532=EDGE_CURVE('',#666,#664,#833,.T.);
#533=EDGE_CURVE('',#667,#665,#834,.T.);
#534=EDGE_CURVE('',#667,#666,#835,.T.);
#535=EDGE_CURVE('',#668,#666,#836,.T.);
#536=EDGE_CURVE('',#669,#667,#837,.T.);
#537=EDGE_CURVE('',#669,#668,#838,.T.);
#538=EDGE_CURVE('',#670,#668,#839,.T.);
#539=EDGE_CURVE('',#671,#669,#840,.T.);
#540=EDGE_CURVE('',#671,#670,#841,.T.);
#541=EDGE_CURVE('',#672,#670,#842,.T.);
#542=EDGE_CURVE('',#673,#671,#843,.T.);
#543=EDGE_CURVE('',#673,#672,#844,.T.);
#544=EDGE_CURVE('',#674,#672,#845,.T.);
#545=EDGE_CURVE('',#675,#673,#846,.T.);
#546=EDGE_CURVE('',#675,#674,#847,.T.);
#547=EDGE_CURVE('',#676,#674,#848,.T.);
#548=EDGE_CURVE('',#677,#675,#849,.T.);
#549=EDGE_CURVE('',#677,#676,#850,.T.);
#550=EDGE_CURVE('',#678,#676,#851,.T.);
#551=EDGE_CURVE('',#679,#677,#852,.T.);
#552=EDGE_CURVE('',#679,#678,#853,.T.);
#553=EDGE_CURVE('',#680,#678,#854,.T.);
#554=EDGE_CURVE('',#681,#679,#855,.T.);
#555=EDGE_CURVE('',#681,#680,#856,.T.);
#556=EDGE_CURVE('',#682,#680,#857,.T.);
#557=EDGE_CURVE('',#683,#681,#858,.T.);
#558=EDGE_CURVE('',#683,#682,#859,.T.);
#559=EDGE_CURVE('',#647,#682,#860,.T.);
#560=EDGE_CURVE('',#648,#683,#861,.T.);
#561=EDGE_CURVE('',#644,#608,#862,.T.);
#562=EDGE_CURVE('',#645,#610,#863,.T.);
#563=VERTEX_POINT('',#1721);
#564=VERTEX_POINT('',#1722);
#565=VERTEX_POINT('',#1724);
#566=VERTEX_POINT('',#1726);
#567=VERTEX_POINT('',#1728);
#568=VERTEX_POINT('',#1732);
#569=VERTEX_POINT('',#1734);
#570=VERTEX_POINT('',#1738);
#571=VERTEX_POINT('',#1740);
#572=VERTEX_POINT('',#1744);
#573=VERTEX_POINT('',#1746);
#574=VERTEX_POINT('',#1750);
#575=VERTEX_POINT('',#1752);
#576=VERTEX_POINT('',#1756);
#577=VERTEX_POINT('',#1758);
#578=VERTEX_POINT('',#1762);
#579=VERTEX_POINT('',#1764);
#580=VERTEX_POINT('',#1768);
#581=VERTEX_POINT('',#1770);
#582=VERTEX_POINT('',#1774);
#583=VERTEX_POINT('',#1776);
#584=VERTEX_POINT('',#1780);
#585=VERTEX_POINT('',#1782);
#586=VERTEX_POINT('',#1786);
#587=VERTEX_POINT('',#1788);
#588=VERTEX_POINT('',#1792);
#589=VERTEX_POINT('',#1794);
#590=VERTEX_POINT('',#1798);
#591=VERTEX_POINT('',#1800);
#592=VERTEX_POINT('',#1804);
#593=VERTEX_POINT('',#1806);
#594=VERTEX_POINT('',#1810);
#595=VERTEX_POINT('',#1812);
#596=VERTEX_POINT('',#1816);
#597=VERTEX_POINT('',#1818);
#598=VERTEX_POINT('',#1822);
#599=VERTEX_POINT('',#1824);
#600=VERTEX_POINT('',#1828);
#601=VERTEX_POINT('',#1830);
#602=VERTEX_POINT('',#1832);
#603=VERTEX_POINT('',#1834);
#604=VERTEX_POINT('',#1842);
#605=VERTEX_POINT('',#1843);
#606=VERTEX_POINT('',#1845);
#607=VERTEX_POINT('',#1847);
#608=VERTEX_POINT('',#1860);
#609=VERTEX_POINT('',#1861);
#610=VERTEX_POINT('',#1863);
#611=VERTEX_POINT('',#1865);
#612=VERTEX_POINT('',#1869);
#613=VERTEX_POINT('',#1871);
#614=VERTEX_POINT('',#1875);
#615=VERTEX_POINT('',#1877);
#616=VERTEX_POINT('',#1881);
#617=VERTEX_POINT('',#1883);
#618=VERTEX_POINT('',#1887);
#619=VERTEX_POINT('',#1889);
#620=VERTEX_POINT('',#1893);
#621=VERTEX_POINT('',#1895);
#622=VERTEX_POINT('',#1899);
#623=VERTEX_POINT('',#1901);
#624=VERTEX_POINT('',#1905);
#625=VERTEX_POINT('',#1907);
#626=VERTEX_POINT('',#1911);
#627=VERTEX_POINT('',#1913);
#628=VERTEX_POINT('',#1917);
#629=VERTEX_POINT('',#1919);
#630=VERTEX_POINT('',#1923);
#631=VERTEX_POINT('',#1925);
#632=VERTEX_POINT('',#1929);
#633=VERTEX_POINT('',#1931);
#634=VERTEX_POINT('',#1935);
#635=VERTEX_POINT('',#1937);
#636=VERTEX_POINT('',#1941);
#637=VERTEX_POINT('',#1943);
#638=VERTEX_POINT('',#1947);
#639=VERTEX_POINT('',#1949);
#640=VERTEX_POINT('',#1953);
#641=VERTEX_POINT('',#1955);
#642=VERTEX_POINT('',#1959);
#643=VERTEX_POINT('',#1961);
#644=VERTEX_POINT('',#1965);
#645=VERTEX_POINT('',#1967);
#646=VERTEX_POINT('',#1971);
#647=VERTEX_POINT('',#1972);
#648=VERTEX_POINT('',#1974);
#649=VERTEX_POINT('',#1976);
#650=VERTEX_POINT('',#1980);
#651=VERTEX_POINT('',#1982);
#652=VERTEX_POINT('',#1986);
#653=VERTEX_POINT('',#1988);
#654=VERTEX_POINT('',#1992);
#655=VERTEX_POINT('',#1994);
#656=VERTEX_POINT('',#1998);
#657=VERTEX_POINT('',#2000);
#658=VERTEX_POINT('',#2004);
#659=VERTEX_POINT('',#2006);
#660=VERTEX_POINT('',#2010);
#661=VERTEX_POINT('',#2012);
#662=VERTEX_POINT('',#2016);
#663=VERTEX_POINT('',#2018);
#664=VERTEX_POINT('',#2022);
#665=VERTEX_POINT('',#2024);
#666=VERTEX_POINT('',#2028);
#667=VERTEX_POINT('',#2030);
#668=VERTEX_POINT('',#2034);
#669=VERTEX_POINT('',#2036);
#670=VERTEX_POINT('',#2040);
#671=VERTEX_POINT('',#2042);
#672=VERTEX_POINT('',#2046);
#673=VERTEX_POINT('',#2048);
#674=VERTEX_POINT('',#2052);
#675=VERTEX_POINT('',#2054);
#676=VERTEX_POINT('',#2058);
#677=VERTEX_POINT('',#2060);
#678=VERTEX_POINT('',#2064);
#679=VERTEX_POINT('',#2066);
#680=VERTEX_POINT('',#2070);
#681=VERTEX_POINT('',#2072);
#682=VERTEX_POINT('',#2076);
#683=VERTEX_POINT('',#2078);
#684=LINE('',#1720,#864);
#685=LINE('',#1723,#865);
#686=LINE('',#1725,#866);
#687=LINE('',#1727,#867);
#688=LINE('',#1729,#868);
#689=LINE('',#1731,#869);
#690=LINE('',#1733,#870);
#691=LINE('',#1735,#871);
#692=LINE('',#1737,#872);
#693=LINE('',#1739,#873);
#694=LINE('',#1741,#874);
#695=LINE('',#1743,#875);
#696=LINE('',#1745,#876);
#697=LINE('',#1747,#877);
#698=LINE('',#1749,#878);
#699=LINE('',#1751,#879);
#700=LINE('',#1753,#880);
#701=LINE('',#1755,#881);
#702=LINE('',#1757,#882);
#703=LINE('',#1759,#883);
#704=LINE('',#1761,#884);
#705=LINE('',#1763,#885);
#706=LINE('',#1765,#886);
#707=LINE('',#1767,#887);
#708=LINE('',#1769,#888);
#709=LINE('',#1771,#889);
#710=LINE('',#1773,#890);
#711=LINE('',#1775,#891);
#712=LINE('',#1777,#892);
#713=LINE('',#1779,#893);
#714=LINE('',#1781,#894);
#715=LINE('',#1783,#895);
#716=LINE('',#1785,#896);
#717=LINE('',#1787,#897);
#718=LINE('',#1789,#898);
#719=LINE('',#1791,#899);
#720=LINE('',#1793,#900);
#721=LINE('',#1795,#901);
#722=LINE('',#1797,#902);
#723=LINE('',#1799,#903);
#724=LINE('',#1801,#904);
#725=LINE('',#1803,#905);
#726=LINE('',#1805,#906);
#727=LINE('',#1807,#907);
#728=LINE('',#1809,#908);
#729=LINE('',#1811,#909);
#730=LINE('',#1813,#910);
#731=LINE('',#1815,#911);
#732=LINE('',#1817,#912);
#733=LINE('',#1819,#913);
#734=LINE('',#1821,#914);
#735=LINE('',#1823,#915);
#736=LINE('',#1825,#916);
#737=LINE('',#1827,#917);
#738=LINE('',#1829,#918);
#739=LINE('',#1831,#919);
#740=LINE('',#1833,#920);
#741=LINE('',#1835,#921);
#742=LINE('',#1837,#922);
#743=LINE('',#1838,#923);
#744=LINE('',#1844,#924);
#745=LINE('',#1848,#925);
#746=LINE('',#1850,#926);
#747=LINE('',#1851,#927);
#748=LINE('',#1853,#928);
#749=LINE('',#1854,#929);
#750=LINE('',#1859,#930);
#751=LINE('',#1862,#931);
#752=LINE('',#1864,#932);
#753=LINE('',#1866,#933);
#754=LINE('',#1868,#934);
#755=LINE('',#1870,#935);
#756=LINE('',#1872,#936);
#757=LINE('',#1874,#937);
#758=LINE('',#1876,#938);
#759=LINE('',#1878,#939);
#760=LINE('',#1880,#940);
#761=LINE('',#1882,#941);
#762=LINE('',#1884,#942);
#763=LINE('',#1886,#943);
#764=LINE('',#1888,#944);
#765=LINE('',#1890,#945);
#766=LINE('',#1892,#946);
#767=LINE('',#1894,#947);
#768=LINE('',#1896,#948);
#769=LINE('',#1898,#949);
#770=LINE('',#1900,#950);
#771=LINE('',#1902,#951);
#772=LINE('',#1904,#952);
#773=LINE('',#1906,#953);
#774=LINE('',#1908,#954);
#775=LINE('',#1910,#955);
#776=LINE('',#1912,#956);
#777=LINE('',#1914,#957);
#778=LINE('',#1916,#958);
#779=LINE('',#1918,#959);
#780=LINE('',#1920,#960);
#781=LINE('',#1922,#961);
#782=LINE('',#1924,#962);
#783=LINE('',#1926,#963);
#784=LINE('',#1928,#964);
#785=LINE('',#1930,#965);
#786=LINE('',#1932,#966);
#787=LINE('',#1934,#967);
#788=LINE('',#1936,#968);
#789=LINE('',#1938,#969);
#790=LINE('',#1940,#970);
#791=LINE('',#1942,#971);
#792=LINE('',#1944,#972);
#793=LINE('',#1946,#973);
#794=LINE('',#1948,#974);
#795=LINE('',#1950,#975);
#796=LINE('',#1952,#976);
#797=LINE('',#1954,#977);
#798=LINE('',#1956,#978);
#799=LINE('',#1958,#979);
#800=LINE('',#1960,#980);
#801=LINE('',#1962,#981);
#802=LINE('',#1964,#982);
#803=LINE('',#1966,#983);
#804=LINE('',#1968,#984);
#805=LINE('',#1970,#985);
#806=LINE('',#1973,#986);
#807=LINE('',#1975,#987);
#808=LINE('',#1977,#988);
#809=LINE('',#1979,#989);
#810=LINE('',#1981,#990);
#811=LINE('',#1983,#991);
#812=LINE('',#1985,#992);
#813=LINE('',#1987,#993);
#814=LINE('',#1989,#994);
#815=LINE('',#1991,#995);
#816=LINE('',#1993,#996);
#817=LINE('',#1995,#997);
#818=LINE('',#1997,#998);
#819=LINE('',#1999,#999);
#820=LINE('',#2001,#1000);
#821=LINE('',#2003,#1001);
#822=LINE('',#2005,#1002);
#823=LINE('',#2007,#1003);
#824=LINE('',#2009,#1004);
#825=LINE('',#2011,#1005);
#826=LINE('',#2013,#1006);
#827=LINE('',#2015,#1007);
#828=LINE('',#2017,#1008);
#829=LINE('',#2019,#1009);
#830=LINE('',#2021,#1010);
#831=LINE('',#2023,#1011);
#832=LINE('',#2025,#1012);
#833=LINE('',#2027,#1013);
#834=LINE('',#2029,#1014);
#835=LINE('',#2031,#1015);
#836=LINE('',#2033,#1016);
#837=LINE('',#2035,#1017);
#838=LINE('',#2037,#1018);
#839=LINE('',#2039,#1019);
#840=LINE('',#2041,#1020);
#841=LINE('',#2043,#1021);
#842=LINE('',#2045,#1022);
#843=LINE('',#2047,#1023);
#844=LINE('',#2049,#1024);
#845=LINE('',#2051,#1025);
#846=LINE('',#2053,#1026);
#847=LINE('',#2055,#1027);
#848=LINE('',#2057,#1028);
#849=LINE('',#2059,#1029);
#850=LINE('',#2061,#1030);
#851=LINE('',#2063,#1031);
#852=LINE('',#2065,#1032);
#853=LINE('',#2067,#1033);
#854=LINE('',#2069,#1034);
#855=LINE('',#2071,#1035);
#856=LINE('',#2073,#1036);
#857=LINE('',#2075,#1037);
#858=LINE('',#2077,#1038);
#859=LINE('',#2079,#1039);
#860=LINE('',#2081,#1040);
#861=LINE('',#2082,#1041);
#862=LINE('',#2084,#1042);
#863=LINE('',#2085,#1043);
#864=VECTOR('',#1404,1.);
#865=VECTOR('',#1405,1.);
#866=VECTOR('',#1406,1.);
#867=VECTOR('',#1407,1.);
#868=VECTOR('',#1408,1.);
#869=VECTOR('',#1411,1.);
#870=VECTOR('',#1412,1.);
#871=VECTOR('',#1413,1.);
#872=VECTOR('',#1416,1.);
#873=VECTOR('',#1417,1.);
#874=VECTOR('',#1418,1.);
#875=VECTOR('',#1421,1.);
#876=VECTOR('',#1422,1.);
#877=VECTOR('',#1423,1.);
#878=VECTOR('',#1426,1.);
#879=VECTOR('',#1427,1.);
#880=VECTOR('',#1428,1.);
#881=VECTOR('',#1431,1.);
#882=VECTOR('',#1432,1.);
#883=VECTOR('',#1433,1.);
#884=VECTOR('',#1436,1.);
#885=VECTOR('',#1437,1.);
#886=VECTOR('',#1438,1.);
#887=VECTOR('',#1441,1.);
#888=VECTOR('',#1442,1.);
#889=VECTOR('',#1443,1.);
#890=VECTOR('',#1446,1.);
#891=VECTOR('',#1447,1.);
#892=VECTOR('',#1448,1.);
#893=VECTOR('',#1451,1.);
#894=VECTOR('',#1452,1.);
#895=VECTOR('',#1453,1.);
#896=VECTOR('',#1456,1.);
#897=VECTOR('',#1457,1.);
#898=VECTOR('',#1458,1.);
#899=VECTOR('',#1461,1.);
#900=VECTOR('',#1462,1.);
#901=VECTOR('',#1463,1.);
#902=VECTOR('',#1466,1.);
#903=VECTOR('',#1467,1.);
#904=VECTOR('',#1468,1.);
#905=VECTOR('',#1471,1.);
#906=VECTOR('',#1472,1.);
#907=VECTOR('',#1473,1.);
#908=VECTOR('',#1476,1.);
#909=VECTOR('',#1477,1.);
#910=VECTOR('',#1478,1.);
#911=VECTOR('',#1481,1.);
#912=VECTOR('',#1482,1.);
#913=VECTOR('',#1483,1.);
#914=VECTOR('',#1486,1.);
#915=VECTOR('',#1487,1.);
#916=VECTOR('',#1488,1.);
#917=VECTOR('',#1491,1.);
#918=VECTOR('',#1492,1.);
#919=VECTOR('',#1493,1.);
#920=VECTOR('',#1494,1.);
#921=VECTOR('',#1495,1.);
#922=VECTOR('',#1498,1.);
#923=VECTOR('',#1499,1.);
#924=VECTOR('',#1506,1.);
#925=VECTOR('',#1509,1.);
#926=VECTOR('',#1512,1.);
#927=VECTOR('',#1513,1.);
#928=VECTOR('',#1516,1.);
#929=VECTOR('',#1517,1.);
#930=VECTOR('',#1526,1.);
#931=VECTOR('',#1527,1.);
#932=VECTOR('',#1528,1.);
#933=VECTOR('',#1529,1.);
#934=VECTOR('',#1532,1.);
#935=VECTOR('',#1533,1.);
#936=VECTOR('',#1534,1.);
#937=VECTOR('',#1537,1.);
#938=VECTOR('',#1538,1.);
#939=VECTOR('',#1539,1.);
#940=VECTOR('',#1542,1.);
#941=VECTOR('',#1543,1.);
#942=VECTOR('',#1544,1.);
#943=VECTOR('',#1547,1.);
#944=VECTOR('',#1548,1.);
#945=VECTOR('',#1549,1.);
#946=VECTOR('',#1552,1.);
#947=VECTOR('',#1553,1.);
#948=VECTOR('',#1554,1.);
#949=VECTOR('',#1557,1.);
#950=VECTOR('',#1558,1.);
#951=VECTOR('',#1559,1.);
#952=VECTOR('',#1562,1.);
#953=VECTOR('',#1563,1.);
#954=VECTOR('',#1564,1.);
#955=VECTOR('',#1567,1.);
#956=VECTOR('',#1568,1.);
#957=VECTOR('',#1569,1.);
#958=VECTOR('',#1572,1.);
#959=VECTOR('',#1573,1.);
#960=VECTOR('',#1574,1.);
#961=VECTOR('',#1577,1.);
#962=VECTOR('',#1578,1.);
#963=VECTOR('',#1579,1.);
#964=VECTOR('',#1582,1.);
#965=VECTOR('',#1583,1.);
#966=VECTOR('',#1584,1.);
#967=VECTOR('',#1587,1.);
#968=VECTOR('',#1588,1.);
#969=VECTOR('',#1589,1.);
#970=VECTOR('',#1592,1.);
#971=VECTOR('',#1593,1.);
#972=VECTOR('',#1594,1.);
#973=VECTOR('',#1597,1.);
#974=VECTOR('',#1598,1.);
#975=VECTOR('',#1599,1.);
#976=VECTOR('',#1602,1.);
#977=VECTOR('',#1603,1.);
#978=VECTOR('',#1604,1.);
#979=VECTOR('',#1607,1.);
#980=VECTOR('',#1608,1.);
#981=VECTOR('',#1609,1.);
#982=VECTOR('',#1612,1.);
#983=VECTOR('',#1613,1.);
#984=VECTOR('',#1614,1.);
#985=VECTOR('',#1617,1.);
#986=VECTOR('',#1618,1.);
#987=VECTOR('',#1619,1.);
#988=VECTOR('',#1620,1.);
#989=VECTOR('',#1623,1.);
#990=VECTOR('',#1624,1.);
#991=VECTOR('',#1625,1.);
#992=VECTOR('',#1628,1.);
#993=VECTOR('',#1629,1.);
#994=VECTOR('',#1630,1.);
#995=VECTOR('',#1633,1.);
#996=VECTOR('',#1634,1.);
#997=VECTOR('',#1635,1.);
#998=VECTOR('',#1638,1.);
#999=VECTOR('',#1639,1.);
#1000=VECTOR('',#1640,1.);
#1001=VECTOR('',#1643,1.);
#1002=VECTOR('',#1644,1.);
#1003=VECTOR('',#1645,1.);
#1004=VECTOR('',#1648,1.);
#1005=VECTOR('',#1649,1.);
#1006=VECTOR('',#1650,1.);
#1007=VECTOR('',#1653,1.);
#1008=VECTOR('',#1654,1.);
#1009=VECTOR('',#1655,1.);
#1010=VECTOR('',#1658,1.);
#1011=VECTOR('',#1659,1.);
#1012=VECTOR('',#1660,1.);
#1013=VECTOR('',#1663,1.);
#1014=VECTOR('',#1664,1.);
#1015=VECTOR('',#1665,1.);
#1016=VECTOR('',#1668,1.);
#1017=VECTOR('',#1669,1.);
#1018=VECTOR('',#1670,1.);
#1019=VECTOR('',#1673,1.);
#1020=VECTOR('',#1674,1.);
#1021=VECTOR('',#1675,1.);
#1022=VECTOR('',#1678,1.);
#1023=VECTOR('',#1679,1.);
#1024=VECTOR('',#1680,1.);
#1025=VECTOR('',#1683,1.);
#1026=VECTOR('',#1684,1.);
#1027=VECTOR('',#1685,1.);
#1028=VECTOR('',#1688,1.);
#1029=VECTOR('',#1689,1.);
#1030=VECTOR('',#1690,1.);
#1031=VECTOR('',#1693,1.);
#1032=VECTOR('',#1694,1.);
#1033=VECTOR('',#1695,1.);
#1034=VECTOR('',#1698,1.);
#1035=VECTOR('',#1699,1.);
#1036=VECTOR('',#1700,1.);
#1037=VECTOR('',#1703,1.);
#1038=VECTOR('',#1704,1.);
#1039=VECTOR('',#1705,1.);
#1040=VECTOR('',#1708,1.);
#1041=VECTOR('',#1709,1.);
#1042=VECTOR('',#1712,1.);
#1043=VECTOR('',#1713,1.);
#1044=EDGE_LOOP('',(#17,#18,#19,#20,#21));
#1045=EDGE_LOOP('',(#22,#23,#24,#25));
#1046=EDGE_LOOP('',(#26,#27,#28,#29));
#1047=EDGE_LOOP('',(#30,#31,#32,#33));
#1048=EDGE_LOOP('',(#34,#35,#36,#37));
#1049=EDGE_LOOP('',(#38,#39,#40,#41));
#1050=EDGE_LOOP('',(#42,#43,#44,#45));
#1051=EDGE_LOOP('',(#46,#47,#48,#49));
#1052=EDGE_LOOP('',(#50,#51,#52,#53));
#1053=EDGE_LOOP('',(#54,#55,#56,#57));
#1054=EDGE_LOOP('',(#58,#59,#60,#61));
#1055=EDGE_LOOP('',(#62,#63,#64,#65));
#1056=EDGE_LOOP('',(#66,#67,#68,#69));
#1057=EDGE_LOOP('',(#70,#71,#72,#73));
#1058=EDGE_LOOP('',(#74,#75,#76,#77));
#1059=EDGE_LOOP('',(#78,#79,#80,#81));
#1060=EDGE_LOOP('',(#82,#83,#84,#85));
#1061=EDGE_LOOP('',(#86,#87,#88,#89,#90,#91));
#1062=EDGE_LOOP('',(#92,#93,#94,#95));
#1063=EDGE_LOOP('',(#96,#97,#98,#99,#100,#101,#102,#103,#104,#105,#106,
#107,#108,#109,#110,#111,#112,#113,#114));
#1064=EDGE_LOOP('',(#115,#116,#117,#118));
#1065=EDGE_LOOP('',(#119,#120,#121,#122));
#1066=EDGE_LOOP('',(#123,#124,#125,#126,#127,#128));
#1067=EDGE_LOOP('',(#129,#130,#131,#132));
#1068=EDGE_LOOP('',(#133,#134,#135,#136,#137,#138,#139,#140,#141,#142,#143,
#144,#145,#146,#147,#148,#149,#150,#151,#152));
#1069=EDGE_LOOP('',(#153,#154,#155,#156));
#1070=EDGE_LOOP('',(#157,#158,#159,#160));
#1071=EDGE_LOOP('',(#161,#162,#163,#164));
#1072=EDGE_LOOP('',(#165,#166,#167,#168));
#1073=EDGE_LOOP('',(#169,#170,#171,#172));
#1074=EDGE_LOOP('',(#173,#174,#175,#176));
#1075=EDGE_LOOP('',(#177,#178,#179,#180));
#1076=EDGE_LOOP('',(#181,#182,#183,#184));
#1077=EDGE_LOOP('',(#185,#186,#187,#188));
#1078=EDGE_LOOP('',(#189,#190,#191,#192));
#1079=EDGE_LOOP('',(#193,#194,#195,#196));
#1080=EDGE_LOOP('',(#197,#198,#199,#200));
#1081=EDGE_LOOP('',(#201,#202,#203,#204));
#1082=EDGE_LOOP('',(#205,#206,#207,#208));
#1083=EDGE_LOOP('',(#209,#210,#211,#212));
#1084=EDGE_LOOP('',(#213,#214,#215,#216));
#1085=EDGE_LOOP('',(#217,#218,#219,#220));
#1086=EDGE_LOOP('',(#221,#222,#223,#224));
#1087=EDGE_LOOP('',(#225,#226,#227,#228));
#1088=EDGE_LOOP('',(#229,#230,#231,#232));
#1089=EDGE_LOOP('',(#233,#234,#235,#236));
#1090=EDGE_LOOP('',(#237,#238,#239,#240));
#1091=EDGE_LOOP('',(#241,#242,#243,#244));
#1092=EDGE_LOOP('',(#245,#246,#247,#248));
#1093=EDGE_LOOP('',(#249,#250,#251,#252));
#1094=EDGE_LOOP('',(#253,#254,#255,#256));
#1095=EDGE_LOOP('',(#257,#258,#259,#260));
#1096=EDGE_LOOP('',(#261,#262,#263,#264));
#1097=EDGE_LOOP('',(#265,#266,#267,#268));
#1098=EDGE_LOOP('',(#269,#270,#271,#272));
#1099=EDGE_LOOP('',(#273,#274,#275,#276));
#1100=EDGE_LOOP('',(#277,#278,#279,#280));
#1101=EDGE_LOOP('',(#281,#282,#283,#284));
#1102=EDGE_LOOP('',(#285,#286,#287,#288));
#1103=EDGE_LOOP('',(#289,#290,#291,#292));
#1104=EDGE_LOOP('',(#293,#294,#295,#296));
#1105=EDGE_LOOP('',(#297,#298,#299,#300));
#1106=EDGE_LOOP('',(#301,#302,#303,#304));
#1107=EDGE_LOOP('',(#305,#306,#307,#308,#309,#310,#311,#312,#313,#314,#315,
#316,#317,#318,#319,#320,#321,#322,#323));
#1108=EDGE_LOOP('',(#324,#325,#326,#327,#328,#329,#330,#331,#332,#333,#334,
#335,#336,#337,#338,#339,#340,#341,#342));
#1109=EDGE_LOOP('',(#343,#344,#345,#346,#347,#348,#349,#350,#351,#352,#353,
#354,#355,#356,#357,#358,#359,#360,#361));
#1110=EDGE_LOOP('',(#362,#363,#364,#365,#366,#367,#368,#369,#370,#371,#372,
#373,#374,#375,#376,#377,#378,#379,#380));
#1111=FACE_BOUND('',#1044,.T.);
#1112=FACE_BOUND('',#1045,.T.);
#1113=FACE_BOUND('',#1046,.T.);
#1114=FACE_BOUND('',#1047,.T.);
#1115=FACE_BOUND('',#1048,.T.);
#1116=FACE_BOUND('',#1049,.T.);
#1117=FACE_BOUND('',#1050,.T.);
#1118=FACE_BOUND('',#1051,.T.);
#1119=FACE_BOUND('',#1052,.T.);
#1120=FACE_BOUND('',#1053,.T.);
#1121=FACE_BOUND('',#1054,.T.);
#1122=FACE_BOUND('',#1055,.T.);
#1123=FACE_BOUND('',#1056,.T.);
#1124=FACE_BOUND('',#1057,.T.);
#1125=FACE_BOUND('',#1058,.T.);
#1126=FACE_BOUND('',#1059,.T.);
#1127=FACE_BOUND('',#1060,.T.);
#1128=FACE_BOUND('',#1061,.T.);
#1129=FACE_BOUND('',#1062,.T.);
#1130=FACE_BOUND('',#1063,.T.);
#1131=FACE_BOUND('',#1064,.T.);
#1132=FACE_BOUND('',#1065,.T.);
#1133=FACE_BOUND('',#1066,.T.);
#1134=FACE_BOUND('',#1067,.T.);
#1135=FACE_BOUND('',#1068,.T.);
#1136=FACE_BOUND('',#1069,.T.);
#1137=FACE_BOUND('',#1070,.T.);
#1138=FACE_BOUND('',#1071,.T.);
#1139=FACE_BOUND('',#1072,.T.);
#1140=FACE_BOUND('',#1073,.T.);
#1141=FACE_BOUND('',#1074,.T.);
#1142=FACE_BOUND('',#1075,.T.);
#1143=FACE_BOUND('',#1076,.T.);
#1144=FACE_BOUND('',#1077,.T.);
#1145=FACE_BOUND('',#1078,.T.);
#1146=FACE_BOUND('',#1079,.T.);
#1147=FACE_BOUND('',#1080,.T.);
#1148=FACE_BOUND('',#1081,.T.);
#1149=FACE_BOUND('',#1082,.T.);
#1150=FACE_BOUND('',#1083,.T.);
#1151=FACE_BOUND('',#1084,.T.);
#1152=FACE_BOUND('',#1085,.T.);
#1153=FACE_BOUND('',#1086,.T.);
#1154=FACE_BOUND('',#1087,.T.);
#1155=FACE_BOUND('',#1088,.T.);
#1156=FACE_BOUND('',#1089,.T.);
#1157=FACE_BOUND('',#1090,.T.);
#1158=FACE_BOUND('',#1091,.T.);
#1159=FACE_BOUND('',#1092,.T.);
#1160=FACE_BOUND('',#1093,.T.);
#1161=FACE_BOUND('',#1094,.T.);
#1162=FACE_BOUND('',#1095,.T.);
#1163=FACE_BOUND('',#1096,.T.);
#1164=FACE_BOUND('',#1097,.T.);
#1165=FACE_BOUND('',#1098,.T.);
#1166=FACE_BOUND('',#1099,.T.);
#1167=FACE_BOUND('',#1100,.T.);
#1168=FACE_BOUND('',#1101,.T.);
#1169=FACE_BOUND('',#1102,.T.);
#1170=FACE_BOUND('',#1103,.T.);
#1171=FACE_BOUND('',#1104,.T.);
#1172=FACE_BOUND('',#1105,.T.);
#1173=FACE_BOUND('',#1106,.T.);
#1174=FACE_BOUND('',#1107,.T.);
#1175=FACE_BOUND('',#1108,.T.);
#1176=FACE_BOUND('',#1109,.T.);
#1177=FACE_BOUND('',#1110,.T.);
#1178=PLANE('',#1332);
#1179=PLANE('',#1333);
#1180=PLANE('',#1334);
#1181=PLANE('',#1335);
#1182=PLANE('',#1336);
#1183=PLANE('',#1337);
#1184=PLANE('',#1338);
#1185=PLANE('',#1339);
#1186=PLANE('',#1340);
#1187=PLANE('',#1341);
#1188=PLANE('',#1342);
#1189=PLANE('',#1343);
#1190=PLANE('',#1344);
#1191=PLANE('',#1345);
#1192=PLANE('',#1346);
#1193=PLANE('',#1347);
#1194=PLANE('',#1348);
#1195=PLANE('',#1349);
#1196=PLANE('',#1350);
#1197=PLANE('',#1351);
#1198=PLANE('',#1355);
#1199=PLANE('',#1356);
#1200=PLANE('',#1357);
#1201=PLANE('',#1358);
#1202=PLANE('',#1360);
#1203=PLANE('',#1361);
#1204=PLANE('',#1362);
#1205=PLANE('',#1363);
#1206=PLANE('',#1364);
#1207=PLANE('',#1365);
#1208=PLANE('',#1366);
#1209=PLANE('',#1367);
#1210=PLANE('',#1368);
#1211=PLANE('',#1369);
#1212=PLANE('',#1370);
#1213=PLANE('',#1371);
#1214=PLANE('',#1372);
#1215=PLANE('',#1373);
#1216=PLANE('',#1374);
#1217=PLANE('',#1375);
#1218=PLANE('',#1376);
#1219=PLANE('',#1377);
#1220=PLANE('',#1378);
#1221=PLANE('',#1379);
#1222=PLANE('',#1380);
#1223=PLANE('',#1381);
#1224=PLANE('',#1382);
#1225=PLANE('',#1383);
#1226=PLANE('',#1384);
#1227=PLANE('',#1385);
#1228=PLANE('',#1386);
#1229=PLANE('',#1387);
#1230=PLANE('',#1388);
#1231=PLANE('',#1389);
#1232=PLANE('',#1390);
#1233=PLANE('',#1391);
#1234=PLANE('',#1392);
#1235=PLANE('',#1393);
#1236=PLANE('',#1394);
#1237=PLANE('',#1395);
#1238=PLANE('',#1396);
#1239=PLANE('',#1397);
#1240=PLANE('',#1398);
#1241=PLANE('',#1399);
#1242=ADVANCED_FACE('',(#1111),#1178,.T.);
#1243=ADVANCED_FACE('',(#1112),#1179,.T.);
#1244=ADVANCED_FACE('',(#1113),#1180,.T.);
#1245=ADVANCED_FACE('',(#1114),#1181,.T.);
#1246=ADVANCED_FACE('',(#1115),#1182,.T.);
#1247=ADVANCED_FACE('',(#1116),#1183,.T.);
#1248=ADVANCED_FACE('',(#1117),#1184,.T.);
#1249=ADVANCED_FACE('',(#1118),#1185,.T.);
#1250=ADVANCED_FACE('',(#1119),#1186,.T.);
#1251=ADVANCED_FACE('',(#1120),#1187,.T.);
#1252=ADVANCED_FACE('',(#1121),#1188,.T.);
#1253=ADVANCED_FACE('',(#1122),#1189,.T.);
#1254=ADVANCED_FACE('',(#1123),#1190,.T.);
#1255=ADVANCED_FACE('',(#1124),#1191,.T.);
#1256=ADVANCED_FACE('',(#1125),#1192,.T.);
#1257=ADVANCED_FACE('',(#1126),#1193,.T.);
#1258=ADVANCED_FACE('',(#1127),#1194,.T.);
#1259=ADVANCED_FACE('',(#1128),#1195,.T.);
#1260=ADVANCED_FACE('',(#1129),#1196,.T.);
#1261=ADVANCED_FACE('',(#1130),#1197,.F.);
#1262=ADVANCED_FACE('',(#1131),#16,.T.);
#1263=ADVANCED_FACE('',(#1132),#1198,.T.);
#1264=ADVANCED_FACE('',(#1133),#1199,.F.);
#1265=ADVANCED_FACE('',(#1134),#1200,.T.);
#1266=ADVANCED_FACE('',(#1135),#1201,.F.);
#1267=ADVANCED_FACE('',(#1136),#1202,.T.);
#1268=ADVANCED_FACE('',(#1137),#1203,.T.);
#1269=ADVANCED_FACE('',(#1138),#1204,.T.);
#1270=ADVANCED_FACE('',(#1139),#1205,.T.);
#1271=ADVANCED_FACE('',(#1140),#1206,.T.);
#1272=ADVANCED_FACE('',(#1141),#1207,.T.);
#1273=ADVANCED_FACE('',(#1142),#1208,.T.);
#1274=ADVANCED_FACE('',(#1143),#1209,.T.);
#1275=ADVANCED_FACE('',(#1144),#1210,.T.);
#1276=ADVANCED_FACE('',(#1145),#1211,.T.);
#1277=ADVANCED_FACE('',(#1146),#1212,.T.);
#1278=ADVANCED_FACE('',(#1147),#1213,.T.);
#1279=ADVANCED_FACE('',(#1148),#1214,.T.);
#1280=ADVANCED_FACE('',(#1149),#1215,.T.);
#1281=ADVANCED_FACE('',(#1150),#1216,.T.);
#1282=ADVANCED_FACE('',(#1151),#1217,.T.);
#1283=ADVANCED_FACE('',(#1152),#1218,.T.);
#1284=ADVANCED_FACE('',(#1153),#1219,.T.);
#1285=ADVANCED_FACE('',(#1154),#1220,.F.);
#1286=ADVANCED_FACE('',(#1155),#1221,.F.);
#1287=ADVANCED_FACE('',(#1156),#1222,.F.);
#1288=ADVANCED_FACE('',(#1157),#1223,.F.);
#1289=ADVANCED_FACE('',(#1158),#1224,.F.);
#1290=ADVANCED_FACE('',(#1159),#1225,.F.);
#1291=ADVANCED_FACE('',(#1160),#1226,.F.);
#1292=ADVANCED_FACE('',(#1161),#1227,.F.);
#1293=ADVANCED_FACE('',(#1162),#1228,.F.);
#1294=ADVANCED_FACE('',(#1163),#1229,.F.);
#1295=ADVANCED_FACE('',(#1164),#1230,.F.);
#1296=ADVANCED_FACE('',(#1165),#1231,.F.);
#1297=ADVANCED_FACE('',(#1166),#1232,.F.);
#1298=ADVANCED_FACE('',(#1167),#1233,.F.);
#1299=ADVANCED_FACE('',(#1168),#1234,.F.);
#1300=ADVANCED_FACE('',(#1169),#1235,.F.);
#1301=ADVANCED_FACE('',(#1170),#1236,.F.);
#1302=ADVANCED_FACE('',(#1171),#1237,.F.);
#1303=ADVANCED_FACE('',(#1172),#1238,.F.);
#1304=ADVANCED_FACE('',(#1173),#1239,.T.);
#1305=ADVANCED_FACE('',(#1174,#1175),#1240,.F.);
#1306=ADVANCED_FACE('',(#1176,#1177),#1241,.T.);
#1307=CLOSED_SHELL('',(#1242,#1243,#1244,#1245,#1246,#1247,#1248,#1249,
#1250,#1251,#1252,#1253,#1254,#1255,#1256,#1257,#1258,#1259,#1260,#1261,
#1262,#1263,#1264,#1265,#1266));
#1308=CLOSED_SHELL('',(#1267,#1268,#1269,#1270,#1271,#1272,#1273,#1274,
#1275,#1276,#1277,#1278,#1279,#1280,#1281,#1282,#1283,#1284,#1285,#1286,
#1287,#1288,#1289,#1290,#1291,#1292,#1293,#1294,#1295,#1296,#1297,#1298,
#1299,#1300,#1301,#1302,#1303,#1304,#1305,#1306));
#1309=STYLED_ITEM('',(#1311),#1325);
#1310=STYLED_ITEM('',(#1312),#1326);
#1311=PRESENTATION_STYLE_ASSIGNMENT((#1313));
#1312=PRESENTATION_STYLE_ASSIGNMENT((#1314));
#1313=SURFACE_STYLE_USAGE(.BOTH.,#1315);
#1314=SURFACE_STYLE_USAGE(.BOTH.,#1316);
#1315=SURFACE_SIDE_STYLE('',(#1317));
#1316=SURFACE_SIDE_STYLE('',(#1318));
#1317=SURFACE_STYLE_FILL_AREA(#1319);
#1318=SURFACE_STYLE_FILL_AREA(#1320);
#1319=FILL_AREA_STYLE('',(#1321));
#1320=FILL_AREA_STYLE('',(#1322));
#1321=FILL_AREA_STYLE_COLOUR('',#1323);
#1322=FILL_AREA_STYLE_COLOUR('',#1324);
#1323=COLOUR_RGB('',0.768627450980392,0.886274509803922,0.952941176470588);
#1324=COLOUR_RGB('',0.917647058823529,0.917647058823529,0.917647058823529);
#1325=MANIFOLD_SOLID_BREP('Part 8',#1307);
#1326=MANIFOLD_SOLID_BREP('Part 7',#1308);
#1327=SHAPE_DEFINITION_REPRESENTATION(#2100,#1329);
#1328=SHAPE_DEFINITION_REPRESENTATION(#2101,#1330);
#1329=SHAPE_REPRESENTATION('Part 8',(#1331),#2090);
#1330=SHAPE_REPRESENTATION('Part 7',(#1359),#2091);
#1331=AXIS2_PLACEMENT_3D('',#1718,#1400,#1401);
#1332=AXIS2_PLACEMENT_3D('',#1719,#1402,#1403);
#1333=AXIS2_PLACEMENT_3D('',#1730,#1409,#1410);
#1334=AXIS2_PLACEMENT_3D('',#1736,#1414,#1415);
#1335=AXIS2_PLACEMENT_3D('',#1742,#1419,#1420);
#1336=AXIS2_PLACEMENT_3D('',#1748,#1424,#1425);
#1337=AXIS2_PLACEMENT_3D('',#1754,#1429,#1430);
#1338=AXIS2_PLACEMENT_3D('',#1760,#1434,#1435);
#1339=AXIS2_PLACEMENT_3D('',#1766,#1439,#1440);
#1340=AXIS2_PLACEMENT_3D('',#1772,#1444,#1445);
#1341=AXIS2_PLACEMENT_3D('',#1778,#1449,#1450);
#1342=AXIS2_PLACEMENT_3D('',#1784,#1454,#1455);
#1343=AXIS2_PLACEMENT_3D('',#1790,#1459,#1460);
#1344=AXIS2_PLACEMENT_3D('',#1796,#1464,#1465);
#1345=AXIS2_PLACEMENT_3D('',#1802,#1469,#1470);
#1346=AXIS2_PLACEMENT_3D('',#1808,#1474,#1475);
#1347=AXIS2_PLACEMENT_3D('',#1814,#1479,#1480);
#1348=AXIS2_PLACEMENT_3D('',#1820,#1484,#1485);
#1349=AXIS2_PLACEMENT_3D('',#1826,#1489,#1490);
#1350=AXIS2_PLACEMENT_3D('',#1836,#1496,#1497);
#1351=AXIS2_PLACEMENT_3D('',#1839,#1500,#1501);
#1352=AXIS2_PLACEMENT_3D('',#1840,#1502,#1503);
#1353=AXIS2_PLACEMENT_3D('',#1841,#1504,#1505);
#1354=AXIS2_PLACEMENT_3D('',#1846,#1507,#1508);
#1355=AXIS2_PLACEMENT_3D('',#1849,#1510,#1511);
#1356=AXIS2_PLACEMENT_3D('',#1852,#1514,#1515);
#1357=AXIS2_PLACEMENT_3D('',#1855,#1518,#1519);
#1358=AXIS2_PLACEMENT_3D('',#1856,#1520,#1521);
#1359=AXIS2_PLACEMENT_3D('',#1857,#1522,#1523);
#1360=AXIS2_PLACEMENT_3D('',#1858,#1524,#1525);
#1361=AXIS2_PLACEMENT_3D('',#1867,#1530,#1531);
#1362=AXIS2_PLACEMENT_3D('',#1873,#1535,#1536);
#1363=AXIS2_PLACEMENT_3D('',#1879,#1540,#1541);
#1364=AXIS2_PLACEMENT_3D('',#1885,#1545,#1546);
#1365=AXIS2_PLACEMENT_3D('',#1891,#1550,#1551);
#1366=AXIS2_PLACEMENT_3D('',#1897,#1555,#1556);
#1367=AXIS2_PLACEMENT_3D('',#1903,#1560,#1561);
#1368=AXIS2_PLACEMENT_3D('',#1909,#1565,#1566);
#1369=AXIS2_PLACEMENT_3D('',#1915,#1570,#1571);
#1370=AXIS2_PLACEMENT_3D('',#1921,#1575,#1576);
#1371=AXIS2_PLACEMENT_3D('',#1927,#1580,#1581);
#1372=AXIS2_PLACEMENT_3D('',#1933,#1585,#1586);
#1373=AXIS2_PLACEMENT_3D('',#1939,#1590,#1591);
#1374=AXIS2_PLACEMENT_3D('',#1945,#1595,#1596);
#1375=AXIS2_PLACEMENT_3D('',#1951,#1600,#1601);
#1376=AXIS2_PLACEMENT_3D('',#1957,#1605,#1606);
#1377=AXIS2_PLACEMENT_3D('',#1963,#1610,#1611);
#1378=AXIS2_PLACEMENT_3D('',#1969,#1615,#1616);
#1379=AXIS2_PLACEMENT_3D('',#1978,#1621,#1622);
#1380=AXIS2_PLACEMENT_3D('',#1984,#1626,#1627);
#1381=AXIS2_PLACEMENT_3D('',#1990,#1631,#1632);
#1382=AXIS2_PLACEMENT_3D('',#1996,#1636,#1637);
#1383=AXIS2_PLACEMENT_3D('',#2002,#1641,#1642);
#1384=AXIS2_PLACEMENT_3D('',#2008,#1646,#1647);
#1385=AXIS2_PLACEMENT_3D('',#2014,#1651,#1652);
#1386=AXIS2_PLACEMENT_3D('',#2020,#1656,#1657);
#1387=AXIS2_PLACEMENT_3D('',#2026,#1661,#1662);
#1388=AXIS2_PLACEMENT_3D('',#2032,#1666,#1667);
#1389=AXIS2_PLACEMENT_3D('',#2038,#1671,#1672);
#1390=AXIS2_PLACEMENT_3D('',#2044,#1676,#1677);
#1391=AXIS2_PLACEMENT_3D('',#2050,#1681,#1682);
#1392=AXIS2_PLACEMENT_3D('',#2056,#1686,#1687);
#1393=AXIS2_PLACEMENT_3D('',#2062,#1691,#1692);
#1394=AXIS2_PLACEMENT_3D('',#2068,#1696,#1697);
#1395=AXIS2_PLACEMENT_3D('',#2074,#1701,#1702);
#1396=AXIS2_PLACEMENT_3D('',#2080,#1706,#1707);
#1397=AXIS2_PLACEMENT_3D('',#2083,#1710,#1711);
#1398=AXIS2_PLACEMENT_3D('',#2086,#1714,#1715);
#1399=AXIS2_PLACEMENT_3D('',#2087,#1716,#1717);
#1400=DIRECTION('',(0.,0.,1.));
#1401=DIRECTION('',(1.,0.,0.));
#1402=DIRECTION('',(-0.967757792558088,-0.251882621359825,0.));
#1403=DIRECTION('',(0.251882621359825,-0.967757792558088,0.));
#1404=DIRECTION('',(-0.251882621359825,0.967757792558088,0.));
#1405=DIRECTION('',(0.,0.,-1.));
#1406=DIRECTION('',(-0.251882621359825,0.967757792558088,0.));
#1407=DIRECTION('',(0.0960214542311075,-0.995379264565695,0.));
#1408=DIRECTION('',(0.,0.,-1.));
#1409=DIRECTION('',(-0.910913543668604,-0.41259728060314,0.));
#1410=DIRECTION('',(0.41259728060314,-0.910913543668604,0.));
#1411=DIRECTION('',(-0.41259728060314,0.910913543668604,0.));
#1412=DIRECTION('',(0.,0.,-1.));
#1413=DIRECTION('',(-0.41259728060314,0.910913543668604,0.));
#1414=DIRECTION('',(0.,-1.,0.));
#1415=DIRECTION('',(0.,0.,-1.));
#1416=DIRECTION('',(-1.,0.,0.));
#1417=DIRECTION('',(0.,0.,-1.));
#1418=DIRECTION('',(-1.,0.,0.));
#1419=DIRECTION('',(0.899477597687429,-0.436966876614751,0.));
#1420=DIRECTION('',(0.436966876614751,0.899477597687429,0.));
#1421=DIRECTION('',(-0.436966876614751,-0.899477597687429,0.));
#1422=DIRECTION('',(0.,0.,-1.));
#1423=DIRECTION('',(-0.436966876614751,-0.899477597687429,0.));
#1424=DIRECTION('',(0.967283563545367,-0.25369766986509,0.));
#1425=DIRECTION('',(0.25369766986509,0.967283563545367,0.));
#1426=DIRECTION('',(-0.25369766986509,-0.967283563545367,0.));
#1427=DIRECTION('',(0.,0.,-1.));
#1428=DIRECTION('',(-0.25369766986509,-0.967283563545367,0.));
#1429=DIRECTION('',(0.997161176718281,-0.0752966642409477,0.));
#1430=DIRECTION('',(0.0752966642409477,0.997161176718281,0.));
#1431=DIRECTION('',(-0.0752966642409477,-0.997161176718281,0.));
#1432=DIRECTION('',(0.,0.,-1.));
#1433=DIRECTION('',(-0.0752966642409477,-0.997161176718281,0.));
#1434=DIRECTION('',(0.992561992761598,0.12174025844036,0.));
#1435=DIRECTION('',(-0.12174025844036,0.992561992761598,0.));
#1436=DIRECTION('',(0.12174025844036,-0.992561992761598,0.));
#1437=DIRECTION('',(0.,0.,-1.));
#1438=DIRECTION('',(0.12174025844036,-0.992561992761598,0.));
#1439=DIRECTION('',(0.92330945616876,0.384056829322626,0.));
#1440=DIRECTION('',(-0.384056829322626,0.92330945616876,0.));
#1441=DIRECTION('',(0.384056829322626,-0.92330945616876,0.));
#1442=DIRECTION('',(0.,0.,-1.));
#1443=DIRECTION('',(0.384056829322626,-0.92330945616876,0.));
#1444=DIRECTION('',(0.788895001306288,0.614528011496589,0.));
#1445=DIRECTION('',(-0.614528011496589,0.788895001306288,0.));
#1446=DIRECTION('',(0.614528011496589,-0.788895001306288,0.));
#1447=DIRECTION('',(0.,0.,-1.));
#1448=DIRECTION('',(0.614528011496589,-0.788895001306288,0.));
#1449=DIRECTION('',(0.608816892904074,0.793310778267023,0.));
#1450=DIRECTION('',(-0.793310778267023,0.608816892904074,0.));
#1451=DIRECTION('',(0.793310778267023,-0.608816892904074,0.));
#1452=DIRECTION('',(0.,0.,-1.));
#1453=DIRECTION('',(0.793310778267023,-0.608816892904074,0.));
#1454=DIRECTION('',(0.383559353987133,0.92351622723641,0.));
#1455=DIRECTION('',(-0.92351622723641,0.383559353987133,0.));
#1456=DIRECTION('',(0.92351622723641,-0.383559353987133,0.));
#1457=DIRECTION('',(0.,0.,-1.));
#1458=DIRECTION('',(0.92351622723641,-0.383559353987133,0.));
#1459=DIRECTION('',(0.1191443470626,0.992876943313232,0.));
#1460=DIRECTION('',(-0.992876943313232,0.1191443470626,0.));
#1461=DIRECTION('',(0.992876943313232,-0.1191443470626,0.));
#1462=DIRECTION('',(0.,0.,-1.));
#1463=DIRECTION('',(0.992876943313232,-0.1191443470626,0.));
#1464=DIRECTION('',(-0.127732310987844,0.991808679499078,0.));
#1465=DIRECTION('',(-0.991808679499078,-0.127732310987844,0.));
#1466=DIRECTION('',(0.991808679499078,0.127732310987844,0.));
#1467=DIRECTION('',(0.,0.,-1.));
#1468=DIRECTION('',(0.991808679499078,0.127732310987844,0.));
#1469=DIRECTION('',(-0.378773303838494,0.925489483624353,0.));
#1470=DIRECTION('',(-0.925489483624353,-0.378773303838494,0.));
#1471=DIRECTION('',(0.925489483624353,0.378773303838494,0.));
#1472=DIRECTION('',(0.,0.,-1.));
#1473=DIRECTION('',(0.925489483624353,0.378773303838494,0.));
#1474=DIRECTION('',(-0.633432047422846,0.773798320816026,0.));
#1475=DIRECTION('',(-0.773798320816026,-0.633432047422846,0.));
#1476=DIRECTION('',(0.773798320816026,0.633432047422846,0.));
#1477=DIRECTION('',(0.,0.,-1.));
#1478=DIRECTION('',(0.773798320816026,0.633432047422846,0.));
#1479=DIRECTION('',(-0.800473191083508,0.599368559699777,0.));
#1480=DIRECTION('',(-0.599368559699777,-0.800473191083508,0.));
#1481=DIRECTION('',(0.599368559699777,0.800473191083508,0.));
#1482=DIRECTION('',(0.,0.,-1.));
#1483=DIRECTION('',(0.599368559699777,0.800473191083508,0.));
#1484=DIRECTION('',(-0.921796383713428,0.387674382662624,0.));
#1485=DIRECTION('',(-0.387674382662624,-0.921796383713428,0.));
#1486=DIRECTION('',(0.387674382662624,0.921796383713428,0.));
#1487=DIRECTION('',(0.,0.,-1.));
#1488=DIRECTION('',(0.387674382662624,0.921796383713428,0.));
#1489=DIRECTION('',(-0.99080403922328,0.135304677889688,0.));
#1490=DIRECTION('',(-0.135304677889688,-0.990804039223281,0.));
#1491=DIRECTION('',(0.135304677889688,0.99080403922328,0.));
#1492=DIRECTION('',(0.,0.,-1.));
#1493=DIRECTION('',(0.,0.,-1.));
#1494=DIRECTION('',(0.135304677889688,0.99080403922328,0.));
#1495=DIRECTION('',(0.,0.,-1.));
#1496=DIRECTION('',(-0.995974486488509,-0.0896371701023112,0.));
#1497=DIRECTION('',(0.0896371701023112,-0.995974486488509,0.));
#1498=DIRECTION('',(-0.0896371701023112,0.995974486488509,0.));
#1499=DIRECTION('',(-0.0896371701023112,0.995974486488509,0.));
#1500=DIRECTION('',(0.,0.,1.));
#1501=DIRECTION('',(1.,0.,0.));
#1502=DIRECTION('',(0.,0.,-1.));
#1503=DIRECTION('',(-1.,0.,0.));
#1504=DIRECTION('',(0.,0.,1.));
#1505=DIRECTION('',(-2.9062047409513E-16,-1.,0.));
#1506=DIRECTION('',(0.,0.,-1.));
#1507=DIRECTION('',(0.,0.,1.));
#1508=DIRECTION('',(-2.9062047409513E-16,-1.,0.));
#1509=DIRECTION('',(0.,0.,-1.));
#1510=DIRECTION('',(-0.995552932744883,0.0942038115102729,0.));
#1511=DIRECTION('',(-0.0942038115102729,-0.995552932744883,0.));
#1512=DIRECTION('',(0.0942038115102729,0.995552932744883,0.));
#1513=DIRECTION('',(0.0942038115102729,0.995552932744883,0.));
#1514=DIRECTION('',(0.995379264565695,0.0960214542311075,0.));
#1515=DIRECTION('',(-0.0960214542311075,0.995379264565695,0.));
#1516=DIRECTION('',(0.0960214542311075,-0.995379264565695,0.));
#1517=DIRECTION('',(0.0960214542311075,-0.995379264565695,0.));
#1518=DIRECTION('',(0.,0.,1.));
#1519=DIRECTION('',(1.,0.,0.));
#1520=DIRECTION('',(0.,0.,1.));
#1521=DIRECTION('',(1.,0.,0.));
#1522=DIRECTION('',(0.,0.,1.));
#1523=DIRECTION('',(1.,0.,0.));
#1524=DIRECTION('',(0.921796383713429,-0.387674382662622,0.));
#1525=DIRECTION('',(0.387674382662622,0.921796383713429,0.));
#1526=DIRECTION('',(0.387674382662622,0.921796383713429,0.));
#1527=DIRECTION('',(0.,0.,1.));
#1528=DIRECTION('',(0.387674382662622,0.921796383713429,0.));
#1529=DIRECTION('',(0.,0.,1.));
#1530=DIRECTION('',(0.800473191083507,-0.599368559699779,0.));
#1531=DIRECTION('',(0.599368559699779,0.800473191083507,0.));
#1532=DIRECTION('',(0.599368559699779,0.800473191083507,0.));
#1533=DIRECTION('',(0.599368559699779,0.800473191083507,0.));
#1534=DIRECTION('',(0.,0.,1.));
#1535=DIRECTION('',(0.633432047422846,-0.773798320816026,0.));
#1536=DIRECTION('',(0.773798320816026,0.633432047422846,0.));
#1537=DIRECTION('',(0.773798320816026,0.633432047422846,0.));
#1538=DIRECTION('',(0.773798320816026,0.633432047422846,0.));
#1539=DIRECTION('',(0.,0.,1.));
#1540=DIRECTION('',(0.378773303838496,-0.925489483624352,0.));
#1541=DIRECTION('',(0.925489483624353,0.378773303838496,0.));
#1542=DIRECTION('',(0.925489483624353,0.378773303838496,0.));
#1543=DIRECTION('',(0.925489483624353,0.378773303838496,0.));
#1544=DIRECTION('',(0.,0.,1.));
#1545=DIRECTION('',(0.127732310987844,-0.991808679499078,0.));
#1546=DIRECTION('',(0.991808679499078,0.127732310987844,0.));
#1547=DIRECTION('',(0.991808679499078,0.127732310987844,0.));
#1548=DIRECTION('',(0.991808679499078,0.127732310987844,0.));
#1549=DIRECTION('',(0.,0.,1.));
#1550=DIRECTION('',(-0.119144347062598,-0.992876943313232,0.));
#1551=DIRECTION('',(0.992876943313232,-0.119144347062598,0.));
#1552=DIRECTION('',(0.992876943313232,-0.119144347062598,0.));
#1553=DIRECTION('',(0.992876943313232,-0.119144347062598,0.));
#1554=DIRECTION('',(0.,0.,1.));
#1555=DIRECTION('',(-0.383559353987132,-0.923516227236411,0.));
#1556=DIRECTION('',(0.923516227236411,-0.383559353987132,0.));
#1557=DIRECTION('',(0.923516227236411,-0.383559353987132,0.));
#1558=DIRECTION('',(0.923516227236411,-0.383559353987132,0.));
#1559=DIRECTION('',(0.,0.,1.));
#1560=DIRECTION('',(-0.608816892904074,-0.793310778267023,0.));
#1561=DIRECTION('',(0.793310778267023,-0.608816892904074,0.));
#1562=DIRECTION('',(0.793310778267023,-0.608816892904074,0.));
#1563=DIRECTION('',(0.793310778267023,-0.608816892904074,0.));
#1564=DIRECTION('',(0.,0.,1.));
#1565=DIRECTION('',(-0.788895001306289,-0.614528011496588,0.));
#1566=DIRECTION('',(0.614528011496588,-0.788895001306289,0.));
#1567=DIRECTION('',(0.614528011496588,-0.788895001306289,0.));
#1568=DIRECTION('',(0.614528011496588,-0.788895001306289,0.));
#1569=DIRECTION('',(0.,0.,1.));
#1570=DIRECTION('',(-0.923309456168761,-0.384056829322624,0.));
#1571=DIRECTION('',(0.384056829322624,-0.923309456168761,0.));
#1572=DIRECTION('',(0.384056829322624,-0.923309456168761,0.));
#1573=DIRECTION('',(0.384056829322624,-0.923309456168761,0.));
#1574=DIRECTION('',(0.,0.,1.));
#1575=DIRECTION('',(-0.992561992761597,-0.121740258440366,0.));
#1576=DIRECTION('',(0.121740258440366,-0.992561992761597,0.));
#1577=DIRECTION('',(0.121740258440366,-0.992561992761597,0.));
#1578=DIRECTION('',(0.121740258440366,-0.992561992761597,0.));
#1579=DIRECTION('',(0.,0.,1.));
#1580=DIRECTION('',(-0.99716117671828,0.0752966642409539,0.));
#1581=DIRECTION('',(-0.0752966642409539,-0.99716117671828,0.));
#1582=DIRECTION('',(-0.0752966642409539,-0.99716117671828,0.));
#1583=DIRECTION('',(-0.0752966642409539,-0.99716117671828,0.));
#1584=DIRECTION('',(0.,0.,1.));
#1585=DIRECTION('',(-0.967283563545367,0.253697669865091,0.));
#1586=DIRECTION('',(-0.253697669865091,-0.967283563545367,0.));
#1587=DIRECTION('',(-0.253697669865091,-0.967283563545367,0.));
#1588=DIRECTION('',(-0.253697669865091,-0.967283563545367,0.));
#1589=DIRECTION('',(0.,0.,1.));
#1590=DIRECTION('',(-0.899477597687429,0.436966876614751,0.));
#1591=DIRECTION('',(-0.436966876614751,-0.899477597687429,0.));
#1592=DIRECTION('',(-0.436966876614751,-0.899477597687429,0.));
#1593=DIRECTION('',(-0.436966876614751,-0.899477597687429,0.));
#1594=DIRECTION('',(0.,0.,1.));
#1595=DIRECTION('',(0.,1.,0.));
#1596=DIRECTION('',(0.,0.,1.));
#1597=DIRECTION('',(-1.,0.,0.));
#1598=DIRECTION('',(-1.,0.,0.));
#1599=DIRECTION('',(0.,0.,1.));
#1600=DIRECTION('',(0.910913543668603,0.412597280603143,0.));
#1601=DIRECTION('',(-0.412597280603143,0.910913543668603,0.));
#1602=DIRECTION('',(-0.412597280603143,0.910913543668602,0.));
#1603=DIRECTION('',(-0.412597280603143,0.910913543668602,0.));
#1604=DIRECTION('',(0.,0.,1.));
#1605=DIRECTION('',(0.967757792558089,0.251882621359822,0.));
#1606=DIRECTION('',(-0.251882621359822,0.967757792558089,0.));
#1607=DIRECTION('',(-0.251882621359822,0.967757792558089,0.));
#1608=DIRECTION('',(-0.251882621359822,0.967757792558089,0.));
#1609=DIRECTION('',(0.,0.,1.));
#1610=DIRECTION('',(0.995974486488508,0.0896371701023191,0.));
#1611=DIRECTION('',(-0.0896371701023191,0.995974486488509,0.));
#1612=DIRECTION('',(-0.0896371701023191,0.995974486488508,0.));
#1613=DIRECTION('',(-0.0896371701023191,0.995974486488508,0.));
#1614=DIRECTION('',(0.,0.,1.));
#1615=DIRECTION('',(0.967757792558088,0.251882621359825,0.));
#1616=DIRECTION('',(-0.251882621359825,0.967757792558088,0.));
#1617=DIRECTION('',(-0.251882621359825,0.967757792558088,0.));
#1618=DIRECTION('',(0.,0.,1.));
#1619=DIRECTION('',(-0.251882621359825,0.967757792558088,0.));
#1620=DIRECTION('',(0.,0.,1.));
#1621=DIRECTION('',(0.910913543668604,0.41259728060314,0.));
#1622=DIRECTION('',(-0.41259728060314,0.910913543668604,0.));
#1623=DIRECTION('',(-0.41259728060314,0.910913543668604,0.));
#1624=DIRECTION('',(-0.41259728060314,0.910913543668604,0.));
#1625=DIRECTION('',(0.,0.,1.));
#1626=DIRECTION('',(0.,1.,0.));
#1627=DIRECTION('',(0.,0.,1.));
#1628=DIRECTION('',(-1.,0.,0.));
#1629=DIRECTION('',(-1.,0.,0.));
#1630=DIRECTION('',(0.,0.,1.));
#1631=DIRECTION('',(-0.899477597687429,0.436966876614751,0.));
#1632=DIRECTION('',(-0.436966876614751,-0.899477597687429,0.));
#1633=DIRECTION('',(-0.436966876614751,-0.899477597687429,0.));
#1634=DIRECTION('',(-0.436966876614751,-0.899477597687429,0.));
#1635=DIRECTION('',(0.,0.,1.));
#1636=DIRECTION('',(-0.967283563545367,0.25369766986509,0.));
#1637=DIRECTION('',(-0.25369766986509,-0.967283563545367,0.));
#1638=DIRECTION('',(-0.25369766986509,-0.967283563545367,0.));
#1639=DIRECTION('',(-0.25369766986509,-0.967283563545367,0.));
#1640=DIRECTION('',(0.,0.,1.));
#1641=DIRECTION('',(-0.997161176718281,0.0752966642409477,0.));
#1642=DIRECTION('',(-0.0752966642409477,-0.997161176718281,0.));
#1643=DIRECTION('',(-0.0752966642409477,-0.997161176718281,0.));
#1644=DIRECTION('',(-0.0752966642409477,-0.997161176718281,0.));
#1645=DIRECTION('',(0.,0.,1.));
#1646=DIRECTION('',(-0.992561992761598,-0.12174025844036,0.));
#1647=DIRECTION('',(0.12174025844036,-0.992561992761598,0.));
#1648=DIRECTION('',(0.12174025844036,-0.992561992761598,0.));
#1649=DIRECTION('',(0.12174025844036,-0.992561992761598,0.));
#1650=DIRECTION('',(0.,0.,1.));
#1651=DIRECTION('',(-0.92330945616876,-0.384056829322627,0.));
#1652=DIRECTION('',(0.384056829322627,-0.92330945616876,0.));
#1653=DIRECTION('',(0.384056829322627,-0.92330945616876,0.));
#1654=DIRECTION('',(0.384056829322627,-0.92330945616876,0.));
#1655=DIRECTION('',(0.,0.,1.));
#1656=DIRECTION('',(-0.788895001306289,-0.614528011496588,0.));
#1657=DIRECTION('',(0.614528011496588,-0.788895001306289,0.));
#1658=DIRECTION('',(0.614528011496589,-0.788895001306289,0.));
#1659=DIRECTION('',(0.614528011496589,-0.788895001306289,0.));
#1660=DIRECTION('',(0.,0.,1.));
#1661=DIRECTION('',(-0.608816892904074,-0.793310778267023,0.));
#1662=DIRECTION('',(0.793310778267023,-0.608816892904074,0.));
#1663=DIRECTION('',(0.793310778267023,-0.608816892904074,0.));
#1664=DIRECTION('',(0.793310778267023,-0.608816892904074,0.));
#1665=DIRECTION('',(0.,0.,1.));
#1666=DIRECTION('',(-0.383559353987133,-0.92351622723641,0.));
#1667=DIRECTION('',(0.92351622723641,-0.383559353987133,0.));
#1668=DIRECTION('',(0.92351622723641,-0.383559353987133,0.));
#1669=DIRECTION('',(0.92351622723641,-0.383559353987133,0.));
#1670=DIRECTION('',(0.,0.,1.));
#1671=DIRECTION('',(-0.1191443470626,-0.992876943313232,0.));
#1672=DIRECTION('',(0.992876943313232,-0.1191443470626,0.));
#1673=DIRECTION('',(0.992876943313232,-0.1191443470626,0.));
#1674=DIRECTION('',(0.992876943313232,-0.1191443470626,0.));
#1675=DIRECTION('',(0.,0.,1.));
#1676=DIRECTION('',(0.127732310987844,-0.991808679499078,0.));
#1677=DIRECTION('',(0.991808679499078,0.127732310987844,0.));
#1678=DIRECTION('',(0.991808679499078,0.127732310987844,0.));
#1679=DIRECTION('',(0.991808679499078,0.127732310987844,0.));
#1680=DIRECTION('',(0.,0.,1.));
#1681=DIRECTION('',(0.378773303838494,-0.925489483624354,0.));
#1682=DIRECTION('',(0.925489483624354,0.378773303838494,0.));
#1683=DIRECTION('',(0.925489483624353,0.378773303838494,0.));
#1684=DIRECTION('',(0.925489483624353,0.378773303838494,0.));
#1685=DIRECTION('',(0.,0.,1.));
#1686=DIRECTION('',(0.633432047422846,-0.773798320816026,0.));
#1687=DIRECTION('',(0.773798320816026,0.633432047422846,0.));
#1688=DIRECTION('',(0.773798320816026,0.633432047422846,0.));
#1689=DIRECTION('',(0.773798320816026,0.633432047422846,0.));
#1690=DIRECTION('',(0.,0.,1.));
#1691=DIRECTION('',(0.800473191083508,-0.599368559699777,0.));
#1692=DIRECTION('',(0.599368559699777,0.800473191083508,0.));
#1693=DIRECTION('',(0.599368559699777,0.800473191083508,0.));
#1694=DIRECTION('',(0.599368559699777,0.800473191083508,0.));
#1695=DIRECTION('',(0.,0.,1.));
#1696=DIRECTION('',(0.921796383713428,-0.387674382662624,0.));
#1697=DIRECTION('',(0.387674382662624,0.921796383713428,0.));
#1698=DIRECTION('',(0.387674382662624,0.921796383713428,0.));
#1699=DIRECTION('',(0.387674382662624,0.921796383713428,0.));
#1700=DIRECTION('',(0.,0.,1.));
#1701=DIRECTION('',(0.99080403922328,-0.135304677889688,0.));
#1702=DIRECTION('',(0.135304677889688,0.99080403922328,0.));
#1703=DIRECTION('',(0.135304677889688,0.99080403922328,0.));
#1704=DIRECTION('',(0.135304677889688,0.99080403922328,0.));
#1705=DIRECTION('',(0.,0.,1.));
#1706=DIRECTION('',(0.995974486488509,0.0896371701023112,0.));
#1707=DIRECTION('',(-0.0896371701023112,0.995974486488509,0.));
#1708=DIRECTION('',(-0.0896371701023112,0.995974486488509,0.));
#1709=DIRECTION('',(-0.0896371701023112,0.995974486488509,0.));
#1710=DIRECTION('',(0.99080403922328,-0.135304677889693,0.));
#1711=DIRECTION('',(0.135304677889693,0.99080403922328,0.));
#1712=DIRECTION('',(0.135304677889693,0.99080403922328,0.));
#1713=DIRECTION('',(0.135304677889693,0.99080403922328,0.));
#1714=DIRECTION('',(0.,0.,1.));
#1715=DIRECTION('',(1.,0.,0.));
#1716=DIRECTION('',(0.,0.,1.));
#1717=DIRECTION('',(1.,0.,0.));
#1718=CARTESIAN_POINT('',(0.,0.,0.));
#1719=CARTESIAN_POINT('',(0.0353337217868297,0.00444254261466923,0.0252932));
#1720=CARTESIAN_POINT('',(0.0353337217868297,0.00444254261466923,0.0232932));
#1721=CARTESIAN_POINT('',(0.0354327695678633,0.00406199130305705,0.0232932));
#1722=CARTESIAN_POINT('',(0.0352346740057961,0.00482309392628142,0.0232932));
#1723=CARTESIAN_POINT('',(0.0354327695678633,0.00406199130305705,0.0252932));
#1724=CARTESIAN_POINT('',(0.0354327695678633,0.00406199130305705,0.0252932));
#1725=CARTESIAN_POINT('',(0.0353337217868297,0.00444254261466923,0.0252932));
#1726=CARTESIAN_POINT('',(0.0352432396098235,0.00479018403356772,0.0252932));
#1727=CARTESIAN_POINT('',(0.0374530687021024,-0.0181173846374332,0.0252932));
#1728=CARTESIAN_POINT('',(0.035237344592875,0.00482335155034904,0.0252932));
#1729=CARTESIAN_POINT('',(0.0352346740057961,0.00482309392628142,0.0252932));
#1730=CARTESIAN_POINT('',(0.0357784580214378,0.00329879602995543,0.0252932));
#1731=CARTESIAN_POINT('',(0.0357784580214378,0.00329879602995543,0.0232932));
#1732=CARTESIAN_POINT('',(0.0361241464750123,0.00253560075685382,0.0232932));
#1733=CARTESIAN_POINT('',(0.0361241464750123,0.00253560075685382,0.0252932));
#1734=CARTESIAN_POINT('',(0.0361241464750123,0.00253560075685382,0.0252932));
#1735=CARTESIAN_POINT('',(0.0357784580214378,0.00329879602995543,0.0252932));
#1736=CARTESIAN_POINT('',(0.039741956460264,0.00253560075685382,0.0252932));
#1737=CARTESIAN_POINT('',(0.039741956460264,0.00253560075685382,0.0232932));
#1738=CARTESIAN_POINT('',(0.0433597664455156,0.00253560075685382,0.0232932));
#1739=CARTESIAN_POINT('',(0.0433597664455156,0.00253560075685382,0.0252932));
#1740=CARTESIAN_POINT('',(0.0433597664455156,0.00253560075685382,0.0252932));
#1741=CARTESIAN_POINT('',(0.039741956460264,0.00253560075685382,0.0252932));
#1742=CARTESIAN_POINT('',(0.043725090451593,0.00328760457441953,0.0252932));
#1743=CARTESIAN_POINT('',(0.043725090451593,0.00328760457441953,0.0232932));
#1744=CARTESIAN_POINT('',(0.0440904144576705,0.00403960839198526,0.0232932));
#1745=CARTESIAN_POINT('',(0.0440904144576705,0.00403960839198526,0.0252932));
#1746=CARTESIAN_POINT('',(0.0440904144576705,0.00403960839198526,0.0252932));
#1747=CARTESIAN_POINT('',(0.043725090451593,0.00328760457441953,0.0252932));
#1748=CARTESIAN_POINT('',(0.0441973019439746,0.00444714271701734,0.0252932));
#1749=CARTESIAN_POINT('',(0.0441973019439746,0.00444714271701734,0.0232932));
#1750=CARTESIAN_POINT('',(0.0443041894302788,0.00485467704204942,0.0232932));
#1751=CARTESIAN_POINT('',(0.0443041894302788,0.00485467704204942,0.0252932));
#1752=CARTESIAN_POINT('',(0.0443041894302788,0.00485467704204942,0.0252932));
#1753=CARTESIAN_POINT('',(0.0441973019439746,0.00444714271701734,0.0252932));
#1754=CARTESIAN_POINT('',(0.0443349909443865,0.00526258454182969,0.0252932));
#1755=CARTESIAN_POINT('',(0.0443349909443865,0.00526258454182969,0.0232932));
#1756=CARTESIAN_POINT('',(0.0443657924584941,0.00567049204160996,0.0232932));
#1757=CARTESIAN_POINT('',(0.0443657924584941,0.00567049204160996,0.0252932));
#1758=CARTESIAN_POINT('',(0.0443657924584941,0.00567049204160996,0.0252932));
#1759=CARTESIAN_POINT('',(0.0443349909443865,0.00526258454182969,0.0252932));
#1760=CARTESIAN_POINT('',(0.0442953232602721,0.00624503532508585,0.0252932));
#1761=CARTESIAN_POINT('',(0.0442953232602721,0.00624503532508585,0.0232932));
#1762=CARTESIAN_POINT('',(0.0442248540620502,0.00681957860856175,0.0232932));
#1763=CARTESIAN_POINT('',(0.0442248540620502,0.00681957860856175,0.0252932));
#1764=CARTESIAN_POINT('',(0.0442248540620502,0.00681957860856175,0.0252932));
#1765=CARTESIAN_POINT('',(0.0442953232602721,0.00624503532508585,0.0252932));
#1766=CARTESIAN_POINT('',(0.0439888365060986,0.00738698745171728,0.0252932));
#1767=CARTESIAN_POINT('',(0.0439888365060986,0.00738698745171728,0.0232932));
#1768=CARTESIAN_POINT('',(0.043752818950147,0.0079543962948728,0.0232932));
#1769=CARTESIAN_POINT('',(0.043752818950147,0.0079543962948728,0.0252932));
#1770=CARTESIAN_POINT('',(0.043752818950147,0.0079543962948728,0.0252932));
#1771=CARTESIAN_POINT('',(0.0439888365060986,0.00738698745171728,0.0252932));
#1772=CARTESIAN_POINT('',(0.0433833895846265,0.00842864803660406,0.0252932));
#1773=CARTESIAN_POINT('',(0.0433833895846265,0.00842864803660406,0.0232932));
#1774=CARTESIAN_POINT('',(0.043013960219106,0.00890289977833532,0.0232932));
#1775=CARTESIAN_POINT('',(0.043013960219106,0.00890289977833532,0.0252932));
#1776=CARTESIAN_POINT('',(0.043013960219106,0.00890289977833532,0.0252932));
#1777=CARTESIAN_POINT('',(0.0433833895846265,0.00842864803660406,0.0252932));
#1778=CARTESIAN_POINT('',(0.042539495329456,0.00926702219772283,0.0252932));
#1779=CARTESIAN_POINT('',(0.042539495329456,0.00926702219772283,0.0232932));
#1780=CARTESIAN_POINT('',(0.042065030439806,0.00963114461711034,0.0232932));
#1781=CARTESIAN_POINT('',(0.042065030439806,0.00963114461711034,0.0252932));
#1782=CARTESIAN_POINT('',(0.042065030439806,0.00963114461711034,0.0252932));
#1783=CARTESIAN_POINT('',(0.042539495329456,0.00926702219772283,0.0252932));
#1784=CARTESIAN_POINT('',(0.0415085579022599,0.00986226155985369,0.0252932));
#1785=CARTESIAN_POINT('',(0.0415085579022599,0.00986226155985369,0.0232932));
#1786=CARTESIAN_POINT('',(0.0409520853647138,0.010093378502597,0.0232932));
#1787=CARTESIAN_POINT('',(0.0409520853647138,0.010093378502597,0.0252932));
#1788=CARTESIAN_POINT('',(0.0409520853647138,0.010093378502597,0.0252932));
#1789=CARTESIAN_POINT('',(0.0415085579022599,0.00986226155985369,0.0252932));
#1790=CARTESIAN_POINT('',(0.0403471545804938,0.0101659696568074,0.0252932));
#1791=CARTESIAN_POINT('',(0.0403471545804938,0.0101659696568074,0.0232932));
#1792=CARTESIAN_POINT('',(0.0397422237962738,0.0102385608110178,0.0232932));
#1793=CARTESIAN_POINT('',(0.0397422237962738,0.0102385608110178,0.0252932));
#1794=CARTESIAN_POINT('',(0.0397422237962738,0.0102385608110178,0.0252932));
#1795=CARTESIAN_POINT('',(0.0403471545804938,0.0101659696568074,0.0252932));
#1796=CARTESIAN_POINT('',(0.0391589677041993,0.01016344486368,0.0252932));
#1797=CARTESIAN_POINT('',(0.0391589677041993,0.01016344486368,0.0232932));
#1798=CARTESIAN_POINT('',(0.0385757116121249,0.0100883289163422,0.0232932));
#1799=CARTESIAN_POINT('',(0.0385757116121249,0.0100883289163422,0.0252932));
#1800=CARTESIAN_POINT('',(0.0385757116121249,0.0100883289163422,0.0252932));
#1801=CARTESIAN_POINT('',(0.0391589677041993,0.01016344486368,0.0252932));
#1802=CARTESIAN_POINT('',(0.0379943516614961,0.00985039684567546,0.0252932));
#1803=CARTESIAN_POINT('',(0.0379943516614961,0.00985039684567546,0.0232932));
#1804=CARTESIAN_POINT('',(0.0374129917108674,0.0096124647750087,0.0232932));
#1805=CARTESIAN_POINT('',(0.0374129917108674,0.0096124647750087,0.0252932));
#1806=CARTESIAN_POINT('',(0.0374129917108674,0.0096124647750087,0.0252932));
#1807=CARTESIAN_POINT('',(0.0379943516614961,0.00985039684567546,0.0252932));
#1808=CARTESIAN_POINT('',(0.0369349005409859,0.00922109888489741,0.0252932));
#1809=CARTESIAN_POINT('',(0.0369349005409859,0.00922109888489741,0.0232932));
#1810=CARTESIAN_POINT('',(0.0364568093711045,0.00882973299478612,0.0232932));
#1811=CARTESIAN_POINT('',(0.0364568093711045,0.00882973299478612,0.0252932));
#1812=CARTESIAN_POINT('',(0.0364568093711045,0.00882973299478612,0.0252932));
#1813=CARTESIAN_POINT('',(0.0369349005409859,0.00922109888489741,0.0252932));
#1814=CARTESIAN_POINT('',(0.0361213023851168,0.00838165419025409,0.0252932));
#1815=CARTESIAN_POINT('',(0.0361213023851168,0.00838165419025409,0.0232932));
#1816=CARTESIAN_POINT('',(0.0357857953991291,0.00793357538572206,0.0232932));
#1817=CARTESIAN_POINT('',(0.0357857953991291,0.00793357538572206,0.0252932));
#1818=CARTESIAN_POINT('',(0.0357857953991291,0.00793357538572206,0.0252932));
#1819=CARTESIAN_POINT('',(0.0361213023851168,0.00838165419025409,0.0252932));
#1820=CARTESIAN_POINT('',(0.0355524216386304,0.00737866874731122,0.0252932));
#1821=CARTESIAN_POINT('',(0.0355524216386304,0.00737866874731122,0.0232932));
#1822=CARTESIAN_POINT('',(0.0353190478781317,0.00682376210890038,0.0232932));
#1823=CARTESIAN_POINT('',(0.0353190478781317,0.00682376210890038,0.0252932));
#1824=CARTESIAN_POINT('',(0.0353190478781317,0.00682376210890038,0.0252932));
#1825=CARTESIAN_POINT('',(0.0355524216386304,0.00737866874731122,0.0252932));
#1826=CARTESIAN_POINT('',(0.0352393535411889,0.00624017939633088,0.0252932));
#1827=CARTESIAN_POINT('',(0.0352393535411889,0.00624017939633088,0.0232932));
#1828=CARTESIAN_POINT('',(0.035159659204246,0.00565659668376138,0.0232932));
#1829=CARTESIAN_POINT('',(0.035159659204246,0.00565659668376138,0.0252932));
#1830=CARTESIAN_POINT('',(0.035159659204246,0.00565659668376138,0.0252932));
#1831=CARTESIAN_POINT('',(0.035159659204246,0.00565659668376138,0.0262932));
#1832=CARTESIAN_POINT('',(0.035159659204246,0.00565659668376138,0.0262932));
#1833=CARTESIAN_POINT('',(0.0352393535411889,0.00624017939633088,0.0262932));
#1834=CARTESIAN_POINT('',(0.0353190478781317,0.00682376210890038,0.0262932));
#1835=CARTESIAN_POINT('',(0.0353190478781317,0.00682376210890038,0.0262932));
#1836=CARTESIAN_POINT('',(0.0351971666050211,0.0052398453050214,0.0252932));
#1837=CARTESIAN_POINT('',(0.0351971666050211,0.0052398453050214,0.0232932));
#1838=CARTESIAN_POINT('',(0.0351971666050211,0.0052398453050214,0.0252932));
#1839=CARTESIAN_POINT('',(0.0397627258313701,0.00638708078393579,0.0232932));
#1840=CARTESIAN_POINT('',(0.0397464781999588,0.00586090562865138,0.0262932));
#1841=CARTESIAN_POINT('',(0.0397464781999588,0.00586090562865138,0.0252932));
#1842=CARTESIAN_POINT('',(0.0397464781999588,-0.0418913659586277,0.0252932));
#1843=CARTESIAN_POINT('',(0.0397464781999588,0.0536131772159305,0.0252932));
#1844=CARTESIAN_POINT('',(0.0397464781999588,0.0536131772159305,0.0262932));
#1845=CARTESIAN_POINT('',(0.0397464781999588,0.0536131772159305,0.0262932));
#1846=CARTESIAN_POINT('',(0.0397464781999588,0.00586090562865138,0.0262932));
#1847=CARTESIAN_POINT('',(0.0397464781999588,-0.0418913659586277,0.0262932));
#1848=CARTESIAN_POINT('',(0.0397464781999588,-0.0418913659586277,0.0262932));
#1849=CARTESIAN_POINT('',(0.0375327630390452,0.0302184696624155,0.0262932));
#1850=CARTESIAN_POINT('',(0.0375327630390452,0.0302184696624155,0.0252932));
#1851=CARTESIAN_POINT('',(0.0375327630390452,0.0302184696624155,0.0262932));
#1852=CARTESIAN_POINT('',(0.0374530687021024,-0.0181173846374332,0.0262932));
#1853=CARTESIAN_POINT('',(0.0374530687021024,-0.0181173846374332,0.0252932));
#1854=CARTESIAN_POINT('',(0.0374530687021024,-0.0181173846374332,0.0262932));
#1855=CARTESIAN_POINT('',(0.061329204495742,0.00586090562865138,0.0262932));
#1856=CARTESIAN_POINT('',(0.061329204495742,0.00586090562865138,0.0252932));
#1857=CARTESIAN_POINT('',(0.,0.,0.));
#1858=CARTESIAN_POINT('',(0.0369292318960226,0.00680340368064526,0.0172734));
#1859=CARTESIAN_POINT('',(0.0369292318960226,0.00680340368064526,0.0232932));
#1860=CARTESIAN_POINT('',(0.0367699621636419,0.00642469858712008,0.0232932));
#1861=CARTESIAN_POINT('',(0.0370885016284033,0.00718210877417044,0.0232932));
#1862=CARTESIAN_POINT('',(0.0367699621636419,0.00642469858712008,0.0172734));
#1863=CARTESIAN_POINT('',(0.0367699621636419,0.00642469858712008,0.0172734));
#1864=CARTESIAN_POINT('',(0.0369292318960226,0.00680340368064526,0.0172734));
#1865=CARTESIAN_POINT('',(0.0370885016284033,0.00718210877417044,0.0172734));
#1866=CARTESIAN_POINT('',(0.0370885016284033,0.00718210877417044,0.0172734));
#1867=CARTESIAN_POINT('',(0.0373140713252151,0.00748336330628842,0.0172734));
#1868=CARTESIAN_POINT('',(0.0373140713252151,0.00748336330628842,0.0232932));
#1869=CARTESIAN_POINT('',(0.0375396410220267,0.00778461783840639,0.0232932));
#1870=CARTESIAN_POINT('',(0.0373140713252151,0.00748336330628842,0.0172734));
#1871=CARTESIAN_POINT('',(0.0375396410220267,0.00778461783840639,0.0172734));
#1872=CARTESIAN_POINT('',(0.0375396410220267,0.00778461783840639,0.0172734));
#1873=CARTESIAN_POINT('',(0.0378601624663876,0.00804699700011139,0.0172734));
#1874=CARTESIAN_POINT('',(0.0378601624663876,0.00804699700011139,0.0232932));
#1875=CARTESIAN_POINT('',(0.0381806839107485,0.00830937616181639,0.0232932));
#1876=CARTESIAN_POINT('',(0.0378601624663876,0.00804699700011139,0.0172734));
#1877=CARTESIAN_POINT('',(0.0381806839107485,0.00830937616181639,0.0172734));
#1878=CARTESIAN_POINT('',(0.0381806839107485,0.00830937616181639,0.0172734));
#1879=CARTESIAN_POINT('',(0.0385671379880573,0.00846753947996764,0.0172734));
#1880=CARTESIAN_POINT('',(0.0385671379880573,0.00846753947996764,0.0232932));
#1881=CARTESIAN_POINT('',(0.0389535920653661,0.00862570279811889,0.0232932));
#1882=CARTESIAN_POINT('',(0.0385671379880573,0.00846753947996764,0.0172734));
#1883=CARTESIAN_POINT('',(0.0389535920653661,0.00862570279811889,0.0172734));
#1884=CARTESIAN_POINT('',(0.0389535920653661,0.00862570279811889,0.0172734));
#1885=CARTESIAN_POINT('',(0.0393469225609473,0.00867635875044223,0.0172734));
#1886=CARTESIAN_POINT('',(0.0393469225609473,0.00867635875044223,0.0232932));
#1887=CARTESIAN_POINT('',(0.0397402530565285,0.00872701470276557,0.0232932));
#1888=CARTESIAN_POINT('',(0.0393469225609473,0.00867635875044223,0.0172734));
#1889=CARTESIAN_POINT('',(0.0397402530565285,0.00872701470276557,0.0172734));
#1890=CARTESIAN_POINT('',(0.0397402530565285,0.00872701470276557,0.0172734));
#1891=CARTESIAN_POINT('',(0.0401498108598089,0.0086778681318991,0.0172734));
#1892=CARTESIAN_POINT('',(0.0401498108598089,0.0086778681318991,0.0232932));
#1893=CARTESIAN_POINT('',(0.0405593686630892,0.00862872156103264,0.0232932));
#1894=CARTESIAN_POINT('',(0.0401498108598089,0.0086778681318991,0.0172734));
#1895=CARTESIAN_POINT('',(0.0405593686630892,0.00862872156103264,0.0172734));
#1896=CARTESIAN_POINT('',(0.0405593686630892,0.00862872156103264,0.0172734));
#1897=CARTESIAN_POINT('',(0.0409293963838701,0.00847503980715075,0.0172734));
#1898=CARTESIAN_POINT('',(0.0409293963838701,0.00847503980715075,0.0232932));
#1899=CARTESIAN_POINT('',(0.0412994241046511,0.00832135805326886,0.0232932));
#1900=CARTESIAN_POINT('',(0.0409293963838701,0.00847503980715075,0.0172734));
#1901=CARTESIAN_POINT('',(0.0412994241046511,0.00832135805326886,0.0172734));
#1902=CARTESIAN_POINT('',(0.0412994241046511,0.00832135805326886,0.0172734));
#1903=CARTESIAN_POINT('',(0.0416197189064975,0.00807555162857935,0.0172734));
#1904=CARTESIAN_POINT('',(0.0416197189064975,0.00807555162857935,0.0232932));
#1905=CARTESIAN_POINT('',(0.0419400137083439,0.00782974520388984,0.0232932));
#1906=CARTESIAN_POINT('',(0.0416197189064975,0.00807555162857935,0.0172734));
#1907=CARTESIAN_POINT('',(0.0419400137083439,0.00782974520388984,0.0172734));
#1908=CARTESIAN_POINT('',(0.0419400137083439,0.00782974520388984,0.0172734));
#1909=CARTESIAN_POINT('',(0.0421884505104558,0.00751081661534712,0.0172734));
#1910=CARTESIAN_POINT('',(0.0421884505104558,0.00751081661534712,0.0232932));
#1911=CARTESIAN_POINT('',(0.0424368873125676,0.0071918880268044,0.0232932));
#1912=CARTESIAN_POINT('',(0.0421884505104558,0.00751081661534712,0.0172734));
#1913=CARTESIAN_POINT('',(0.0424368873125676,0.0071918880268044,0.0172734));
#1914=CARTESIAN_POINT('',(0.0424368873125676,0.0071918880268044,0.0172734));
#1915=CARTESIAN_POINT('',(0.042594694795965,0.0068125036999276,0.0172734));
#1916=CARTESIAN_POINT('',(0.042594694795965,0.0068125036999276,0.0232932));
#1917=CARTESIAN_POINT('',(0.0427525022793624,0.00643311937305079,0.0232932));
#1918=CARTESIAN_POINT('',(0.042594694795965,0.0068125036999276,0.0172734));
#1919=CARTESIAN_POINT('',(0.0427525022793624,0.00643311937305079,0.0172734));
#1920=CARTESIAN_POINT('',(0.0427525022793624,0.00643311937305079,0.0172734));
#1921=CARTESIAN_POINT('',(0.0428014284799308,0.00603421856770886,0.0172734));
#1922=CARTESIAN_POINT('',(0.0428014284799308,0.00603421856770886,0.0232932));
#1923=CARTESIAN_POINT('',(0.0428503546804992,0.00563531776236693,0.0232932));
#1924=CARTESIAN_POINT('',(0.0428014284799308,0.00603421856770886,0.0172734));
#1925=CARTESIAN_POINT('',(0.0428503546804992,0.00563531776236693,0.0172734));
#1926=CARTESIAN_POINT('',(0.0428503546804992,0.00563531776236693,0.0172734));
#1927=CARTESIAN_POINT('',(0.042830274034352,0.00536938777804016,0.0172734));
#1928=CARTESIAN_POINT('',(0.042830274034352,0.00536938777804016,0.0232932));
#1929=CARTESIAN_POINT('',(0.0428101933882047,0.0051034577937134,0.0232932));
#1930=CARTESIAN_POINT('',(0.042830274034352,0.00536938777804016,0.0172734));
#1931=CARTESIAN_POINT('',(0.0428101933882047,0.0051034577937134,0.0172734));
#1932=CARTESIAN_POINT('',(0.0428101933882047,0.0051034577937134,0.0172734));
#1933=CARTESIAN_POINT('',(0.0427392656325008,0.00483302861583412,0.0172734));
#1934=CARTESIAN_POINT('',(0.0427392656325008,0.00483302861583412,0.0232932));
#1935=CARTESIAN_POINT('',(0.0426683378767969,0.00456259943795483,0.0232932));
#1936=CARTESIAN_POINT('',(0.0427392656325008,0.00483302861583412,0.0172734));
#1937=CARTESIAN_POINT('',(0.0426683378767969,0.00456259943795483,0.0172734));
#1938=CARTESIAN_POINT('',(0.0426683378767969,0.00456259943795483,0.0172734));
#1939=CARTESIAN_POINT('',(0.0425403297039125,0.00429910009740432,0.0172734));
#1940=CARTESIAN_POINT('',(0.0425403297039125,0.00429910009740432,0.0232932));
#1941=CARTESIAN_POINT('',(0.0424123215310282,0.00403560075685382,0.0232932));
#1942=CARTESIAN_POINT('',(0.0425403297039125,0.00429910009740432,0.0172734));
#1943=CARTESIAN_POINT('',(0.0424123215310282,0.00403560075685382,0.0172734));
#1944=CARTESIAN_POINT('',(0.0424123215310282,0.00403560075685382,0.0172734));
#1945=CARTESIAN_POINT('',(0.0397476159152785,0.00403560075685382,0.0172734));
#1946=CARTESIAN_POINT('',(0.0397476159152785,0.00403560075685382,0.0232932));
#1947=CARTESIAN_POINT('',(0.0370829102995288,0.00403560075685382,0.0232932));
#1948=CARTESIAN_POINT('',(0.0397476159152785,0.00403560075685382,0.0172734));
#1949=CARTESIAN_POINT('',(0.0370829102995288,0.00403560075685382,0.0172734));
#1950=CARTESIAN_POINT('',(0.0370829102995288,0.00403560075685382,0.0172734));
#1951=CARTESIAN_POINT('',(0.0369632417427629,0.00429979956337531,0.0172734));
#1952=CARTESIAN_POINT('',(0.0369632417427629,0.00429979956337531,0.0232932));
#1953=CARTESIAN_POINT('',(0.036843573185997,0.00456399836989679,0.0232932));
#1954=CARTESIAN_POINT('',(0.0369632417427629,0.00429979956337531,0.0172734));
#1955=CARTESIAN_POINT('',(0.036843573185997,0.00456399836989679,0.0172734));
#1956=CARTESIAN_POINT('',(0.036843573185997,0.00456399836989679,0.0172734));
#1957=CARTESIAN_POINT('',(0.0367762943416303,0.00482249030379304,0.0172734));
#1958=CARTESIAN_POINT('',(0.0367762943416303,0.00482249030379304,0.0232932));
#1959=CARTESIAN_POINT('',(0.0367090154972637,0.00508098223768928,0.0232932));
#1960=CARTESIAN_POINT('',(0.0367762943416303,0.00482249030379304,0.0172734));
#1961=CARTESIAN_POINT('',(0.0367090154972637,0.00508098223768928,0.0172734));
#1962=CARTESIAN_POINT('',(0.0367090154972637,0.00508098223768928,0.0172734));
#1963=CARTESIAN_POINT('',(0.0366846740275793,0.00535144462222767,0.0172734));
#1964=CARTESIAN_POINT('',(0.0366846740275793,0.00535144462222767,0.0232932));
#1965=CARTESIAN_POINT('',(0.0366603325578951,0.00562190700676607,0.0232932));
#1966=CARTESIAN_POINT('',(0.0366846740275793,0.00535144462222767,0.0172734));
#1967=CARTESIAN_POINT('',(0.0366603325578951,0.00562190700676607,0.0172734));
#1968=CARTESIAN_POINT('',(0.0366603325578951,0.00562190700676607,0.0172734));
#1969=CARTESIAN_POINT('',(0.0353252104124874,0.00444254261466923,0.0172734));
#1970=CARTESIAN_POINT('',(0.0353252104124874,0.00444254261466923,0.0232932));
#1971=CARTESIAN_POINT('',(0.0354242581935209,0.00406199130305705,0.0232932));
#1972=CARTESIAN_POINT('',(0.0352261626314538,0.00482309392628142,0.0232932));
#1973=CARTESIAN_POINT('',(0.0352261626314538,0.00482309392628142,0.0172734));
#1974=CARTESIAN_POINT('',(0.0352261626314538,0.00482309392628142,0.0172734));
#1975=CARTESIAN_POINT('',(0.0353252104124874,0.00444254261466923,0.0172734));
#1976=CARTESIAN_POINT('',(0.0354242581935209,0.00406199130305705,0.0172734));
#1977=CARTESIAN_POINT('',(0.0354242581935209,0.00406199130305705,0.0172734));
#1978=CARTESIAN_POINT('',(0.0357699466470955,0.00329879602995543,0.0172734));
#1979=CARTESIAN_POINT('',(0.0357699466470955,0.00329879602995543,0.0232932));
#1980=CARTESIAN_POINT('',(0.03611563510067,0.00253560075685382,0.0232932));
#1981=CARTESIAN_POINT('',(0.0357699466470955,0.00329879602995543,0.0172734));
#1982=CARTESIAN_POINT('',(0.03611563510067,0.00253560075685382,0.0172734));
#1983=CARTESIAN_POINT('',(0.03611563510067,0.00253560075685382,0.0172734));
#1984=CARTESIAN_POINT('',(0.0397334450859217,0.00253560075685382,0.0172734));
#1985=CARTESIAN_POINT('',(0.0397334450859217,0.00253560075685382,0.0232932));
#1986=CARTESIAN_POINT('',(0.0433512550711733,0.00253560075685382,0.0232932));
#1987=CARTESIAN_POINT('',(0.0397334450859217,0.00253560075685382,0.0172734));
#1988=CARTESIAN_POINT('',(0.0433512550711733,0.00253560075685382,0.0172734));
#1989=CARTESIAN_POINT('',(0.0433512550711733,0.00253560075685382,0.0172734));
#1990=CARTESIAN_POINT('',(0.0437165790772507,0.00328760457441954,0.0172734));
#1991=CARTESIAN_POINT('',(0.0437165790772507,0.00328760457441954,0.0232932));
#1992=CARTESIAN_POINT('',(0.0440819030833281,0.00403960839198526,0.0232932));
#1993=CARTESIAN_POINT('',(0.0437165790772507,0.00328760457441954,0.0172734));
#1994=CARTESIAN_POINT('',(0.0440819030833281,0.00403960839198526,0.0172734));
#1995=CARTESIAN_POINT('',(0.0440819030833281,0.00403960839198526,0.0172734));
#1996=CARTESIAN_POINT('',(0.0441887905696322,0.00444714271701734,0.0172734));
#1997=CARTESIAN_POINT('',(0.0441887905696322,0.00444714271701734,0.0232932));
#1998=CARTESIAN_POINT('',(0.0442956780559364,0.00485467704204942,0.0232932));
#1999=CARTESIAN_POINT('',(0.0441887905696322,0.00444714271701734,0.0172734));
#2000=CARTESIAN_POINT('',(0.0442956780559364,0.00485467704204942,0.0172734));
#2001=CARTESIAN_POINT('',(0.0442956780559364,0.00485467704204942,0.0172734));
#2002=CARTESIAN_POINT('',(0.0443264795700441,0.00526258454182969,0.0172734));
#2003=CARTESIAN_POINT('',(0.0443264795700441,0.00526258454182969,0.0232932));
#2004=CARTESIAN_POINT('',(0.0443572810841518,0.00567049204160996,0.0232932));
#2005=CARTESIAN_POINT('',(0.0443264795700441,0.00526258454182969,0.0172734));
#2006=CARTESIAN_POINT('',(0.0443572810841518,0.00567049204160996,0.0172734));
#2007=CARTESIAN_POINT('',(0.0443572810841518,0.00567049204160996,0.0172734));
#2008=CARTESIAN_POINT('',(0.0442868118859298,0.00624503532508585,0.0172734));
#2009=CARTESIAN_POINT('',(0.0442868118859298,0.00624503532508585,0.0232932));
#2010=CARTESIAN_POINT('',(0.0442163426877078,0.00681957860856175,0.0232932));
#2011=CARTESIAN_POINT('',(0.0442868118859298,0.00624503532508585,0.0172734));
#2012=CARTESIAN_POINT('',(0.0442163426877078,0.00681957860856175,0.0172734));
#2013=CARTESIAN_POINT('',(0.0442163426877078,0.00681957860856175,0.0172734));
#2014=CARTESIAN_POINT('',(0.0439803251317562,0.00738698745171728,0.0172734));
#2015=CARTESIAN_POINT('',(0.0439803251317562,0.00738698745171728,0.0232932));
#2016=CARTESIAN_POINT('',(0.0437443075758047,0.0079543962948728,0.0232932));
#2017=CARTESIAN_POINT('',(0.0439803251317562,0.00738698745171728,0.0172734));
#2018=CARTESIAN_POINT('',(0.0437443075758047,0.0079543962948728,0.0172734));
#2019=CARTESIAN_POINT('',(0.0437443075758047,0.0079543962948728,0.0172734));
#2020=CARTESIAN_POINT('',(0.0433748782102841,0.00842864803660406,0.0172734));
#2021=CARTESIAN_POINT('',(0.0433748782102841,0.00842864803660406,0.0232932));
#2022=CARTESIAN_POINT('',(0.0430054488447636,0.00890289977833532,0.0232932));
#2023=CARTESIAN_POINT('',(0.0433748782102841,0.00842864803660406,0.0172734));
#2024=CARTESIAN_POINT('',(0.0430054488447636,0.00890289977833532,0.0172734));
#2025=CARTESIAN_POINT('',(0.0430054488447636,0.00890289977833532,0.0172734));
#2026=CARTESIAN_POINT('',(0.0425309839551136,0.00926702219772283,0.0172734));
#2027=CARTESIAN_POINT('',(0.0425309839551136,0.00926702219772283,0.0232932));
#2028=CARTESIAN_POINT('',(0.0420565190654636,0.00963114461711034,0.0232932));
#2029=CARTESIAN_POINT('',(0.0425309839551136,0.00926702219772283,0.0172734));
#2030=CARTESIAN_POINT('',(0.0420565190654636,0.00963114461711034,0.0172734));
#2031=CARTESIAN_POINT('',(0.0420565190654636,0.00963114461711034,0.0172734));
#2032=CARTESIAN_POINT('',(0.0415000465279175,0.00986226155985369,0.0172734));
#2033=CARTESIAN_POINT('',(0.0415000465279175,0.00986226155985369,0.0232932));
#2034=CARTESIAN_POINT('',(0.0409435739903715,0.010093378502597,0.0232932));
#2035=CARTESIAN_POINT('',(0.0415000465279175,0.00986226155985369,0.0172734));
#2036=CARTESIAN_POINT('',(0.0409435739903715,0.010093378502597,0.0172734));
#2037=CARTESIAN_POINT('',(0.0409435739903715,0.010093378502597,0.0172734));
#2038=CARTESIAN_POINT('',(0.0403386432061514,0.0101659696568074,0.0172734));
#2039=CARTESIAN_POINT('',(0.0403386432061514,0.0101659696568074,0.0232932));
#2040=CARTESIAN_POINT('',(0.0397337124219314,0.0102385608110178,0.0232932));
#2041=CARTESIAN_POINT('',(0.0403386432061514,0.0101659696568074,0.0172734));
#2042=CARTESIAN_POINT('',(0.0397337124219314,0.0102385608110178,0.0172734));
#2043=CARTESIAN_POINT('',(0.0397337124219314,0.0102385608110178,0.0172734));
#2044=CARTESIAN_POINT('',(0.039150456329857,0.01016344486368,0.0172734));
#2045=CARTESIAN_POINT('',(0.039150456329857,0.01016344486368,0.0232932));
#2046=CARTESIAN_POINT('',(0.0385672002377826,0.0100883289163422,0.0232932));
#2047=CARTESIAN_POINT('',(0.039150456329857,0.01016344486368,0.0172734));
#2048=CARTESIAN_POINT('',(0.0385672002377826,0.0100883289163422,0.0172734));
#2049=CARTESIAN_POINT('',(0.0385672002377826,0.0100883289163422,0.0172734));
#2050=CARTESIAN_POINT('',(0.0379858402871538,0.00985039684567546,0.0172734));
#2051=CARTESIAN_POINT('',(0.0379858402871538,0.00985039684567546,0.0232932));
#2052=CARTESIAN_POINT('',(0.037404480336525,0.0096124647750087,0.0232932));
#2053=CARTESIAN_POINT('',(0.0379858402871538,0.00985039684567546,0.0172734));
#2054=CARTESIAN_POINT('',(0.037404480336525,0.0096124647750087,0.0172734));
#2055=CARTESIAN_POINT('',(0.037404480336525,0.0096124647750087,0.0172734));
#2056=CARTESIAN_POINT('',(0.0369263891666436,0.00922109888489741,0.0172734));
#2057=CARTESIAN_POINT('',(0.0369263891666436,0.00922109888489741,0.0232932));
#2058=CARTESIAN_POINT('',(0.0364482979967621,0.00882973299478612,0.0232932));
#2059=CARTESIAN_POINT('',(0.0369263891666436,0.00922109888489741,0.0172734));
#2060=CARTESIAN_POINT('',(0.0364482979967621,0.00882973299478612,0.0172734));
#2061=CARTESIAN_POINT('',(0.0364482979967621,0.00882973299478612,0.0172734));
#2062=CARTESIAN_POINT('',(0.0361127910107744,0.00838165419025409,0.0172734));
#2063=CARTESIAN_POINT('',(0.0361127910107744,0.00838165419025409,0.0232932));
#2064=CARTESIAN_POINT('',(0.0357772840247868,0.00793357538572205,0.0232932));
#2065=CARTESIAN_POINT('',(0.0361127910107744,0.00838165419025409,0.0172734));
#2066=CARTESIAN_POINT('',(0.0357772840247868,0.00793357538572205,0.0172734));
#2067=CARTESIAN_POINT('',(0.0357772840247868,0.00793357538572205,0.0172734));
#2068=CARTESIAN_POINT('',(0.035543910264288,0.00737866874731122,0.0172734));
#2069=CARTESIAN_POINT('',(0.035543910264288,0.00737866874731122,0.0232932));
#2070=CARTESIAN_POINT('',(0.0353105365037894,0.00682376210890038,0.0232932));
#2071=CARTESIAN_POINT('',(0.035543910264288,0.00737866874731122,0.0172734));
#2072=CARTESIAN_POINT('',(0.0353105365037894,0.00682376210890038,0.0172734));
#2073=CARTESIAN_POINT('',(0.0353105365037894,0.00682376210890038,0.0172734));
#2074=CARTESIAN_POINT('',(0.0352308421668465,0.00624017939633088,0.0172734));
#2075=CARTESIAN_POINT('',(0.0352308421668465,0.00624017939633088,0.0232932));
#2076=CARTESIAN_POINT('',(0.0351511478299036,0.00565659668376138,0.0232932));
#2077=CARTESIAN_POINT('',(0.0352308421668465,0.00624017939633088,0.0172734));
#2078=CARTESIAN_POINT('',(0.0351511478299036,0.00565659668376138,0.0172734));
#2079=CARTESIAN_POINT('',(0.0351511478299036,0.00565659668376138,0.0172734));
#2080=CARTESIAN_POINT('',(0.0351886552306788,0.0052398453050214,0.0172734));
#2081=CARTESIAN_POINT('',(0.0351886552306788,0.0052398453050214,0.0232932));
#2082=CARTESIAN_POINT('',(0.0351886552306788,0.0052398453050214,0.0172734));
#2083=CARTESIAN_POINT('',(0.0367151473607685,0.00602330279694308,0.0172734));
#2084=CARTESIAN_POINT('',(0.0367151473607685,0.00602330279694308,0.0232932));
#2085=CARTESIAN_POINT('',(0.0367151473607685,0.00602330279694308,0.0172734));
#2086=CARTESIAN_POINT('',(0.0397542144570277,0.00638708078393579,0.0172734));
#2087=CARTESIAN_POINT('',(0.0397542144570277,0.00638708078393579,0.0232932));
#2088=MECHANICAL_DESIGN_GEOMETRIC_PRESENTATION_REPRESENTATION('',(#1309),
#2090);
#2089=MECHANICAL_DESIGN_GEOMETRIC_PRESENTATION_REPRESENTATION('',(#1310),
#2091);
#2090=(
GEOMETRIC_REPRESENTATION_CONTEXT(3)
GLOBAL_UNCERTAINTY_ASSIGNED_CONTEXT((#2092))
GLOBAL_UNIT_ASSIGNED_CONTEXT((#2098,#2096,#2094))
REPRESENTATION_CONTEXT('Part 8','TOP_LEVEL_ASSEMBLY_PART')
);
#2091=(
GEOMETRIC_REPRESENTATION_CONTEXT(3)
GLOBAL_UNCERTAINTY_ASSIGNED_CONTEXT((#2093))
GLOBAL_UNIT_ASSIGNED_CONTEXT((#2099,#2097,#2095))
REPRESENTATION_CONTEXT('Part 7','TOP_LEVEL_ASSEMBLY_PART')
);
#2092=UNCERTAINTY_MEASURE_WITH_UNIT(LENGTH_MEASURE(2.53659688803108E-5),
#2098,'DISTANCE_ACCURACY_VALUE','Maximum Tolerance applied to model');
#2093=UNCERTAINTY_MEASURE_WITH_UNIT(LENGTH_MEASURE(1.E-8),#2099,
'DISTANCE_ACCURACY_VALUE','Maximum Tolerance applied to model');
#2094=(
NAMED_UNIT(*)
SI_UNIT($,.STERADIAN.)
SOLID_ANGLE_UNIT()
);
#2095=(
NAMED_UNIT(*)
SI_UNIT($,.STERADIAN.)
SOLID_ANGLE_UNIT()
);
#2096=(
NAMED_UNIT(*)
PLANE_ANGLE_UNIT()
SI_UNIT($,.RADIAN.)
);
#2097=(
NAMED_UNIT(*)
PLANE_ANGLE_UNIT()
SI_UNIT($,.RADIAN.)
);
#2098=(
LENGTH_UNIT()
NAMED_UNIT(*)
SI_UNIT($,.METRE.)
);
#2099=(
LENGTH_UNIT()
NAMED_UNIT(*)
SI_UNIT($,.METRE.)
);
#2100=PRODUCT_DEFINITION_SHAPE('','',#2102);
#2101=PRODUCT_DEFINITION_SHAPE('','',#2103);
#2102=PRODUCT_DEFINITION('','',#2106,#2104);
#2103=PRODUCT_DEFINITION('','',#2107,#2105);
#2104=PRODUCT_DEFINITION_CONTEXT('',#2118,'design');
#2105=PRODUCT_DEFINITION_CONTEXT('',#2119,'design');
#2106=PRODUCT_DEFINITION_FORMATION_WITH_SPECIFIED_SOURCE('','',#2110,
 .NOT_KNOWN.);
#2107=PRODUCT_DEFINITION_FORMATION_WITH_SPECIFIED_SOURCE('','',#2111,
 .NOT_KNOWN.);
#2108=PRODUCT_RELATED_PRODUCT_CATEGORY('','',(#2110));
#2109=PRODUCT_RELATED_PRODUCT_CATEGORY('','',(#2111));
#2110=PRODUCT('Part 8','Part 8','Part 8',(#2114));
#2111=PRODUCT('Part 7','Part 7','Part 7',(#2115));
#2112=PRODUCT_CATEGORY('','');
#2113=PRODUCT_CATEGORY('','');
#2114=PRODUCT_CONTEXT('',#2118,'mechanical');
#2115=PRODUCT_CONTEXT('',#2119,'mechanical');
#2116=APPLICATION_PROTOCOL_DEFINITION('international standard',
'ap242_managed_model_based_3d_engineering',2020,#2118);
#2117=APPLICATION_PROTOCOL_DEFINITION('international standard',
'ap242_managed_model_based_3d_engineering',2020,#2119);
#2118=APPLICATION_CONTEXT('managed model based 3d engineering');
#2119=APPLICATION_CONTEXT('managed model based 3d engineering');
ENDSEC;
END-ISO-10303-21;
