M48
; DRILL file KiCad 10.0.6 date 2026-09-21T22:09:08
; FORMAT={-:-/ absolute / metric / decimal}
; #@! TF.CreationDate,2026-09-21T22:09:08-04:00
; #@! TF.GenerationSoftware,Kicad,Pcbnew,10.0.6
; #@! TF.FileFunction,Plated,1,2,PTH
FMAT,2
METRIC
; #@! TA.AperFunction,Plated,PTH,ViaDrill
T1C0.300
; #@! TA.AperFunction,Plated,PTH,ComponentDrill
T2C0.800
; #@! TA.AperFunction,Plated,PTH,ComponentDrill
T3C1.000
; #@! TA.AperFunction,Plated,PTH,ComponentDrill
T4C1.500
; #@! TA.AperFunction,Plated,PTH,ComponentDrill
T5C3.200
%
G90
G05
T1
X99.0Y-73.5
X116.0Y-95.4
X116.5Y-86.0
X126.0Y-91.5
X126.5Y-89.0
X128.5Y-86.0
X135.0Y-88.4
X135.0Y-94.5
X137.0Y-89.0
X138.5Y-86.0
X143.5Y-90.6
X146.0Y-88.4
X149.5Y-86.0
X149.5Y-96.0
X154.5Y-89.4
X155.0Y-88.5
X173.0Y-132.5
T2
X176.45Y-127.0
X176.45Y-134.62
X176.55Y-116.19
X176.55Y-123.81
X180.0Y-127.0
X180.0Y-134.62
X180.1Y-116.19
X180.1Y-123.81
X183.55Y-127.0
X183.55Y-134.62
X183.65Y-116.19
X183.65Y-123.81
X187.1Y-127.0
X187.1Y-134.62
X187.2Y-116.19
X187.2Y-123.81
T3
X97.375Y-73.38
X97.375Y-75.92
X97.375Y-78.46
X97.375Y-81.0
X97.375Y-83.54
X97.375Y-86.08
X97.375Y-88.62
X112.625Y-73.38
X112.625Y-75.92
X112.625Y-78.46
X112.625Y-81.0
X112.625Y-83.54
X112.625Y-86.08
X112.625Y-88.62
X124.375Y-74.3
X124.375Y-76.84
X124.375Y-79.38
X124.375Y-81.92
X175.0Y-95.5
X175.0Y-98.0
X175.0Y-100.5
X189.5Y-95.5
X189.5Y-100.5
T4
X99.565Y-125.38
X105.915Y-122.84
X108.985Y-105.88
X115.335Y-103.34
X119.375Y-125.38
X125.725Y-122.84
X128.485Y-105.88
X134.835Y-103.34
X138.875Y-125.42
X145.225Y-122.88
X147.985Y-105.88
X154.335Y-103.34
X158.565Y-125.38
X164.915Y-122.84
T5
X98.5Y-107.5
X166.5Y-101.5
T4
G00X181.85Y-92.4
M15
G01X183.15Y-92.4
M16
G05
G00X181.85Y-103.6
M15
G01X183.15Y-103.6
M16
G05
M30
