M48
; DRILL file KiCad 10.0.6 date 2026-09-21T22:09:08
; FORMAT={-:-/ absolute / metric / decimal}
; #@! TF.CreationDate,2026-09-21T22:09:08-04:00
; #@! TF.GenerationSoftware,Kicad,Pcbnew,10.0.6
; #@! TF.FileFunction,NonPlated,1,2,NPTH
FMAT,2
METRIC
; #@! TA.AperFunction,NonPlated,NPTH,ComponentDrill
T1C1.700
; #@! TA.AperFunction,NonPlated,NPTH,ComponentDrill
T2C4.000
%
G90
G05
T1
X98.295Y-127.92
X107.715Y-108.42
X108.455Y-127.92
X117.875Y-108.42
X118.105Y-127.92
X127.215Y-108.42
X128.265Y-127.92
X137.375Y-108.42
X137.605Y-127.96
X146.715Y-108.42
X147.765Y-127.96
X156.875Y-108.42
X157.295Y-127.92
X167.455Y-127.92
T2
X103.375Y-127.92
X112.795Y-108.42
X123.185Y-127.92
X132.295Y-108.42
X142.685Y-127.96
X151.795Y-108.42
X162.375Y-127.92
M30
