%TF.GenerationSoftware,KiCad,Pcbnew,10.0.6*%
%TF.CreationDate,2026-09-21T22:09:36-04:00*%
%TF.ProjectId,superugh,73757065-7275-4676-982e-6b696361645f,rev?*%
%TF.SameCoordinates,Original*%
%TF.FileFunction,Profile,NP*%
%FSLAX46Y46*%
G04 Gerber Fmt 4.6, Leading zero omitted, Abs format (unit mm)*
G04 Created by KiCad (PCBNEW 10.0.6) date 2026-09-21 22:09:36*
%MOMM*%
%LPD*%
G01*
G04 APERTURE LIST*
%TA.AperFunction,Profile*%
%ADD10C,0.050000*%
%TD*%
%TA.AperFunction,Profile*%
%ADD11C,0.120000*%
%TD*%
G04 APERTURE END LIST*
D10*
X92375000Y-69920000D02*
X192000000Y-69920000D01*
X192000000Y-137920000D01*
X92375000Y-137920000D01*
X92375000Y-69920000D01*
%TO.C,D10*%
D11*
X138820000Y-93295000D02*
X138820000Y-92594647D01*
X138820000Y-93295000D02*
X138820000Y-93995353D01*
X140520000Y-91795000D02*
X139619647Y-91795000D01*
X140520000Y-91795000D02*
X141420353Y-91795000D01*
X140520000Y-94795000D02*
X139619647Y-94795000D01*
X140520000Y-94795000D02*
X141420353Y-94795000D01*
X142220000Y-93295000D02*
X142220000Y-92594647D01*
X142220000Y-93295000D02*
X142220000Y-93995353D01*
X138776066Y-92438345D02*
G75*
G02*
X138819976Y-92594647I-256066J-156255D01*
G01*
X138776066Y-92438345D02*
G75*
G02*
X139463345Y-91751066I426774J260505D01*
G01*
X138820000Y-93995353D02*
G75*
G02*
X138776065Y-94151654I-299680J-87D01*
G01*
X139463345Y-94838934D02*
G75*
G02*
X138776066Y-94151655I-260505J426774D01*
G01*
X139463345Y-94838934D02*
G75*
G02*
X139619647Y-94795024I156255J-256066D01*
G01*
X139619647Y-91795000D02*
G75*
G02*
X139463344Y-91751067I3J300020D01*
G01*
X141420353Y-94795000D02*
G75*
G02*
X141576655Y-94838934I3J-299992D01*
G01*
X141576655Y-91751066D02*
G75*
G02*
X141420353Y-91795000I-156299J256058D01*
G01*
X141576655Y-91751066D02*
G75*
G02*
X142263934Y-92438345I260503J-426776D01*
G01*
X142220000Y-92594647D02*
G75*
G02*
X142263934Y-92438345I299992J3D01*
G01*
X142263934Y-94151655D02*
G75*
G02*
X141576655Y-94838934I-426776J-260503D01*
G01*
X142263934Y-94151655D02*
G75*
G02*
X142220000Y-93995353I256058J156299D01*
G01*
%TO.C,D12*%
X117820000Y-93295000D02*
X117820000Y-92594647D01*
X117820000Y-93295000D02*
X117820000Y-93995353D01*
X119520000Y-91795000D02*
X118619647Y-91795000D01*
X119520000Y-91795000D02*
X120420353Y-91795000D01*
X119520000Y-94795000D02*
X118619647Y-94795000D01*
X119520000Y-94795000D02*
X120420353Y-94795000D01*
X121220000Y-93295000D02*
X121220000Y-92594647D01*
X121220000Y-93295000D02*
X121220000Y-93995353D01*
X117776066Y-92438345D02*
G75*
G02*
X117819976Y-92594647I-256066J-156255D01*
G01*
X117776066Y-92438345D02*
G75*
G02*
X118463345Y-91751066I426774J260505D01*
G01*
X117820000Y-93995353D02*
G75*
G02*
X117776065Y-94151654I-299680J-87D01*
G01*
X118463345Y-94838934D02*
G75*
G02*
X117776066Y-94151655I-260505J426774D01*
G01*
X118463345Y-94838934D02*
G75*
G02*
X118619647Y-94795024I156255J-256066D01*
G01*
X118619647Y-91795000D02*
G75*
G02*
X118463344Y-91751067I3J300020D01*
G01*
X120420353Y-94795000D02*
G75*
G02*
X120576655Y-94838934I3J-299992D01*
G01*
X120576655Y-91751066D02*
G75*
G02*
X120420353Y-91795000I-156299J256058D01*
G01*
X120576655Y-91751066D02*
G75*
G02*
X121263934Y-92438345I260503J-426776D01*
G01*
X121220000Y-92594647D02*
G75*
G02*
X121263934Y-92438345I299992J3D01*
G01*
X121263934Y-94151655D02*
G75*
G02*
X120576655Y-94838934I-426776J-260503D01*
G01*
X121263934Y-94151655D02*
G75*
G02*
X121220000Y-93995353I256058J156299D01*
G01*
%TO.C,D9*%
X150320000Y-93295000D02*
X150320000Y-92594647D01*
X150320000Y-93295000D02*
X150320000Y-93995353D01*
X152020000Y-91795000D02*
X151119647Y-91795000D01*
X152020000Y-91795000D02*
X152920353Y-91795000D01*
X152020000Y-94795000D02*
X151119647Y-94795000D01*
X152020000Y-94795000D02*
X152920353Y-94795000D01*
X153720000Y-93295000D02*
X153720000Y-92594647D01*
X153720000Y-93295000D02*
X153720000Y-93995353D01*
X150276066Y-92438345D02*
G75*
G02*
X150319976Y-92594647I-256066J-156255D01*
G01*
X150276066Y-92438345D02*
G75*
G02*
X150963345Y-91751066I426774J260505D01*
G01*
X150320000Y-93995353D02*
G75*
G02*
X150276065Y-94151654I-299680J-87D01*
G01*
X150963345Y-94838934D02*
G75*
G02*
X150276066Y-94151655I-260505J426774D01*
G01*
X150963345Y-94838934D02*
G75*
G02*
X151119647Y-94795024I156255J-256066D01*
G01*
X151119647Y-91795000D02*
G75*
G02*
X150963344Y-91751067I3J300020D01*
G01*
X152920353Y-94795000D02*
G75*
G02*
X153076655Y-94838934I3J-299992D01*
G01*
X153076655Y-91751066D02*
G75*
G02*
X152920353Y-91795000I-156299J256058D01*
G01*
X153076655Y-91751066D02*
G75*
G02*
X153763934Y-92438345I260503J-426776D01*
G01*
X153720000Y-92594647D02*
G75*
G02*
X153763934Y-92438345I299992J3D01*
G01*
X153763934Y-94151655D02*
G75*
G02*
X153076655Y-94838934I-426776J-260503D01*
G01*
X153763934Y-94151655D02*
G75*
G02*
X153720000Y-93995353I256058J156299D01*
G01*
%TO.C,D11*%
X128320000Y-93295000D02*
X128320000Y-92594647D01*
X128320000Y-93295000D02*
X128320000Y-93995353D01*
X130020000Y-91795000D02*
X129119647Y-91795000D01*
X130020000Y-91795000D02*
X130920353Y-91795000D01*
X130020000Y-94795000D02*
X129119647Y-94795000D01*
X130020000Y-94795000D02*
X130920353Y-94795000D01*
X131720000Y-93295000D02*
X131720000Y-92594647D01*
X131720000Y-93295000D02*
X131720000Y-93995353D01*
X128276066Y-92438345D02*
G75*
G02*
X128319976Y-92594647I-256066J-156255D01*
G01*
X128276066Y-92438345D02*
G75*
G02*
X128963345Y-91751066I426774J260505D01*
G01*
X128320000Y-93995353D02*
G75*
G02*
X128276065Y-94151654I-299680J-87D01*
G01*
X128963345Y-94838934D02*
G75*
G02*
X128276066Y-94151655I-260505J426774D01*
G01*
X128963345Y-94838934D02*
G75*
G02*
X129119647Y-94795024I156255J-256066D01*
G01*
X129119647Y-91795000D02*
G75*
G02*
X128963344Y-91751067I3J300020D01*
G01*
X130920353Y-94795000D02*
G75*
G02*
X131076655Y-94838934I3J-299992D01*
G01*
X131076655Y-91751066D02*
G75*
G02*
X130920353Y-91795000I-156299J256058D01*
G01*
X131076655Y-91751066D02*
G75*
G02*
X131763934Y-92438345I260503J-426776D01*
G01*
X131720000Y-92594647D02*
G75*
G02*
X131763934Y-92438345I299992J3D01*
G01*
X131763934Y-94151655D02*
G75*
G02*
X131076655Y-94838934I-426776J-260503D01*
G01*
X131763934Y-94151655D02*
G75*
G02*
X131720000Y-93995353I256058J156299D01*
G01*
%TD*%
M02*
