%TF.GenerationSoftware,KiCad,Pcbnew,10.0.6*%
%TF.CreationDate,2026-09-21T22:09:36-04:00*%
%TF.ProjectId,superugh,73757065-7275-4676-982e-6b696361645f,rev?*%
%TF.SameCoordinates,Original*%
%TF.FileFunction,Legend,Top*%
%TF.FilePolarity,Positive*%
%FSLAX46Y46*%
G04 Gerber Fmt 4.6, Leading zero omitted, Abs format (unit mm)*
G04 Created by KiCad (PCBNEW 10.0.6) date 2026-09-21 22:09:36*
%MOMM*%
%LPD*%
G01*
G04 APERTURE LIST*
%ADD10C,0.150000*%
%ADD11C,0.101600*%
%ADD12C,0.100000*%
%ADD13C,0.120000*%
%ADD14C,0.127000*%
%ADD15C,0.254000*%
%ADD16C,0.025400*%
G04 APERTURE END LIST*
D10*
X102041667Y-120453200D02*
X102184524Y-120500819D01*
X102184524Y-120500819D02*
X102422619Y-120500819D01*
X102422619Y-120500819D02*
X102517857Y-120453200D01*
X102517857Y-120453200D02*
X102565476Y-120405580D01*
X102565476Y-120405580D02*
X102613095Y-120310342D01*
X102613095Y-120310342D02*
X102613095Y-120215104D01*
X102613095Y-120215104D02*
X102565476Y-120119866D01*
X102565476Y-120119866D02*
X102517857Y-120072247D01*
X102517857Y-120072247D02*
X102422619Y-120024628D01*
X102422619Y-120024628D02*
X102232143Y-119977009D01*
X102232143Y-119977009D02*
X102136905Y-119929390D01*
X102136905Y-119929390D02*
X102089286Y-119881771D01*
X102089286Y-119881771D02*
X102041667Y-119786533D01*
X102041667Y-119786533D02*
X102041667Y-119691295D01*
X102041667Y-119691295D02*
X102089286Y-119596057D01*
X102089286Y-119596057D02*
X102136905Y-119548438D01*
X102136905Y-119548438D02*
X102232143Y-119500819D01*
X102232143Y-119500819D02*
X102470238Y-119500819D01*
X102470238Y-119500819D02*
X102613095Y-119548438D01*
X102946429Y-119500819D02*
X103184524Y-120500819D01*
X103184524Y-120500819D02*
X103375000Y-119786533D01*
X103375000Y-119786533D02*
X103565476Y-120500819D01*
X103565476Y-120500819D02*
X103803572Y-119500819D01*
X104708333Y-120500819D02*
X104136905Y-120500819D01*
X104422619Y-120500819D02*
X104422619Y-119500819D01*
X104422619Y-119500819D02*
X104327381Y-119643676D01*
X104327381Y-119643676D02*
X104232143Y-119738914D01*
X104232143Y-119738914D02*
X104136905Y-119786533D01*
X121851667Y-120453200D02*
X121994524Y-120500819D01*
X121994524Y-120500819D02*
X122232619Y-120500819D01*
X122232619Y-120500819D02*
X122327857Y-120453200D01*
X122327857Y-120453200D02*
X122375476Y-120405580D01*
X122375476Y-120405580D02*
X122423095Y-120310342D01*
X122423095Y-120310342D02*
X122423095Y-120215104D01*
X122423095Y-120215104D02*
X122375476Y-120119866D01*
X122375476Y-120119866D02*
X122327857Y-120072247D01*
X122327857Y-120072247D02*
X122232619Y-120024628D01*
X122232619Y-120024628D02*
X122042143Y-119977009D01*
X122042143Y-119977009D02*
X121946905Y-119929390D01*
X121946905Y-119929390D02*
X121899286Y-119881771D01*
X121899286Y-119881771D02*
X121851667Y-119786533D01*
X121851667Y-119786533D02*
X121851667Y-119691295D01*
X121851667Y-119691295D02*
X121899286Y-119596057D01*
X121899286Y-119596057D02*
X121946905Y-119548438D01*
X121946905Y-119548438D02*
X122042143Y-119500819D01*
X122042143Y-119500819D02*
X122280238Y-119500819D01*
X122280238Y-119500819D02*
X122423095Y-119548438D01*
X122756429Y-119500819D02*
X122994524Y-120500819D01*
X122994524Y-120500819D02*
X123185000Y-119786533D01*
X123185000Y-119786533D02*
X123375476Y-120500819D01*
X123375476Y-120500819D02*
X123613572Y-119500819D01*
X123899286Y-119500819D02*
X124518333Y-119500819D01*
X124518333Y-119500819D02*
X124185000Y-119881771D01*
X124185000Y-119881771D02*
X124327857Y-119881771D01*
X124327857Y-119881771D02*
X124423095Y-119929390D01*
X124423095Y-119929390D02*
X124470714Y-119977009D01*
X124470714Y-119977009D02*
X124518333Y-120072247D01*
X124518333Y-120072247D02*
X124518333Y-120310342D01*
X124518333Y-120310342D02*
X124470714Y-120405580D01*
X124470714Y-120405580D02*
X124423095Y-120453200D01*
X124423095Y-120453200D02*
X124327857Y-120500819D01*
X124327857Y-120500819D02*
X124042143Y-120500819D01*
X124042143Y-120500819D02*
X123946905Y-120453200D01*
X123946905Y-120453200D02*
X123899286Y-120405580D01*
X187454819Y-114238094D02*
X186454819Y-114238094D01*
X186454819Y-114238094D02*
X186454819Y-113999999D01*
X186454819Y-113999999D02*
X186502438Y-113857142D01*
X186502438Y-113857142D02*
X186597676Y-113761904D01*
X186597676Y-113761904D02*
X186692914Y-113714285D01*
X186692914Y-113714285D02*
X186883390Y-113666666D01*
X186883390Y-113666666D02*
X187026247Y-113666666D01*
X187026247Y-113666666D02*
X187216723Y-113714285D01*
X187216723Y-113714285D02*
X187311961Y-113761904D01*
X187311961Y-113761904D02*
X187407200Y-113857142D01*
X187407200Y-113857142D02*
X187454819Y-113999999D01*
X187454819Y-113999999D02*
X187454819Y-114238094D01*
X186788152Y-112809523D02*
X187454819Y-112809523D01*
X186407200Y-113047618D02*
X187121485Y-113285713D01*
X187121485Y-113285713D02*
X187121485Y-112666666D01*
X185854819Y-124071904D02*
X184854819Y-124071904D01*
X185854819Y-123500476D02*
X185283390Y-123929047D01*
X184854819Y-123500476D02*
X185426247Y-124071904D01*
X176466667Y-91207200D02*
X176609524Y-91254819D01*
X176609524Y-91254819D02*
X176847619Y-91254819D01*
X176847619Y-91254819D02*
X176942857Y-91207200D01*
X176942857Y-91207200D02*
X176990476Y-91159580D01*
X176990476Y-91159580D02*
X177038095Y-91064342D01*
X177038095Y-91064342D02*
X177038095Y-90969104D01*
X177038095Y-90969104D02*
X176990476Y-90873866D01*
X176990476Y-90873866D02*
X176942857Y-90826247D01*
X176942857Y-90826247D02*
X176847619Y-90778628D01*
X176847619Y-90778628D02*
X176657143Y-90731009D01*
X176657143Y-90731009D02*
X176561905Y-90683390D01*
X176561905Y-90683390D02*
X176514286Y-90635771D01*
X176514286Y-90635771D02*
X176466667Y-90540533D01*
X176466667Y-90540533D02*
X176466667Y-90445295D01*
X176466667Y-90445295D02*
X176514286Y-90350057D01*
X176514286Y-90350057D02*
X176561905Y-90302438D01*
X176561905Y-90302438D02*
X176657143Y-90254819D01*
X176657143Y-90254819D02*
X176895238Y-90254819D01*
X176895238Y-90254819D02*
X177038095Y-90302438D01*
X177371429Y-90254819D02*
X177609524Y-91254819D01*
X177609524Y-91254819D02*
X177800000Y-90540533D01*
X177800000Y-90540533D02*
X177990476Y-91254819D01*
X177990476Y-91254819D02*
X178228572Y-90254819D01*
X178752381Y-90683390D02*
X178657143Y-90635771D01*
X178657143Y-90635771D02*
X178609524Y-90588152D01*
X178609524Y-90588152D02*
X178561905Y-90492914D01*
X178561905Y-90492914D02*
X178561905Y-90445295D01*
X178561905Y-90445295D02*
X178609524Y-90350057D01*
X178609524Y-90350057D02*
X178657143Y-90302438D01*
X178657143Y-90302438D02*
X178752381Y-90254819D01*
X178752381Y-90254819D02*
X178942857Y-90254819D01*
X178942857Y-90254819D02*
X179038095Y-90302438D01*
X179038095Y-90302438D02*
X179085714Y-90350057D01*
X179085714Y-90350057D02*
X179133333Y-90445295D01*
X179133333Y-90445295D02*
X179133333Y-90492914D01*
X179133333Y-90492914D02*
X179085714Y-90588152D01*
X179085714Y-90588152D02*
X179038095Y-90635771D01*
X179038095Y-90635771D02*
X178942857Y-90683390D01*
X178942857Y-90683390D02*
X178752381Y-90683390D01*
X178752381Y-90683390D02*
X178657143Y-90731009D01*
X178657143Y-90731009D02*
X178609524Y-90778628D01*
X178609524Y-90778628D02*
X178561905Y-90873866D01*
X178561905Y-90873866D02*
X178561905Y-91064342D01*
X178561905Y-91064342D02*
X178609524Y-91159580D01*
X178609524Y-91159580D02*
X178657143Y-91207200D01*
X178657143Y-91207200D02*
X178752381Y-91254819D01*
X178752381Y-91254819D02*
X178942857Y-91254819D01*
X178942857Y-91254819D02*
X179038095Y-91207200D01*
X179038095Y-91207200D02*
X179085714Y-91159580D01*
X179085714Y-91159580D02*
X179133333Y-91064342D01*
X179133333Y-91064342D02*
X179133333Y-90873866D01*
X179133333Y-90873866D02*
X179085714Y-90778628D01*
X179085714Y-90778628D02*
X179038095Y-90731009D01*
X179038095Y-90731009D02*
X178942857Y-90683390D01*
X186261905Y-136954819D02*
X186261905Y-135954819D01*
X186261905Y-135954819D02*
X186500000Y-135954819D01*
X186500000Y-135954819D02*
X186642857Y-136002438D01*
X186642857Y-136002438D02*
X186738095Y-136097676D01*
X186738095Y-136097676D02*
X186785714Y-136192914D01*
X186785714Y-136192914D02*
X186833333Y-136383390D01*
X186833333Y-136383390D02*
X186833333Y-136526247D01*
X186833333Y-136526247D02*
X186785714Y-136716723D01*
X186785714Y-136716723D02*
X186738095Y-136811961D01*
X186738095Y-136811961D02*
X186642857Y-136907200D01*
X186642857Y-136907200D02*
X186500000Y-136954819D01*
X186500000Y-136954819D02*
X186261905Y-136954819D01*
X187404762Y-136383390D02*
X187309524Y-136335771D01*
X187309524Y-136335771D02*
X187261905Y-136288152D01*
X187261905Y-136288152D02*
X187214286Y-136192914D01*
X187214286Y-136192914D02*
X187214286Y-136145295D01*
X187214286Y-136145295D02*
X187261905Y-136050057D01*
X187261905Y-136050057D02*
X187309524Y-136002438D01*
X187309524Y-136002438D02*
X187404762Y-135954819D01*
X187404762Y-135954819D02*
X187595238Y-135954819D01*
X187595238Y-135954819D02*
X187690476Y-136002438D01*
X187690476Y-136002438D02*
X187738095Y-136050057D01*
X187738095Y-136050057D02*
X187785714Y-136145295D01*
X187785714Y-136145295D02*
X187785714Y-136192914D01*
X187785714Y-136192914D02*
X187738095Y-136288152D01*
X187738095Y-136288152D02*
X187690476Y-136335771D01*
X187690476Y-136335771D02*
X187595238Y-136383390D01*
X187595238Y-136383390D02*
X187404762Y-136383390D01*
X187404762Y-136383390D02*
X187309524Y-136431009D01*
X187309524Y-136431009D02*
X187261905Y-136478628D01*
X187261905Y-136478628D02*
X187214286Y-136573866D01*
X187214286Y-136573866D02*
X187214286Y-136764342D01*
X187214286Y-136764342D02*
X187261905Y-136859580D01*
X187261905Y-136859580D02*
X187309524Y-136907200D01*
X187309524Y-136907200D02*
X187404762Y-136954819D01*
X187404762Y-136954819D02*
X187595238Y-136954819D01*
X187595238Y-136954819D02*
X187690476Y-136907200D01*
X187690476Y-136907200D02*
X187738095Y-136859580D01*
X187738095Y-136859580D02*
X187785714Y-136764342D01*
X187785714Y-136764342D02*
X187785714Y-136573866D01*
X187785714Y-136573866D02*
X187738095Y-136478628D01*
X187738095Y-136478628D02*
X187690476Y-136431009D01*
X187690476Y-136431009D02*
X187595238Y-136383390D01*
X185754819Y-134881904D02*
X184754819Y-134881904D01*
X185754819Y-134310476D02*
X185183390Y-134739047D01*
X184754819Y-134310476D02*
X185326247Y-134881904D01*
X179261905Y-136954819D02*
X179261905Y-135954819D01*
X179261905Y-135954819D02*
X179500000Y-135954819D01*
X179500000Y-135954819D02*
X179642857Y-136002438D01*
X179642857Y-136002438D02*
X179738095Y-136097676D01*
X179738095Y-136097676D02*
X179785714Y-136192914D01*
X179785714Y-136192914D02*
X179833333Y-136383390D01*
X179833333Y-136383390D02*
X179833333Y-136526247D01*
X179833333Y-136526247D02*
X179785714Y-136716723D01*
X179785714Y-136716723D02*
X179738095Y-136811961D01*
X179738095Y-136811961D02*
X179642857Y-136907200D01*
X179642857Y-136907200D02*
X179500000Y-136954819D01*
X179500000Y-136954819D02*
X179261905Y-136954819D01*
X180690476Y-135954819D02*
X180500000Y-135954819D01*
X180500000Y-135954819D02*
X180404762Y-136002438D01*
X180404762Y-136002438D02*
X180357143Y-136050057D01*
X180357143Y-136050057D02*
X180261905Y-136192914D01*
X180261905Y-136192914D02*
X180214286Y-136383390D01*
X180214286Y-136383390D02*
X180214286Y-136764342D01*
X180214286Y-136764342D02*
X180261905Y-136859580D01*
X180261905Y-136859580D02*
X180309524Y-136907200D01*
X180309524Y-136907200D02*
X180404762Y-136954819D01*
X180404762Y-136954819D02*
X180595238Y-136954819D01*
X180595238Y-136954819D02*
X180690476Y-136907200D01*
X180690476Y-136907200D02*
X180738095Y-136859580D01*
X180738095Y-136859580D02*
X180785714Y-136764342D01*
X180785714Y-136764342D02*
X180785714Y-136526247D01*
X180785714Y-136526247D02*
X180738095Y-136431009D01*
X180738095Y-136431009D02*
X180690476Y-136383390D01*
X180690476Y-136383390D02*
X180595238Y-136335771D01*
X180595238Y-136335771D02*
X180404762Y-136335771D01*
X180404762Y-136335771D02*
X180309524Y-136383390D01*
X180309524Y-136383390D02*
X180261905Y-136431009D01*
X180261905Y-136431009D02*
X180214286Y-136526247D01*
X178654819Y-134881904D02*
X177654819Y-134881904D01*
X178654819Y-134310476D02*
X178083390Y-134739047D01*
X177654819Y-134310476D02*
X178226247Y-134881904D01*
X175761905Y-136954819D02*
X175761905Y-135954819D01*
X175761905Y-135954819D02*
X176000000Y-135954819D01*
X176000000Y-135954819D02*
X176142857Y-136002438D01*
X176142857Y-136002438D02*
X176238095Y-136097676D01*
X176238095Y-136097676D02*
X176285714Y-136192914D01*
X176285714Y-136192914D02*
X176333333Y-136383390D01*
X176333333Y-136383390D02*
X176333333Y-136526247D01*
X176333333Y-136526247D02*
X176285714Y-136716723D01*
X176285714Y-136716723D02*
X176238095Y-136811961D01*
X176238095Y-136811961D02*
X176142857Y-136907200D01*
X176142857Y-136907200D02*
X176000000Y-136954819D01*
X176000000Y-136954819D02*
X175761905Y-136954819D01*
X177238095Y-135954819D02*
X176761905Y-135954819D01*
X176761905Y-135954819D02*
X176714286Y-136431009D01*
X176714286Y-136431009D02*
X176761905Y-136383390D01*
X176761905Y-136383390D02*
X176857143Y-136335771D01*
X176857143Y-136335771D02*
X177095238Y-136335771D01*
X177095238Y-136335771D02*
X177190476Y-136383390D01*
X177190476Y-136383390D02*
X177238095Y-136431009D01*
X177238095Y-136431009D02*
X177285714Y-136526247D01*
X177285714Y-136526247D02*
X177285714Y-136764342D01*
X177285714Y-136764342D02*
X177238095Y-136859580D01*
X177238095Y-136859580D02*
X177190476Y-136907200D01*
X177190476Y-136907200D02*
X177095238Y-136954819D01*
X177095238Y-136954819D02*
X176857143Y-136954819D01*
X176857143Y-136954819D02*
X176761905Y-136907200D01*
X176761905Y-136907200D02*
X176714286Y-136859580D01*
X175104819Y-134881904D02*
X174104819Y-134881904D01*
X175104819Y-134310476D02*
X174533390Y-134739047D01*
X174104819Y-134310476D02*
X174676247Y-134881904D01*
D11*
X104322666Y-83056985D02*
X104322666Y-83776652D01*
X104322666Y-83776652D02*
X104365000Y-83861318D01*
X104365000Y-83861318D02*
X104407333Y-83903652D01*
X104407333Y-83903652D02*
X104492000Y-83945985D01*
X104492000Y-83945985D02*
X104661333Y-83945985D01*
X104661333Y-83945985D02*
X104746000Y-83903652D01*
X104746000Y-83903652D02*
X104788333Y-83861318D01*
X104788333Y-83861318D02*
X104830666Y-83776652D01*
X104830666Y-83776652D02*
X104830666Y-83056985D01*
X105719666Y-83945985D02*
X105211666Y-83945985D01*
X105465666Y-83945985D02*
X105465666Y-83056985D01*
X105465666Y-83056985D02*
X105380999Y-83183985D01*
X105380999Y-83183985D02*
X105296333Y-83268652D01*
X105296333Y-83268652D02*
X105211666Y-83310985D01*
D10*
X100238095Y-79907200D02*
X100380952Y-79954819D01*
X100380952Y-79954819D02*
X100619047Y-79954819D01*
X100619047Y-79954819D02*
X100714285Y-79907200D01*
X100714285Y-79907200D02*
X100761904Y-79859580D01*
X100761904Y-79859580D02*
X100809523Y-79764342D01*
X100809523Y-79764342D02*
X100809523Y-79669104D01*
X100809523Y-79669104D02*
X100761904Y-79573866D01*
X100761904Y-79573866D02*
X100714285Y-79526247D01*
X100714285Y-79526247D02*
X100619047Y-79478628D01*
X100619047Y-79478628D02*
X100428571Y-79431009D01*
X100428571Y-79431009D02*
X100333333Y-79383390D01*
X100333333Y-79383390D02*
X100285714Y-79335771D01*
X100285714Y-79335771D02*
X100238095Y-79240533D01*
X100238095Y-79240533D02*
X100238095Y-79145295D01*
X100238095Y-79145295D02*
X100285714Y-79050057D01*
X100285714Y-79050057D02*
X100333333Y-79002438D01*
X100333333Y-79002438D02*
X100428571Y-78954819D01*
X100428571Y-78954819D02*
X100666666Y-78954819D01*
X100666666Y-78954819D02*
X100809523Y-79002438D01*
X101619047Y-79907200D02*
X101523809Y-79954819D01*
X101523809Y-79954819D02*
X101333333Y-79954819D01*
X101333333Y-79954819D02*
X101238095Y-79907200D01*
X101238095Y-79907200D02*
X101190476Y-79811961D01*
X101190476Y-79811961D02*
X101190476Y-79431009D01*
X101190476Y-79431009D02*
X101238095Y-79335771D01*
X101238095Y-79335771D02*
X101333333Y-79288152D01*
X101333333Y-79288152D02*
X101523809Y-79288152D01*
X101523809Y-79288152D02*
X101619047Y-79335771D01*
X101619047Y-79335771D02*
X101666666Y-79431009D01*
X101666666Y-79431009D02*
X101666666Y-79526247D01*
X101666666Y-79526247D02*
X101190476Y-79621485D01*
X102476190Y-79907200D02*
X102380952Y-79954819D01*
X102380952Y-79954819D02*
X102190476Y-79954819D01*
X102190476Y-79954819D02*
X102095238Y-79907200D01*
X102095238Y-79907200D02*
X102047619Y-79811961D01*
X102047619Y-79811961D02*
X102047619Y-79431009D01*
X102047619Y-79431009D02*
X102095238Y-79335771D01*
X102095238Y-79335771D02*
X102190476Y-79288152D01*
X102190476Y-79288152D02*
X102380952Y-79288152D01*
X102380952Y-79288152D02*
X102476190Y-79335771D01*
X102476190Y-79335771D02*
X102523809Y-79431009D01*
X102523809Y-79431009D02*
X102523809Y-79526247D01*
X102523809Y-79526247D02*
X102047619Y-79621485D01*
X103333333Y-79907200D02*
X103238095Y-79954819D01*
X103238095Y-79954819D02*
X103047619Y-79954819D01*
X103047619Y-79954819D02*
X102952381Y-79907200D01*
X102952381Y-79907200D02*
X102904762Y-79811961D01*
X102904762Y-79811961D02*
X102904762Y-79431009D01*
X102904762Y-79431009D02*
X102952381Y-79335771D01*
X102952381Y-79335771D02*
X103047619Y-79288152D01*
X103047619Y-79288152D02*
X103238095Y-79288152D01*
X103238095Y-79288152D02*
X103333333Y-79335771D01*
X103333333Y-79335771D02*
X103380952Y-79431009D01*
X103380952Y-79431009D02*
X103380952Y-79526247D01*
X103380952Y-79526247D02*
X102904762Y-79621485D01*
X104238095Y-79954819D02*
X104238095Y-78954819D01*
X104238095Y-79907200D02*
X104142857Y-79954819D01*
X104142857Y-79954819D02*
X103952381Y-79954819D01*
X103952381Y-79954819D02*
X103857143Y-79907200D01*
X103857143Y-79907200D02*
X103809524Y-79859580D01*
X103809524Y-79859580D02*
X103761905Y-79764342D01*
X103761905Y-79764342D02*
X103761905Y-79478628D01*
X103761905Y-79478628D02*
X103809524Y-79383390D01*
X103809524Y-79383390D02*
X103857143Y-79335771D01*
X103857143Y-79335771D02*
X103952381Y-79288152D01*
X103952381Y-79288152D02*
X104142857Y-79288152D01*
X104142857Y-79288152D02*
X104238095Y-79335771D01*
X105428572Y-79907200D02*
X105571429Y-79954819D01*
X105571429Y-79954819D02*
X105809524Y-79954819D01*
X105809524Y-79954819D02*
X105904762Y-79907200D01*
X105904762Y-79907200D02*
X105952381Y-79859580D01*
X105952381Y-79859580D02*
X106000000Y-79764342D01*
X106000000Y-79764342D02*
X106000000Y-79669104D01*
X106000000Y-79669104D02*
X105952381Y-79573866D01*
X105952381Y-79573866D02*
X105904762Y-79526247D01*
X105904762Y-79526247D02*
X105809524Y-79478628D01*
X105809524Y-79478628D02*
X105619048Y-79431009D01*
X105619048Y-79431009D02*
X105523810Y-79383390D01*
X105523810Y-79383390D02*
X105476191Y-79335771D01*
X105476191Y-79335771D02*
X105428572Y-79240533D01*
X105428572Y-79240533D02*
X105428572Y-79145295D01*
X105428572Y-79145295D02*
X105476191Y-79050057D01*
X105476191Y-79050057D02*
X105523810Y-79002438D01*
X105523810Y-79002438D02*
X105619048Y-78954819D01*
X105619048Y-78954819D02*
X105857143Y-78954819D01*
X105857143Y-78954819D02*
X106000000Y-79002438D01*
X106285715Y-79288152D02*
X106666667Y-79288152D01*
X106428572Y-78954819D02*
X106428572Y-79811961D01*
X106428572Y-79811961D02*
X106476191Y-79907200D01*
X106476191Y-79907200D02*
X106571429Y-79954819D01*
X106571429Y-79954819D02*
X106666667Y-79954819D01*
X107428572Y-79288152D02*
X107428572Y-79954819D01*
X107000001Y-79288152D02*
X107000001Y-79811961D01*
X107000001Y-79811961D02*
X107047620Y-79907200D01*
X107047620Y-79907200D02*
X107142858Y-79954819D01*
X107142858Y-79954819D02*
X107285715Y-79954819D01*
X107285715Y-79954819D02*
X107380953Y-79907200D01*
X107380953Y-79907200D02*
X107428572Y-79859580D01*
X108333334Y-79954819D02*
X108333334Y-78954819D01*
X108333334Y-79907200D02*
X108238096Y-79954819D01*
X108238096Y-79954819D02*
X108047620Y-79954819D01*
X108047620Y-79954819D02*
X107952382Y-79907200D01*
X107952382Y-79907200D02*
X107904763Y-79859580D01*
X107904763Y-79859580D02*
X107857144Y-79764342D01*
X107857144Y-79764342D02*
X107857144Y-79478628D01*
X107857144Y-79478628D02*
X107904763Y-79383390D01*
X107904763Y-79383390D02*
X107952382Y-79335771D01*
X107952382Y-79335771D02*
X108047620Y-79288152D01*
X108047620Y-79288152D02*
X108238096Y-79288152D01*
X108238096Y-79288152D02*
X108333334Y-79335771D01*
X108809525Y-79954819D02*
X108809525Y-79288152D01*
X108809525Y-78954819D02*
X108761906Y-79002438D01*
X108761906Y-79002438D02*
X108809525Y-79050057D01*
X108809525Y-79050057D02*
X108857144Y-79002438D01*
X108857144Y-79002438D02*
X108809525Y-78954819D01*
X108809525Y-78954819D02*
X108809525Y-79050057D01*
X109428572Y-79954819D02*
X109333334Y-79907200D01*
X109333334Y-79907200D02*
X109285715Y-79859580D01*
X109285715Y-79859580D02*
X109238096Y-79764342D01*
X109238096Y-79764342D02*
X109238096Y-79478628D01*
X109238096Y-79478628D02*
X109285715Y-79383390D01*
X109285715Y-79383390D02*
X109333334Y-79335771D01*
X109333334Y-79335771D02*
X109428572Y-79288152D01*
X109428572Y-79288152D02*
X109571429Y-79288152D01*
X109571429Y-79288152D02*
X109666667Y-79335771D01*
X109666667Y-79335771D02*
X109714286Y-79383390D01*
X109714286Y-79383390D02*
X109761905Y-79478628D01*
X109761905Y-79478628D02*
X109761905Y-79764342D01*
X109761905Y-79764342D02*
X109714286Y-79859580D01*
X109714286Y-79859580D02*
X109666667Y-79907200D01*
X109666667Y-79907200D02*
X109571429Y-79954819D01*
X109571429Y-79954819D02*
X109428572Y-79954819D01*
X103476191Y-80954819D02*
X104142857Y-81954819D01*
X104142857Y-80954819D02*
X103476191Y-81954819D01*
X104523810Y-81954819D02*
X104523810Y-80954819D01*
X104952381Y-81669104D02*
X105428571Y-81669104D01*
X104857143Y-81954819D02*
X105190476Y-80954819D01*
X105190476Y-80954819D02*
X105523809Y-81954819D01*
X106047619Y-80954819D02*
X106238095Y-80954819D01*
X106238095Y-80954819D02*
X106333333Y-81002438D01*
X106333333Y-81002438D02*
X106428571Y-81097676D01*
X106428571Y-81097676D02*
X106476190Y-81288152D01*
X106476190Y-81288152D02*
X106476190Y-81621485D01*
X106476190Y-81621485D02*
X106428571Y-81811961D01*
X106428571Y-81811961D02*
X106333333Y-81907200D01*
X106333333Y-81907200D02*
X106238095Y-81954819D01*
X106238095Y-81954819D02*
X106047619Y-81954819D01*
X106047619Y-81954819D02*
X105952381Y-81907200D01*
X105952381Y-81907200D02*
X105857143Y-81811961D01*
X105857143Y-81811961D02*
X105809524Y-81621485D01*
X105809524Y-81621485D02*
X105809524Y-81288152D01*
X105809524Y-81288152D02*
X105857143Y-81097676D01*
X105857143Y-81097676D02*
X105952381Y-81002438D01*
X105952381Y-81002438D02*
X106047619Y-80954819D01*
X176954819Y-114238094D02*
X175954819Y-114238094D01*
X175954819Y-114238094D02*
X175954819Y-113999999D01*
X175954819Y-113999999D02*
X176002438Y-113857142D01*
X176002438Y-113857142D02*
X176097676Y-113761904D01*
X176097676Y-113761904D02*
X176192914Y-113714285D01*
X176192914Y-113714285D02*
X176383390Y-113666666D01*
X176383390Y-113666666D02*
X176526247Y-113666666D01*
X176526247Y-113666666D02*
X176716723Y-113714285D01*
X176716723Y-113714285D02*
X176811961Y-113761904D01*
X176811961Y-113761904D02*
X176907200Y-113857142D01*
X176907200Y-113857142D02*
X176954819Y-113999999D01*
X176954819Y-113999999D02*
X176954819Y-114238094D01*
X176954819Y-112714285D02*
X176954819Y-113285713D01*
X176954819Y-112999999D02*
X175954819Y-112999999D01*
X175954819Y-112999999D02*
X176097676Y-113095237D01*
X176097676Y-113095237D02*
X176192914Y-113190475D01*
X176192914Y-113190475D02*
X176240533Y-113285713D01*
X175204819Y-124071904D02*
X174204819Y-124071904D01*
X175204819Y-123500476D02*
X174633390Y-123929047D01*
X174204819Y-123500476D02*
X174776247Y-124071904D01*
X182761905Y-136954819D02*
X182761905Y-135954819D01*
X182761905Y-135954819D02*
X183000000Y-135954819D01*
X183000000Y-135954819D02*
X183142857Y-136002438D01*
X183142857Y-136002438D02*
X183238095Y-136097676D01*
X183238095Y-136097676D02*
X183285714Y-136192914D01*
X183285714Y-136192914D02*
X183333333Y-136383390D01*
X183333333Y-136383390D02*
X183333333Y-136526247D01*
X183333333Y-136526247D02*
X183285714Y-136716723D01*
X183285714Y-136716723D02*
X183238095Y-136811961D01*
X183238095Y-136811961D02*
X183142857Y-136907200D01*
X183142857Y-136907200D02*
X183000000Y-136954819D01*
X183000000Y-136954819D02*
X182761905Y-136954819D01*
X183666667Y-135954819D02*
X184333333Y-135954819D01*
X184333333Y-135954819D02*
X183904762Y-136954819D01*
X182204819Y-134881904D02*
X181204819Y-134881904D01*
X182204819Y-134310476D02*
X181633390Y-134739047D01*
X181204819Y-134310476D02*
X181776247Y-134881904D01*
X97166666Y-103804819D02*
X96833333Y-103328628D01*
X96595238Y-103804819D02*
X96595238Y-102804819D01*
X96595238Y-102804819D02*
X96976190Y-102804819D01*
X96976190Y-102804819D02*
X97071428Y-102852438D01*
X97071428Y-102852438D02*
X97119047Y-102900057D01*
X97119047Y-102900057D02*
X97166666Y-102995295D01*
X97166666Y-102995295D02*
X97166666Y-103138152D01*
X97166666Y-103138152D02*
X97119047Y-103233390D01*
X97119047Y-103233390D02*
X97071428Y-103281009D01*
X97071428Y-103281009D02*
X96976190Y-103328628D01*
X96976190Y-103328628D02*
X96595238Y-103328628D01*
X97595238Y-103281009D02*
X97928571Y-103281009D01*
X98071428Y-103804819D02*
X97595238Y-103804819D01*
X97595238Y-103804819D02*
X97595238Y-102804819D01*
X97595238Y-102804819D02*
X98071428Y-102804819D01*
X98833333Y-103281009D02*
X98500000Y-103281009D01*
X98500000Y-103804819D02*
X98500000Y-102804819D01*
X98500000Y-102804819D02*
X98976190Y-102804819D01*
X99500000Y-102804819D02*
X99500000Y-103042914D01*
X99261905Y-102947676D02*
X99500000Y-103042914D01*
X99500000Y-103042914D02*
X99738095Y-102947676D01*
X99357143Y-103233390D02*
X99500000Y-103042914D01*
X99500000Y-103042914D02*
X99642857Y-103233390D01*
X100261905Y-102804819D02*
X100261905Y-103042914D01*
X100023810Y-102947676D02*
X100261905Y-103042914D01*
X100261905Y-103042914D02*
X100500000Y-102947676D01*
X100119048Y-103233390D02*
X100261905Y-103042914D01*
X100261905Y-103042914D02*
X100404762Y-103233390D01*
X130961667Y-100953200D02*
X131104524Y-101000819D01*
X131104524Y-101000819D02*
X131342619Y-101000819D01*
X131342619Y-101000819D02*
X131437857Y-100953200D01*
X131437857Y-100953200D02*
X131485476Y-100905580D01*
X131485476Y-100905580D02*
X131533095Y-100810342D01*
X131533095Y-100810342D02*
X131533095Y-100715104D01*
X131533095Y-100715104D02*
X131485476Y-100619866D01*
X131485476Y-100619866D02*
X131437857Y-100572247D01*
X131437857Y-100572247D02*
X131342619Y-100524628D01*
X131342619Y-100524628D02*
X131152143Y-100477009D01*
X131152143Y-100477009D02*
X131056905Y-100429390D01*
X131056905Y-100429390D02*
X131009286Y-100381771D01*
X131009286Y-100381771D02*
X130961667Y-100286533D01*
X130961667Y-100286533D02*
X130961667Y-100191295D01*
X130961667Y-100191295D02*
X131009286Y-100096057D01*
X131009286Y-100096057D02*
X131056905Y-100048438D01*
X131056905Y-100048438D02*
X131152143Y-100000819D01*
X131152143Y-100000819D02*
X131390238Y-100000819D01*
X131390238Y-100000819D02*
X131533095Y-100048438D01*
X131866429Y-100000819D02*
X132104524Y-101000819D01*
X132104524Y-101000819D02*
X132295000Y-100286533D01*
X132295000Y-100286533D02*
X132485476Y-101000819D01*
X132485476Y-101000819D02*
X132723572Y-100000819D01*
X133533095Y-100334152D02*
X133533095Y-101000819D01*
X133295000Y-99953200D02*
X133056905Y-100667485D01*
X133056905Y-100667485D02*
X133675952Y-100667485D01*
X161041667Y-120453200D02*
X161184524Y-120500819D01*
X161184524Y-120500819D02*
X161422619Y-120500819D01*
X161422619Y-120500819D02*
X161517857Y-120453200D01*
X161517857Y-120453200D02*
X161565476Y-120405580D01*
X161565476Y-120405580D02*
X161613095Y-120310342D01*
X161613095Y-120310342D02*
X161613095Y-120215104D01*
X161613095Y-120215104D02*
X161565476Y-120119866D01*
X161565476Y-120119866D02*
X161517857Y-120072247D01*
X161517857Y-120072247D02*
X161422619Y-120024628D01*
X161422619Y-120024628D02*
X161232143Y-119977009D01*
X161232143Y-119977009D02*
X161136905Y-119929390D01*
X161136905Y-119929390D02*
X161089286Y-119881771D01*
X161089286Y-119881771D02*
X161041667Y-119786533D01*
X161041667Y-119786533D02*
X161041667Y-119691295D01*
X161041667Y-119691295D02*
X161089286Y-119596057D01*
X161089286Y-119596057D02*
X161136905Y-119548438D01*
X161136905Y-119548438D02*
X161232143Y-119500819D01*
X161232143Y-119500819D02*
X161470238Y-119500819D01*
X161470238Y-119500819D02*
X161613095Y-119548438D01*
X161946429Y-119500819D02*
X162184524Y-120500819D01*
X162184524Y-120500819D02*
X162375000Y-119786533D01*
X162375000Y-119786533D02*
X162565476Y-120500819D01*
X162565476Y-120500819D02*
X162803572Y-119500819D01*
X163089286Y-119500819D02*
X163755952Y-119500819D01*
X163755952Y-119500819D02*
X163327381Y-120500819D01*
X150461667Y-100953200D02*
X150604524Y-101000819D01*
X150604524Y-101000819D02*
X150842619Y-101000819D01*
X150842619Y-101000819D02*
X150937857Y-100953200D01*
X150937857Y-100953200D02*
X150985476Y-100905580D01*
X150985476Y-100905580D02*
X151033095Y-100810342D01*
X151033095Y-100810342D02*
X151033095Y-100715104D01*
X151033095Y-100715104D02*
X150985476Y-100619866D01*
X150985476Y-100619866D02*
X150937857Y-100572247D01*
X150937857Y-100572247D02*
X150842619Y-100524628D01*
X150842619Y-100524628D02*
X150652143Y-100477009D01*
X150652143Y-100477009D02*
X150556905Y-100429390D01*
X150556905Y-100429390D02*
X150509286Y-100381771D01*
X150509286Y-100381771D02*
X150461667Y-100286533D01*
X150461667Y-100286533D02*
X150461667Y-100191295D01*
X150461667Y-100191295D02*
X150509286Y-100096057D01*
X150509286Y-100096057D02*
X150556905Y-100048438D01*
X150556905Y-100048438D02*
X150652143Y-100000819D01*
X150652143Y-100000819D02*
X150890238Y-100000819D01*
X150890238Y-100000819D02*
X151033095Y-100048438D01*
X151366429Y-100000819D02*
X151604524Y-101000819D01*
X151604524Y-101000819D02*
X151795000Y-100286533D01*
X151795000Y-100286533D02*
X151985476Y-101000819D01*
X151985476Y-101000819D02*
X152223572Y-100000819D01*
X153033095Y-100000819D02*
X152842619Y-100000819D01*
X152842619Y-100000819D02*
X152747381Y-100048438D01*
X152747381Y-100048438D02*
X152699762Y-100096057D01*
X152699762Y-100096057D02*
X152604524Y-100238914D01*
X152604524Y-100238914D02*
X152556905Y-100429390D01*
X152556905Y-100429390D02*
X152556905Y-100810342D01*
X152556905Y-100810342D02*
X152604524Y-100905580D01*
X152604524Y-100905580D02*
X152652143Y-100953200D01*
X152652143Y-100953200D02*
X152747381Y-101000819D01*
X152747381Y-101000819D02*
X152937857Y-101000819D01*
X152937857Y-101000819D02*
X153033095Y-100953200D01*
X153033095Y-100953200D02*
X153080714Y-100905580D01*
X153080714Y-100905580D02*
X153128333Y-100810342D01*
X153128333Y-100810342D02*
X153128333Y-100572247D01*
X153128333Y-100572247D02*
X153080714Y-100477009D01*
X153080714Y-100477009D02*
X153033095Y-100429390D01*
X153033095Y-100429390D02*
X152937857Y-100381771D01*
X152937857Y-100381771D02*
X152747381Y-100381771D01*
X152747381Y-100381771D02*
X152652143Y-100429390D01*
X152652143Y-100429390D02*
X152604524Y-100477009D01*
X152604524Y-100477009D02*
X152556905Y-100572247D01*
X180454819Y-114238094D02*
X179454819Y-114238094D01*
X179454819Y-114238094D02*
X179454819Y-113999999D01*
X179454819Y-113999999D02*
X179502438Y-113857142D01*
X179502438Y-113857142D02*
X179597676Y-113761904D01*
X179597676Y-113761904D02*
X179692914Y-113714285D01*
X179692914Y-113714285D02*
X179883390Y-113666666D01*
X179883390Y-113666666D02*
X180026247Y-113666666D01*
X180026247Y-113666666D02*
X180216723Y-113714285D01*
X180216723Y-113714285D02*
X180311961Y-113761904D01*
X180311961Y-113761904D02*
X180407200Y-113857142D01*
X180407200Y-113857142D02*
X180454819Y-113999999D01*
X180454819Y-113999999D02*
X180454819Y-114238094D01*
X179550057Y-113285713D02*
X179502438Y-113238094D01*
X179502438Y-113238094D02*
X179454819Y-113142856D01*
X179454819Y-113142856D02*
X179454819Y-112904761D01*
X179454819Y-112904761D02*
X179502438Y-112809523D01*
X179502438Y-112809523D02*
X179550057Y-112761904D01*
X179550057Y-112761904D02*
X179645295Y-112714285D01*
X179645295Y-112714285D02*
X179740533Y-112714285D01*
X179740533Y-112714285D02*
X179883390Y-112761904D01*
X179883390Y-112761904D02*
X180454819Y-113333332D01*
X180454819Y-113333332D02*
X180454819Y-112714285D01*
X178754819Y-124071904D02*
X177754819Y-124071904D01*
X178754819Y-123500476D02*
X178183390Y-123929047D01*
X177754819Y-123500476D02*
X178326247Y-124071904D01*
X165166666Y-97804819D02*
X164833333Y-97328628D01*
X164595238Y-97804819D02*
X164595238Y-96804819D01*
X164595238Y-96804819D02*
X164976190Y-96804819D01*
X164976190Y-96804819D02*
X165071428Y-96852438D01*
X165071428Y-96852438D02*
X165119047Y-96900057D01*
X165119047Y-96900057D02*
X165166666Y-96995295D01*
X165166666Y-96995295D02*
X165166666Y-97138152D01*
X165166666Y-97138152D02*
X165119047Y-97233390D01*
X165119047Y-97233390D02*
X165071428Y-97281009D01*
X165071428Y-97281009D02*
X164976190Y-97328628D01*
X164976190Y-97328628D02*
X164595238Y-97328628D01*
X165595238Y-97281009D02*
X165928571Y-97281009D01*
X166071428Y-97804819D02*
X165595238Y-97804819D01*
X165595238Y-97804819D02*
X165595238Y-96804819D01*
X165595238Y-96804819D02*
X166071428Y-96804819D01*
X166833333Y-97281009D02*
X166500000Y-97281009D01*
X166500000Y-97804819D02*
X166500000Y-96804819D01*
X166500000Y-96804819D02*
X166976190Y-96804819D01*
X167500000Y-96804819D02*
X167500000Y-97042914D01*
X167261905Y-96947676D02*
X167500000Y-97042914D01*
X167500000Y-97042914D02*
X167738095Y-96947676D01*
X167357143Y-97233390D02*
X167500000Y-97042914D01*
X167500000Y-97042914D02*
X167642857Y-97233390D01*
X168261905Y-96804819D02*
X168261905Y-97042914D01*
X168023810Y-96947676D02*
X168261905Y-97042914D01*
X168261905Y-97042914D02*
X168500000Y-96947676D01*
X168119048Y-97233390D02*
X168261905Y-97042914D01*
X168261905Y-97042914D02*
X168404762Y-97233390D01*
X141351667Y-120493200D02*
X141494524Y-120540819D01*
X141494524Y-120540819D02*
X141732619Y-120540819D01*
X141732619Y-120540819D02*
X141827857Y-120493200D01*
X141827857Y-120493200D02*
X141875476Y-120445580D01*
X141875476Y-120445580D02*
X141923095Y-120350342D01*
X141923095Y-120350342D02*
X141923095Y-120255104D01*
X141923095Y-120255104D02*
X141875476Y-120159866D01*
X141875476Y-120159866D02*
X141827857Y-120112247D01*
X141827857Y-120112247D02*
X141732619Y-120064628D01*
X141732619Y-120064628D02*
X141542143Y-120017009D01*
X141542143Y-120017009D02*
X141446905Y-119969390D01*
X141446905Y-119969390D02*
X141399286Y-119921771D01*
X141399286Y-119921771D02*
X141351667Y-119826533D01*
X141351667Y-119826533D02*
X141351667Y-119731295D01*
X141351667Y-119731295D02*
X141399286Y-119636057D01*
X141399286Y-119636057D02*
X141446905Y-119588438D01*
X141446905Y-119588438D02*
X141542143Y-119540819D01*
X141542143Y-119540819D02*
X141780238Y-119540819D01*
X141780238Y-119540819D02*
X141923095Y-119588438D01*
X142256429Y-119540819D02*
X142494524Y-120540819D01*
X142494524Y-120540819D02*
X142685000Y-119826533D01*
X142685000Y-119826533D02*
X142875476Y-120540819D01*
X142875476Y-120540819D02*
X143113572Y-119540819D01*
X143970714Y-119540819D02*
X143494524Y-119540819D01*
X143494524Y-119540819D02*
X143446905Y-120017009D01*
X143446905Y-120017009D02*
X143494524Y-119969390D01*
X143494524Y-119969390D02*
X143589762Y-119921771D01*
X143589762Y-119921771D02*
X143827857Y-119921771D01*
X143827857Y-119921771D02*
X143923095Y-119969390D01*
X143923095Y-119969390D02*
X143970714Y-120017009D01*
X143970714Y-120017009D02*
X144018333Y-120112247D01*
X144018333Y-120112247D02*
X144018333Y-120350342D01*
X144018333Y-120350342D02*
X143970714Y-120445580D01*
X143970714Y-120445580D02*
X143923095Y-120493200D01*
X143923095Y-120493200D02*
X143827857Y-120540819D01*
X143827857Y-120540819D02*
X143589762Y-120540819D01*
X143589762Y-120540819D02*
X143494524Y-120493200D01*
X143494524Y-120493200D02*
X143446905Y-120445580D01*
X111461667Y-100953200D02*
X111604524Y-101000819D01*
X111604524Y-101000819D02*
X111842619Y-101000819D01*
X111842619Y-101000819D02*
X111937857Y-100953200D01*
X111937857Y-100953200D02*
X111985476Y-100905580D01*
X111985476Y-100905580D02*
X112033095Y-100810342D01*
X112033095Y-100810342D02*
X112033095Y-100715104D01*
X112033095Y-100715104D02*
X111985476Y-100619866D01*
X111985476Y-100619866D02*
X111937857Y-100572247D01*
X111937857Y-100572247D02*
X111842619Y-100524628D01*
X111842619Y-100524628D02*
X111652143Y-100477009D01*
X111652143Y-100477009D02*
X111556905Y-100429390D01*
X111556905Y-100429390D02*
X111509286Y-100381771D01*
X111509286Y-100381771D02*
X111461667Y-100286533D01*
X111461667Y-100286533D02*
X111461667Y-100191295D01*
X111461667Y-100191295D02*
X111509286Y-100096057D01*
X111509286Y-100096057D02*
X111556905Y-100048438D01*
X111556905Y-100048438D02*
X111652143Y-100000819D01*
X111652143Y-100000819D02*
X111890238Y-100000819D01*
X111890238Y-100000819D02*
X112033095Y-100048438D01*
X112366429Y-100000819D02*
X112604524Y-101000819D01*
X112604524Y-101000819D02*
X112795000Y-100286533D01*
X112795000Y-100286533D02*
X112985476Y-101000819D01*
X112985476Y-101000819D02*
X113223572Y-100000819D01*
X113556905Y-100096057D02*
X113604524Y-100048438D01*
X113604524Y-100048438D02*
X113699762Y-100000819D01*
X113699762Y-100000819D02*
X113937857Y-100000819D01*
X113937857Y-100000819D02*
X114033095Y-100048438D01*
X114033095Y-100048438D02*
X114080714Y-100096057D01*
X114080714Y-100096057D02*
X114128333Y-100191295D01*
X114128333Y-100191295D02*
X114128333Y-100286533D01*
X114128333Y-100286533D02*
X114080714Y-100429390D01*
X114080714Y-100429390D02*
X113509286Y-101000819D01*
X113509286Y-101000819D02*
X114128333Y-101000819D01*
D12*
X181946741Y-76872419D02*
X181851503Y-76824800D01*
X181851503Y-76824800D02*
X181803884Y-76729561D01*
X181803884Y-76729561D02*
X181803884Y-75872419D01*
X182327694Y-76872419D02*
X182327694Y-76205752D01*
X182327694Y-75872419D02*
X182280075Y-75920038D01*
X182280075Y-75920038D02*
X182327694Y-75967657D01*
X182327694Y-75967657D02*
X182375313Y-75920038D01*
X182375313Y-75920038D02*
X182327694Y-75872419D01*
X182327694Y-75872419D02*
X182327694Y-75967657D01*
X182708646Y-76205752D02*
X182946741Y-76872419D01*
X182946741Y-76872419D02*
X183184836Y-76205752D01*
X183946741Y-76824800D02*
X183851503Y-76872419D01*
X183851503Y-76872419D02*
X183661027Y-76872419D01*
X183661027Y-76872419D02*
X183565789Y-76824800D01*
X183565789Y-76824800D02*
X183518170Y-76729561D01*
X183518170Y-76729561D02*
X183518170Y-76348609D01*
X183518170Y-76348609D02*
X183565789Y-76253371D01*
X183565789Y-76253371D02*
X183661027Y-76205752D01*
X183661027Y-76205752D02*
X183851503Y-76205752D01*
X183851503Y-76205752D02*
X183946741Y-76253371D01*
X183946741Y-76253371D02*
X183994360Y-76348609D01*
X183994360Y-76348609D02*
X183994360Y-76443847D01*
X183994360Y-76443847D02*
X183518170Y-76539085D01*
X181803884Y-78372419D02*
X181803884Y-77372419D01*
X181803884Y-77753371D02*
X181899122Y-77705752D01*
X181899122Y-77705752D02*
X182089598Y-77705752D01*
X182089598Y-77705752D02*
X182184836Y-77753371D01*
X182184836Y-77753371D02*
X182232455Y-77800990D01*
X182232455Y-77800990D02*
X182280074Y-77896228D01*
X182280074Y-77896228D02*
X182280074Y-78181942D01*
X182280074Y-78181942D02*
X182232455Y-78277180D01*
X182232455Y-78277180D02*
X182184836Y-78324800D01*
X182184836Y-78324800D02*
X182089598Y-78372419D01*
X182089598Y-78372419D02*
X181899122Y-78372419D01*
X181899122Y-78372419D02*
X181803884Y-78324800D01*
X182613408Y-77705752D02*
X182851503Y-78372419D01*
X183089598Y-77705752D02*
X182851503Y-78372419D01*
X182851503Y-78372419D02*
X182756265Y-78610514D01*
X182756265Y-78610514D02*
X182708646Y-78658133D01*
X182708646Y-78658133D02*
X182613408Y-78705752D01*
X183613408Y-78372419D02*
X183518170Y-78324800D01*
X183518170Y-78324800D02*
X183470551Y-78277180D01*
X183470551Y-78277180D02*
X183422932Y-78181942D01*
X183422932Y-78181942D02*
X183422932Y-77896228D01*
X183422932Y-77896228D02*
X183470551Y-77800990D01*
X183470551Y-77800990D02*
X183518170Y-77753371D01*
X183518170Y-77753371D02*
X183613408Y-77705752D01*
X183613408Y-77705752D02*
X183756265Y-77705752D01*
X183756265Y-77705752D02*
X183851503Y-77753371D01*
X183851503Y-77753371D02*
X183899122Y-77800990D01*
X183899122Y-77800990D02*
X183946741Y-77896228D01*
X183946741Y-77896228D02*
X183946741Y-78181942D01*
X183946741Y-78181942D02*
X183899122Y-78277180D01*
X183899122Y-78277180D02*
X183851503Y-78324800D01*
X183851503Y-78324800D02*
X183756265Y-78372419D01*
X183756265Y-78372419D02*
X183613408Y-78372419D01*
X184375313Y-77705752D02*
X184375313Y-78372419D01*
X184375313Y-77800990D02*
X184422932Y-77753371D01*
X184422932Y-77753371D02*
X184518170Y-77705752D01*
X184518170Y-77705752D02*
X184661027Y-77705752D01*
X184661027Y-77705752D02*
X184756265Y-77753371D01*
X184756265Y-77753371D02*
X184803884Y-77848609D01*
X184803884Y-77848609D02*
X184803884Y-78372419D01*
X185708646Y-78372419D02*
X185708646Y-77372419D01*
X185708646Y-78324800D02*
X185613408Y-78372419D01*
X185613408Y-78372419D02*
X185422932Y-78372419D01*
X185422932Y-78372419D02*
X185327694Y-78324800D01*
X185327694Y-78324800D02*
X185280075Y-78277180D01*
X185280075Y-78277180D02*
X185232456Y-78181942D01*
X185232456Y-78181942D02*
X185232456Y-77896228D01*
X185232456Y-77896228D02*
X185280075Y-77800990D01*
X185280075Y-77800990D02*
X185327694Y-77753371D01*
X185327694Y-77753371D02*
X185422932Y-77705752D01*
X185422932Y-77705752D02*
X185613408Y-77705752D01*
X185613408Y-77705752D02*
X185708646Y-77753371D01*
X181803884Y-79872419D02*
X181803884Y-78872419D01*
X181803884Y-79253371D02*
X181899122Y-79205752D01*
X181899122Y-79205752D02*
X182089598Y-79205752D01*
X182089598Y-79205752D02*
X182184836Y-79253371D01*
X182184836Y-79253371D02*
X182232455Y-79300990D01*
X182232455Y-79300990D02*
X182280074Y-79396228D01*
X182280074Y-79396228D02*
X182280074Y-79681942D01*
X182280074Y-79681942D02*
X182232455Y-79777180D01*
X182232455Y-79777180D02*
X182184836Y-79824800D01*
X182184836Y-79824800D02*
X182089598Y-79872419D01*
X182089598Y-79872419D02*
X181899122Y-79872419D01*
X181899122Y-79872419D02*
X181803884Y-79824800D01*
X183089598Y-79824800D02*
X182994360Y-79872419D01*
X182994360Y-79872419D02*
X182803884Y-79872419D01*
X182803884Y-79872419D02*
X182708646Y-79824800D01*
X182708646Y-79824800D02*
X182661027Y-79729561D01*
X182661027Y-79729561D02*
X182661027Y-79348609D01*
X182661027Y-79348609D02*
X182708646Y-79253371D01*
X182708646Y-79253371D02*
X182803884Y-79205752D01*
X182803884Y-79205752D02*
X182994360Y-79205752D01*
X182994360Y-79205752D02*
X183089598Y-79253371D01*
X183089598Y-79253371D02*
X183137217Y-79348609D01*
X183137217Y-79348609D02*
X183137217Y-79443847D01*
X183137217Y-79443847D02*
X182661027Y-79539085D01*
X183708646Y-79872419D02*
X183613408Y-79824800D01*
X183613408Y-79824800D02*
X183565789Y-79729561D01*
X183565789Y-79729561D02*
X183565789Y-78872419D01*
X184089599Y-79872419D02*
X184089599Y-79205752D01*
X184089599Y-78872419D02*
X184041980Y-78920038D01*
X184041980Y-78920038D02*
X184089599Y-78967657D01*
X184089599Y-78967657D02*
X184137218Y-78920038D01*
X184137218Y-78920038D02*
X184089599Y-78872419D01*
X184089599Y-78872419D02*
X184089599Y-78967657D01*
X184946741Y-79824800D02*
X184851503Y-79872419D01*
X184851503Y-79872419D02*
X184661027Y-79872419D01*
X184661027Y-79872419D02*
X184565789Y-79824800D01*
X184565789Y-79824800D02*
X184518170Y-79729561D01*
X184518170Y-79729561D02*
X184518170Y-79348609D01*
X184518170Y-79348609D02*
X184565789Y-79253371D01*
X184565789Y-79253371D02*
X184661027Y-79205752D01*
X184661027Y-79205752D02*
X184851503Y-79205752D01*
X184851503Y-79205752D02*
X184946741Y-79253371D01*
X184946741Y-79253371D02*
X184994360Y-79348609D01*
X184994360Y-79348609D02*
X184994360Y-79443847D01*
X184994360Y-79443847D02*
X184518170Y-79539085D01*
X185280075Y-79205752D02*
X185661027Y-79205752D01*
X185422932Y-79872419D02*
X185422932Y-79015276D01*
X185422932Y-79015276D02*
X185470551Y-78920038D01*
X185470551Y-78920038D02*
X185565789Y-78872419D01*
X185565789Y-78872419D02*
X185661027Y-78872419D01*
X181803884Y-81277180D02*
X181851503Y-81324800D01*
X181851503Y-81324800D02*
X181803884Y-81372419D01*
X181803884Y-81372419D02*
X181756265Y-81324800D01*
X181756265Y-81324800D02*
X181803884Y-81277180D01*
X181803884Y-81277180D02*
X181803884Y-81372419D01*
X181803884Y-80753371D02*
X181851503Y-80800990D01*
X181851503Y-80800990D02*
X181803884Y-80848609D01*
X181803884Y-80848609D02*
X181756265Y-80800990D01*
X181756265Y-80800990D02*
X181803884Y-80753371D01*
X181803884Y-80753371D02*
X181803884Y-80848609D01*
X182184836Y-80372419D02*
X182803883Y-80372419D01*
X182803883Y-80372419D02*
X182470550Y-80753371D01*
X182470550Y-80753371D02*
X182613407Y-80753371D01*
X182613407Y-80753371D02*
X182708645Y-80800990D01*
X182708645Y-80800990D02*
X182756264Y-80848609D01*
X182756264Y-80848609D02*
X182803883Y-80943847D01*
X182803883Y-80943847D02*
X182803883Y-81181942D01*
X182803883Y-81181942D02*
X182756264Y-81277180D01*
X182756264Y-81277180D02*
X182708645Y-81324800D01*
X182708645Y-81324800D02*
X182613407Y-81372419D01*
X182613407Y-81372419D02*
X182327693Y-81372419D01*
X182327693Y-81372419D02*
X182232455Y-81324800D01*
X182232455Y-81324800D02*
X182184836Y-81277180D01*
D10*
X124041666Y-71374819D02*
X124041666Y-72089104D01*
X124041666Y-72089104D02*
X123994047Y-72231961D01*
X123994047Y-72231961D02*
X123898809Y-72327200D01*
X123898809Y-72327200D02*
X123755952Y-72374819D01*
X123755952Y-72374819D02*
X123660714Y-72374819D01*
X125041666Y-72374819D02*
X124470238Y-72374819D01*
X124755952Y-72374819D02*
X124755952Y-71374819D01*
X124755952Y-71374819D02*
X124660714Y-71517676D01*
X124660714Y-71517676D02*
X124565476Y-71612914D01*
X124565476Y-71612914D02*
X124470238Y-71660533D01*
X183954819Y-114238094D02*
X182954819Y-114238094D01*
X182954819Y-114238094D02*
X182954819Y-113999999D01*
X182954819Y-113999999D02*
X183002438Y-113857142D01*
X183002438Y-113857142D02*
X183097676Y-113761904D01*
X183097676Y-113761904D02*
X183192914Y-113714285D01*
X183192914Y-113714285D02*
X183383390Y-113666666D01*
X183383390Y-113666666D02*
X183526247Y-113666666D01*
X183526247Y-113666666D02*
X183716723Y-113714285D01*
X183716723Y-113714285D02*
X183811961Y-113761904D01*
X183811961Y-113761904D02*
X183907200Y-113857142D01*
X183907200Y-113857142D02*
X183954819Y-113999999D01*
X183954819Y-113999999D02*
X183954819Y-114238094D01*
X182954819Y-113333332D02*
X182954819Y-112714285D01*
X182954819Y-112714285D02*
X183335771Y-113047618D01*
X183335771Y-113047618D02*
X183335771Y-112904761D01*
X183335771Y-112904761D02*
X183383390Y-112809523D01*
X183383390Y-112809523D02*
X183431009Y-112761904D01*
X183431009Y-112761904D02*
X183526247Y-112714285D01*
X183526247Y-112714285D02*
X183764342Y-112714285D01*
X183764342Y-112714285D02*
X183859580Y-112761904D01*
X183859580Y-112761904D02*
X183907200Y-112809523D01*
X183907200Y-112809523D02*
X183954819Y-112904761D01*
X183954819Y-112904761D02*
X183954819Y-113190475D01*
X183954819Y-113190475D02*
X183907200Y-113285713D01*
X183907200Y-113285713D02*
X183859580Y-113333332D01*
X182304819Y-124071904D02*
X181304819Y-124071904D01*
X182304819Y-123500476D02*
X181733390Y-123929047D01*
X181304819Y-123500476D02*
X181876247Y-124071904D01*
%TO.C,SW1*%
D13*
X96390000Y-120935000D02*
X110360000Y-120935000D01*
X96390000Y-134905000D02*
X96390000Y-120935000D01*
X110360000Y-120935000D02*
X110360000Y-134905000D01*
X110360000Y-134905000D02*
X96390000Y-134905000D01*
%TO.C,SW3*%
X116200000Y-120935000D02*
X130170000Y-120935000D01*
X116200000Y-134905000D02*
X116200000Y-120935000D01*
X130170000Y-120935000D02*
X130170000Y-134905000D01*
X130170000Y-134905000D02*
X116200000Y-134905000D01*
%TO.C,D4*%
X186080000Y-121280000D02*
X188320000Y-121280000D01*
X186080000Y-121400000D02*
X188320000Y-121400000D01*
X186080000Y-121520000D02*
X188320000Y-121520000D01*
X187200000Y-117230000D02*
X187200000Y-117880000D01*
X187200000Y-122770000D02*
X187200000Y-122120000D01*
X186080000Y-117880000D02*
X188320000Y-117880000D01*
X188320000Y-122120000D01*
X186080000Y-122120000D01*
X186080000Y-117880000D01*
%TO.C,SW8*%
X174700000Y-93900000D02*
X175300000Y-93900000D01*
X175000000Y-94200000D02*
X174700000Y-93900000D01*
X175300000Y-93900000D02*
X175000000Y-94200000D01*
X176400000Y-92100000D02*
X176400000Y-103900000D01*
X180500000Y-92100000D02*
X176400000Y-92100000D01*
X180500000Y-103900000D02*
X176400000Y-103900000D01*
X182000000Y-98000000D02*
X183000000Y-98000000D01*
X182500000Y-97500000D02*
X182500000Y-98500000D01*
X184500000Y-92100000D02*
X188600000Y-92100000D01*
X188600000Y-92100000D02*
X188600000Y-94500000D01*
X188600000Y-96700000D02*
X188600000Y-99300000D01*
X188600000Y-101500000D02*
X188600000Y-103900000D01*
X188600000Y-103900000D02*
X184500000Y-103900000D01*
X185500000Y-98000000D02*
G75*
G02*
X179500000Y-98000000I-3000000J0D01*
G01*
X179500000Y-98000000D02*
G75*
G02*
X185500000Y-98000000I3000000J0D01*
G01*
%TO.C,D8*%
X185980000Y-132090000D02*
X188220000Y-132090000D01*
X185980000Y-132210000D02*
X188220000Y-132210000D01*
X185980000Y-132330000D02*
X188220000Y-132330000D01*
X187100000Y-128040000D02*
X187100000Y-128690000D01*
X187100000Y-133580000D02*
X187100000Y-132930000D01*
X185980000Y-128690000D02*
X188220000Y-128690000D01*
X188220000Y-132930000D01*
X185980000Y-132930000D01*
X185980000Y-128690000D01*
%TO.C,D6*%
X178880000Y-132090000D02*
X181120000Y-132090000D01*
X178880000Y-132210000D02*
X181120000Y-132210000D01*
X178880000Y-132330000D02*
X181120000Y-132330000D01*
X180000000Y-128040000D02*
X180000000Y-128690000D01*
X180000000Y-133580000D02*
X180000000Y-132930000D01*
X178880000Y-128690000D02*
X181120000Y-128690000D01*
X181120000Y-132930000D01*
X178880000Y-132930000D01*
X178880000Y-128690000D01*
%TO.C,D5*%
X175330000Y-132090000D02*
X177570000Y-132090000D01*
X175330000Y-132210000D02*
X177570000Y-132210000D01*
X175330000Y-132330000D02*
X177570000Y-132330000D01*
X176450000Y-128040000D02*
X176450000Y-128690000D01*
X176450000Y-133580000D02*
X176450000Y-132930000D01*
X175330000Y-128690000D02*
X177570000Y-128690000D01*
X177570000Y-132930000D01*
X175330000Y-132930000D01*
X175330000Y-128690000D01*
%TO.C,U1*%
D14*
X96100000Y-72500000D02*
X96100000Y-89500000D01*
X98100000Y-91500000D02*
X111900000Y-91500000D01*
X100500000Y-69075970D02*
X109500000Y-69075970D01*
X100500000Y-76429270D02*
X100500000Y-69075970D01*
X109500000Y-69075970D02*
X109500000Y-76429270D01*
X109500000Y-76429270D02*
X100500000Y-76429270D01*
X111900000Y-70500910D02*
X98100000Y-70500910D01*
X113900000Y-89500000D02*
X113900000Y-72500000D01*
D13*
X96100000Y-72500000D02*
G75*
G02*
X98100000Y-70500000I2044612J-44612D01*
G01*
X98100000Y-91500000D02*
G75*
G02*
X96100000Y-89500000I44857J2044857D01*
G01*
X111900000Y-70500000D02*
G75*
G02*
X113900000Y-72500000I-44610J-2044610D01*
G01*
X113900000Y-89500000D02*
G75*
G02*
X111900000Y-91500000I-2000000J0D01*
G01*
D15*
X94127000Y-72200000D02*
G75*
G02*
X93873000Y-72200000I-127000J0D01*
G01*
X93873000Y-72200000D02*
G75*
G02*
X94127000Y-72200000I127000J0D01*
G01*
D16*
X96112285Y-72438295D02*
X96115333Y-72389527D01*
X96119397Y-72340506D01*
X96112285Y-72438295D01*
X113889492Y-89521574D02*
X113887713Y-89570850D01*
X113884665Y-89619618D01*
X113880601Y-89668639D01*
X113875268Y-89717407D01*
X113868664Y-89766175D01*
X113861044Y-89814690D01*
X113852153Y-89862950D01*
X113842248Y-89910955D01*
X113889492Y-89521574D01*
%TO.C,D1*%
D13*
X175430000Y-121280000D02*
X177670000Y-121280000D01*
X175430000Y-121400000D02*
X177670000Y-121400000D01*
X175430000Y-121520000D02*
X177670000Y-121520000D01*
X176550000Y-117230000D02*
X176550000Y-117880000D01*
X176550000Y-122770000D02*
X176550000Y-122120000D01*
X175430000Y-117880000D02*
X177670000Y-117880000D01*
X177670000Y-122120000D01*
X175430000Y-122120000D01*
X175430000Y-117880000D01*
%TO.C,D7*%
X182430000Y-132090000D02*
X184670000Y-132090000D01*
X182430000Y-132210000D02*
X184670000Y-132210000D01*
X182430000Y-132330000D02*
X184670000Y-132330000D01*
X183550000Y-128040000D02*
X183550000Y-128690000D01*
X183550000Y-133580000D02*
X183550000Y-132930000D01*
X182430000Y-128690000D02*
X184670000Y-128690000D01*
X184670000Y-132930000D01*
X182430000Y-132930000D01*
X182430000Y-128690000D01*
%TO.C,SW4*%
X125310000Y-101435000D02*
X139280000Y-101435000D01*
X125310000Y-115405000D02*
X125310000Y-101435000D01*
X139280000Y-101435000D02*
X139280000Y-115405000D01*
X139280000Y-115405000D02*
X125310000Y-115405000D01*
%TO.C,SW7*%
X155390000Y-120935000D02*
X169360000Y-120935000D01*
X155390000Y-134905000D02*
X155390000Y-120935000D01*
X169360000Y-120935000D02*
X169360000Y-134905000D01*
X169360000Y-134905000D02*
X155390000Y-134905000D01*
%TO.C,SW6*%
X144810000Y-101435000D02*
X158780000Y-101435000D01*
X144810000Y-115405000D02*
X144810000Y-101435000D01*
X158780000Y-101435000D02*
X158780000Y-115405000D01*
X158780000Y-115405000D02*
X144810000Y-115405000D01*
%TO.C,D2*%
X178980000Y-121280000D02*
X181220000Y-121280000D01*
X178980000Y-121400000D02*
X181220000Y-121400000D01*
X178980000Y-121520000D02*
X181220000Y-121520000D01*
X180100000Y-117230000D02*
X180100000Y-117880000D01*
X180100000Y-122770000D02*
X180100000Y-122120000D01*
X178980000Y-117880000D02*
X181220000Y-117880000D01*
X181220000Y-122120000D01*
X178980000Y-122120000D01*
X178980000Y-117880000D01*
%TO.C,SW5*%
X135700000Y-120975000D02*
X149670000Y-120975000D01*
X135700000Y-134945000D02*
X135700000Y-120975000D01*
X149670000Y-120975000D02*
X149670000Y-134945000D01*
X149670000Y-134945000D02*
X135700000Y-134945000D01*
%TO.C,SW2*%
X105810000Y-101435000D02*
X119780000Y-101435000D01*
X105810000Y-115405000D02*
X105810000Y-101435000D01*
X119780000Y-101435000D02*
X119780000Y-115405000D01*
X119780000Y-115405000D02*
X105810000Y-115405000D01*
%TO.C,J1*%
X122995000Y-72920000D02*
X124375000Y-72920000D01*
X122995000Y-74300000D02*
X122995000Y-72920000D01*
X122995000Y-75570000D02*
X122995000Y-83300000D01*
X122995000Y-75570000D02*
X125755000Y-75570000D01*
X122995000Y-83300000D02*
X125755000Y-83300000D01*
X125755000Y-75570000D02*
X125755000Y-83300000D01*
%TO.C,D3*%
X182530000Y-121280000D02*
X184770000Y-121280000D01*
X182530000Y-121400000D02*
X184770000Y-121400000D01*
X182530000Y-121520000D02*
X184770000Y-121520000D01*
X183650000Y-117230000D02*
X183650000Y-117880000D01*
X183650000Y-122770000D02*
X183650000Y-122120000D01*
X182530000Y-117880000D02*
X184770000Y-117880000D01*
X184770000Y-122120000D01*
X182530000Y-122120000D01*
X182530000Y-117880000D01*
%TD*%
M02*
